<?xml version="1.0" encoding="UTF-8" standalone="no"?>
<!DOCTYPE svg PUBLIC "-//W3C//DTD SVG 1.1//EN" "http://www.w3.org/Graphics/SVG/1.1/DTD/svg11.dtd">
<svg width="100%" height="100%" viewBox="0 0 32 32" version="1.1" xmlns="http://www.w3.org/2000/svg" xmlns:xlink="http://www.w3.org/1999/xlink" xml:space="preserve" xmlns:serif="http://www.serif.com/" style="fill-rule:evenodd;clip-rule:evenodd;stroke-linejoin:round;stroke-miterlimit:2;">
    <g transform="matrix(1,0,0,1,0.4575,-1.4145)">
        <path d="M8.992,9.933C10.844,9.933 12.147,11.39 12.147,13.312C12.147,15.303 10.844,16.691 8.992,16.691C7.209,16.691 5.869,15.304 5.869,13.312C5.869,11.39 7.209,9.933 8.992,9.933ZM8.992,14.861C9.906,14.861 10.317,14.065 10.317,13.312C10.317,12.587 9.907,11.766 8.992,11.763C8.11,11.795 7.699,12.614 7.699,13.312C7.699,14.064 8.106,14.861 8.992,14.861Z"/>
    </g>
    <g transform="matrix(1,0,0,1,0.4575,-1.4145)">
        <path d="M24.32,20.576C24.032,20.576 23.84,20.672 23.648,20.928C22.688,22.24 21.472,23.04 19.744,23.04C16.704,23.04 14.88,20.64 14.88,17.504C14.88,14.336 16.704,11.936 19.616,11.936C21.568,11.936 22.72,12.992 23.68,14.144C23.84,14.368 24.096,14.464 24.352,14.464C24.704,14.464 25.216,14.176 25.216,13.6C25.216,13.312 25.088,12.96 24.832,12.576C24.224,11.744 22.496,10.112 19.616,10.112C15.744,10.112 12.96,13.088 12.96,17.504C12.96,21.952 15.712,24.896 19.616,24.896C22.56,24.896 24.192,23.136 24.864,22.24C25.088,21.952 25.12,21.664 25.12,21.44C25.12,21.024 24.768,20.576 24.32,20.576Z" style="fill-rule:nonzero;"/>
    </g>
</svg>
