<?xml version="1.0" encoding="UTF-8" standalone="no"?><svg viewBox="0 0 32 32" xmlns="http://www.w3.org/2000/svg" xmlns:xlink="http://www.w3.org/1999/xlink" xml:space="preserve" fill-rule="evenodd" clip-rule="evenodd" stroke-linejoin="round" stroke-miterlimit="2" fill="currentColor"><g transform="translate(-.256 .928)"><path d="M26.24 12.992c1.056.736 1.728 1.952 1.728 3.2 0 2.208-1.792 4-3.968 4h-.704c-.32 1.824-1.952 3.232-3.872 3.232h-9.44a5.435 5.435 0 0 1-5.44-5.44v-.032a5.435 5.435 0 0 1 5.44-5.44c.288 0 .544.032.8.096a6 6 0 0 1 4.224-2.624C16.032 7.936 18.08 6.72 20.32 6.72a5.927 5.927 0 0 1 5.92 5.92zm-6.784 8.64c1.184 0 2.144-.96 2.144-2.144 0-.832-.48-1.6-1.248-1.952-.384-.16-.576-.576-.512-.96.032-.256.064-.48.064-.704a4.14 4.14 0 0 0-4.128-4.128 4.11 4.11 0 0 0-3.264 1.6c.192.096.352.224.512.32a.92.92 0 0 1 .256 1.248.92.92 0 0 1-1.248.256c-.384-.288-.928-.608-1.472-.736-.192-.032-.384-.032-.576-.032-1.024 0-1.92.416-2.56 1.056A3.55 3.55 0 0 0 6.4 17.984c0 .032-.032.096-.032.128.064 1.952 1.664 3.52 3.616 3.52zm4.544-3.2c1.184 0 2.144-.96 2.144-2.144 0-.832-.48-1.6-1.248-1.952-.384-.16-.576-.576-.512-.96.032-.256.064-.48.064-.704a4.14 4.14 0 0 0-4.128-4.128 4.16 4.16 0 0 0-3.232 1.568 5.94 5.94 0 0 1 4.608 5.792v.352c.736.512 1.248 1.312 1.504 2.176z"/></g></svg>