<?xml version="1.0" encoding="UTF-8" standalone="no"?>
<!DOCTYPE svg PUBLIC "-//W3C//DTD SVG 1.1//EN" "http://www.w3.org/Graphics/SVG/1.1/DTD/svg11.dtd">
<svg width="100%" height="100%" viewBox="0 0 32 32" version="1.1" xmlns="http://www.w3.org/2000/svg" xmlns:xlink="http://www.w3.org/1999/xlink" xml:space="preserve" xmlns:serif="http://www.serif.com/" style="fill-rule:evenodd;clip-rule:evenodd;stroke-linejoin:round;stroke-miterlimit:2;">
    <path d="M16.833,11.039C16.69,11.007 15.846,10.848 15.544,10.848C15.279,10.848 15.017,10.865 14.759,10.899C15.785,8.859 17.829,7.648 20.064,7.648C23.328,7.648 25.984,10.304 25.984,13.568L25.984,13.92C27.04,14.656 27.712,15.872 27.712,17.12C27.712,19.328 25.92,21.12 23.744,21.12L23.027,21.121C23.069,20.902 23.088,20.652 23.092,20.423C23.092,20.059 23.039,19.699 22.941,19.357L22.944,19.36C22.688,18.496 22.176,17.696 21.44,17.184L21.44,16.832C21.44,13.984 19.456,11.648 16.832,11.04L16.833,11.039Z"/>
    <g transform="matrix(1,0,0,1,-0.256,0.928)">
        <path d="M9.984,12.512C10.272,12.512 10.528,12.544 10.784,12.608C10.787,12.604 10.789,12.6 10.792,12.596L10.84,12.608C11.334,11.837 11.987,11.212 12.742,10.759C13.428,10.356 14.197,10.089 15.008,9.984C15.01,9.98 15.012,9.975 15.015,9.971C15.273,9.937 15.535,9.92 15.8,9.92C16.254,9.92 16.671,10.014 17.097,10.111C17.085,10.126 17.1,10.098 17.088,10.112C19.712,10.72 21.696,13.056 21.696,15.904L21.696,16.256C22.432,16.768 22.944,17.568 23.2,18.432L23.201,18.432C23.303,18.781 23.357,19.147 23.357,19.52C23.354,19.749 23.331,19.974 23.289,20.192L23.296,20.192C22.976,22.016 21.344,23.424 19.424,23.424L9.984,23.424C7.002,23.394 4.6,20.973 4.6,17.984L4.6,17.952C4.6,14.963 7.002,12.542 9.984,12.512ZM8.673,14.642C8.195,14.827 7.772,15.108 7.424,15.456C6.784,16.096 6.4,16.992 6.4,17.984C6.4,18.016 6.368,18.08 6.368,18.112C6.396,18.955 6.71,19.726 7.215,20.331C7.883,21.144 8.898,21.664 10.04,21.664L19.512,21.664C20.696,21.664 21.656,20.704 21.656,19.52C21.656,18.741 21.235,18.017 20.55,17.64C20.486,17.602 20.42,17.567 20.352,17.536C20.33,17.527 20.309,17.517 20.288,17.506C19.985,17.317 19.839,16.95 19.896,16.608C19.928,16.352 19.96,16.128 19.96,15.904C19.96,14.36 19.103,13.009 17.842,12.301C17.233,11.947 16.527,11.744 15.776,11.744C14.464,11.744 13.28,12.352 12.512,13.344C12.704,13.44 12.864,13.568 13.024,13.664C13.44,13.952 13.536,14.496 13.28,14.912C13.204,15.021 13.111,15.109 13.007,15.173C12.724,15.322 12.375,15.313 12.088,15.136C11.8,14.944 11.384,14.688 10.968,14.528C10.936,14.528 10.904,14.496 10.872,14.496C10.84,14.496 10.808,14.464 10.776,14.464C10.52,14.4 10.264,14.368 10.04,14.368C9.557,14.368 9.096,14.467 8.673,14.642Z"/>
    </g>
</svg>
