<?xml version="1.0" encoding="UTF-8" standalone="no"?>
<!DOCTYPE svg PUBLIC "-//W3C//DTD SVG 1.1//EN" "http://www.w3.org/Graphics/SVG/1.1/DTD/svg11.dtd">
<svg width="100%" height="100%" viewBox="0 0 32 32" version="1.1" xmlns="http://www.w3.org/2000/svg" xmlns:xlink="http://www.w3.org/1999/xlink" xml:space="preserve" xmlns:serif="http://www.serif.com/" style="fill-rule:evenodd;clip-rule:evenodd;stroke-linejoin:round;stroke-miterlimit:2;">
    <g transform="matrix(1,0,0,1,-0.188492,-0.81435)">
        <path d="M13.235,20.211C13.235,19.659 13.683,19.211 14.235,19.211C14.787,19.211 15.235,19.659 15.235,20.211C15.235,21.269 14.857,21.97 14.377,22.638C13.932,23.258 13.332,23.823 13.332,25.074C13.332,25.626 12.884,26.074 12.332,26.074C11.78,26.074 11.332,25.626 11.332,25.074C11.332,23.505 11.898,22.628 12.48,21.841C12.833,21.364 13.235,20.959 13.235,20.211ZM16.222,20.211C16.222,19.659 16.67,19.211 17.222,19.211C17.774,19.211 18.222,19.659 18.222,20.211C18.222,21.269 17.844,21.97 17.365,22.638C16.919,23.258 16.319,23.823 16.319,25.074C16.319,25.626 15.871,26.074 15.319,26.074C14.767,26.074 14.319,25.626 14.319,25.074C14.319,23.505 14.885,22.628 15.467,21.841C15.82,21.364 16.222,20.959 16.222,20.211ZM19.209,20.211C19.209,19.659 19.657,19.211 20.209,19.211C20.761,19.211 21.209,19.659 21.209,20.211C21.209,21.269 20.831,21.97 20.352,22.638C19.906,23.258 19.306,23.823 19.306,25.074C19.306,25.626 18.858,26.074 18.306,26.074C17.754,26.074 17.306,25.626 17.306,25.074C17.306,23.505 17.872,22.628 18.454,21.841C18.807,21.364 19.209,20.959 19.209,20.211Z"/>
    </g>
    <g transform="matrix(0.959276,0,0,0.979807,-1.45794,-1.16441)">
        <path d="M8.342,16.542L8.342,16.2C8.342,13.13 10.877,10.648 14.013,10.648C14.313,10.648 14.613,10.681 14.913,10.746C16.047,9.048 17.982,8.068 20.05,8.068C23.453,8.068 26.255,10.779 26.255,14.143L26.255,14.535C27.356,15.286 28.057,16.527 28.057,17.866C28.038,18.459 27.876,19.031 27.603,19.546L27.602,19.546C27.131,20.495 26.275,21.226 25.249,21.58C24.761,21.749 24.224,21.498 24.052,21.02C23.88,20.541 24.137,20.016 24.625,19.848C25.228,19.64 25.709,19.183 25.95,18.606L25.952,18.607C26.024,18.436 26.075,18.253 26.102,18.063C26.114,17.971 26.12,17.876 26.12,17.78C26.12,17.763 26.12,17.746 26.121,17.73C26.107,16.895 25.609,16.13 24.821,15.776C24.42,15.612 24.22,15.188 24.287,14.796C24.32,14.535 24.354,14.306 24.354,14.077C24.354,11.759 22.419,9.864 20.05,9.864C18.716,9.864 17.482,10.452 16.681,11.465C16.848,11.563 17.015,11.693 17.182,11.791C17.615,12.085 17.715,12.64 17.449,13.065C17.148,13.49 16.581,13.588 16.148,13.326C15.781,13.098 15.28,12.804 14.78,12.64C14.546,12.608 14.279,12.575 14.046,12.575C11.944,12.575 10.218,14.248 10.218,16.306C10.218,16.38 10.218,16.532 10.218,16.542C10.218,17.81 10.839,18.935 11.795,19.626C12.048,19.809 12.325,19.961 12.62,20.077C12.872,20.176 13.136,20.248 13.41,20.291C13.922,20.37 14.271,20.842 14.19,21.342C14.108,21.843 13.627,22.185 13.116,22.105C12.701,22.041 12.301,21.931 11.921,21.782C11.478,21.607 11.062,21.379 10.681,21.104C9.266,20.082 8.342,18.419 8.342,16.542Z"/>
    </g>
</svg>
