<?xml version="1.0" encoding="UTF-8" standalone="no"?>
<!DOCTYPE svg PUBLIC "-//W3C//DTD SVG 1.1//EN" "http://www.w3.org/Graphics/SVG/1.1/DTD/svg11.dtd">
<svg width="100%" height="100%" viewBox="0 0 32 32" version="1.1" xmlns="http://www.w3.org/2000/svg" xmlns:xlink="http://www.w3.org/1999/xlink" xml:space="preserve" xmlns:serif="http://www.serif.com/" style="fill-rule:evenodd;clip-rule:evenodd;stroke-linejoin:round;stroke-miterlimit:2;">
    <g transform="matrix(1,0,0,1,-0.032,-1.888)">
        <path d="M19.904,21.856C19.904,22.351 19.503,22.752 19.008,22.752C18.513,22.752 18.112,22.351 18.112,21.856C18.112,21.361 18.513,20.96 19.008,20.96C19.503,20.96 19.904,21.361 19.904,21.856ZM19.904,24.346C19.904,24.841 19.503,25.242 19.008,25.242C18.513,25.242 18.112,24.841 18.112,24.346C18.112,23.851 18.513,23.45 19.008,23.45C19.503,23.45 19.904,23.851 19.904,24.346ZM15.092,20.801C15.092,21.296 14.691,21.697 14.196,21.697C13.701,21.697 13.3,21.296 13.3,20.801C13.3,20.306 13.701,19.905 14.196,19.905C14.691,19.905 15.092,20.306 15.092,20.801ZM14.208,22.147C14.688,22.147 15.104,22.563 15.104,23.043L15.104,24.579C15.104,25.091 14.688,25.475 14.208,25.475C13.696,25.475 13.312,25.059 13.312,24.579L13.312,23.043C13.312,22.531 13.728,22.147 14.208,22.147ZM17.519,25.568C17.519,26.063 17.118,26.464 16.623,26.464C16.128,26.464 15.727,26.063 15.727,25.568C15.727,25.073 16.128,24.672 16.623,24.672C17.118,24.672 17.519,25.073 17.519,25.568ZM16.623,20.96C17.103,20.96 17.519,21.376 17.519,21.856L17.519,23.392C17.519,23.904 17.103,24.288 16.623,24.288C16.111,24.288 15.727,23.872 15.727,23.392L15.727,21.856C15.727,21.344 16.143,20.96 16.623,20.96Z"/>
    </g>
    <g transform="matrix(1,0,0,1,-0.032,-1.888)">
        <path d="M23.744,15.648L23.744,15.264C23.744,11.968 21.056,9.312 17.792,9.312C15.808,9.312 13.984,10.272 12.864,11.936C12.608,11.872 12.32,11.84 12.032,11.84C9.024,11.84 6.592,14.272 6.592,17.28L6.592,17.376C6.592,20.384 9.024,22.816 12.032,22.816C12.512,22.816 12.928,22.4 12.928,21.92C12.928,21.44 12.544,21.024 12.032,21.024C10.048,21.024 8.448,19.456 8.384,17.472C8.384,17.408 8.416,17.376 8.416,17.312C8.416,16.704 8.576,16.128 8.832,15.616C9.44,14.496 10.656,13.728 12.032,13.728C12.288,13.728 12.608,13.76 12.864,13.824C13.312,13.984 13.76,14.24 14.08,14.464C14.496,14.72 15.04,14.624 15.328,14.208C15.584,13.792 15.488,13.248 15.072,12.96C14.912,12.864 14.752,12.736 14.56,12.64C15.328,11.68 16.512,11.072 17.792,11.072C20.064,11.072 21.92,12.928 21.92,15.2C21.92,15.424 21.888,15.648 21.856,15.904C21.792,16.288 21.984,16.704 22.368,16.864C23.136,17.216 23.616,17.984 23.616,18.816C23.616,20 22.656,20.96 21.472,20.96C20.992,20.96 20.576,21.376 20.576,21.856C20.576,22.336 20.96,22.752 21.472,22.752C23.648,22.752 25.44,20.992 25.472,18.912C25.472,17.6 24.8,16.384 23.744,15.648Z" style="fill-rule:nonzero;"/>
    </g>
</svg>
