<?xml version="1.0" encoding="UTF-8" standalone="no"?>
<!DOCTYPE svg PUBLIC "-//W3C//DTD SVG 1.1//EN" "http://www.w3.org/Graphics/SVG/1.1/DTD/svg11.dtd">
<svg width="100%" height="100%" viewBox="0 0 32 32" version="1.1" xmlns="http://www.w3.org/2000/svg" xmlns:xlink="http://www.w3.org/1999/xlink" xml:space="preserve" xmlns:serif="http://www.serif.com/" style="fill-rule:evenodd;clip-rule:evenodd;stroke-linejoin:round;stroke-miterlimit:2;">
    <g>
        <path d="M19.093,22.691C18.596,22.692 18.192,22.289 18.192,21.792C18.191,21.296 18.594,20.892 19.091,20.891L22.574,20.888C23.07,20.887 23.474,21.29 23.474,21.787C23.475,22.284 23.072,22.687 22.575,22.688L19.093,22.691ZM13.453,22.688C12.957,22.688 12.553,22.285 12.553,21.788C12.553,21.291 12.957,20.888 13.453,20.888L16.745,20.888C17.242,20.888 17.645,21.291 17.645,21.788C17.645,22.285 17.242,22.688 16.745,22.688L13.453,22.688ZM11.144,20.926C11.641,20.926 12.045,21.329 12.045,21.826C12.045,22.323 11.641,22.727 11.144,22.727C10.647,22.727 10.243,22.323 10.243,21.826C10.243,21.329 10.647,20.926 11.144,20.926ZM16.55,18.615C17.048,18.615 17.451,19.018 17.451,19.515C17.451,20.012 17.048,20.416 16.55,20.416C16.053,20.416 15.65,20.012 15.65,19.515C15.65,19.018 16.053,18.615 16.55,18.615ZM24.282,16.345C24.779,16.345 25.182,16.749 25.182,17.246C25.182,17.743 24.779,18.146 24.282,18.146C23.785,18.146 23.381,17.743 23.381,17.246C23.381,16.749 23.785,16.345 24.282,16.345ZM18.892,20.408C18.395,20.408 17.992,20.004 17.992,19.508C17.992,19.011 18.395,18.608 18.892,18.608L24.664,18.608C25.161,18.608 25.564,19.011 25.564,19.508C25.564,20.004 25.161,20.408 24.664,20.408L18.892,20.408ZM8.518,20.408C8.022,20.408 7.618,20.004 7.618,19.508C7.618,19.011 8.022,18.608 8.518,18.608L14.25,18.608C14.746,18.608 15.15,19.011 15.15,19.508C15.15,20.004 14.746,20.408 14.25,20.408L8.518,20.408ZM19.336,18.168C18.839,18.168 18.436,17.765 18.436,17.268C18.436,16.771 18.839,16.368 19.336,16.368L21.944,16.368C22.441,16.368 22.844,16.771 22.844,17.268C22.844,17.765 22.441,18.168 21.944,18.168L19.336,18.168ZM7.286,18.168C6.789,18.168 6.386,17.765 6.386,17.268C6.386,16.771 6.789,16.368 7.286,16.368L17.011,16.368C17.507,16.368 17.911,16.771 17.911,17.268C17.911,17.765 17.507,18.168 17.011,18.168L7.286,18.168Z"/>
    </g>
    <g transform="matrix(1,0,0,1,-0.592,-0.064)">
        <path d="M8.416,15.84C8.576,15.936 8.736,15.968 8.896,15.968C9.216,15.968 9.504,15.808 9.664,15.52C10.496,14.144 12.16,13.472 13.76,13.92C14.176,14.016 14.624,13.824 14.816,13.44C15.52,12.032 16.928,11.136 18.528,11.136C20.736,11.136 22.56,12.864 22.656,15.072C22.656,15.584 23.072,15.968 23.584,15.936C24.096,15.936 24.48,15.52 24.448,15.008C24.288,11.84 21.664,9.376 18.496,9.376C16.48,9.376 14.624,10.368 13.536,12.064C11.392,11.744 9.248,12.736 8.128,14.592C7.872,15.04 8,15.584 8.416,15.84Z" style="fill-rule:nonzero;"/>
    </g>
</svg>
