<?xml version="1.0" encoding="UTF-8" standalone="no"?><svg viewBox="0 0 32 32" xmlns="http://www.w3.org/2000/svg" xmlns:xlink="http://www.w3.org/1999/xlink" xml:space="preserve" fill-rule="evenodd" clip-rule="evenodd" stroke-linejoin="round" stroke-miterlimit="2" fill="currentColor"><path d="M8.416 15.84c-.416-.256-.544-.8-.288-1.248a5.39 5.39 0 0 1 5.408-2.528c1.088-1.696 2.944-2.688 4.96-2.688 3.168 0 5.792 2.464 5.952 5.632a.857.857 0 0 1-.864.928.857.857 0 0 1-.928-.864 4.12 4.12 0 0 0-4.128-3.936c-1.6 0-3.008.896-3.712 2.304a.946.946 0 0 1-1.056.48 3.63 3.63 0 0 0-4.096 1.6.86.86 0 0 1-.768.448.9.9 0 0 1-.48-.128M23.2 20.96c.512 0 .896.416.896.896s-.416.896-.896.896H11.776a.894.894 0 0 1-.896-.896c0-.48.416-.896.896-.896zm2.08-2.272c.512 0 .896.416.896.896s-.384.896-.896.896H9.088a.894.894 0 0 1-.896-.896c0-.48.416-.896.896-.896zm.512-1.376c0 .48-.384.896-.896.896H7.904a.894.894 0 0 1-.896-.896c0-.48.416-.896.896-.896h16.992c.512 0 .896.416.896.896"/></svg>