<?xml version="1.0" encoding="UTF-8" standalone="no"?>
<!DOCTYPE svg PUBLIC "-//W3C//DTD SVG 1.1//EN" "http://www.w3.org/Graphics/SVG/1.1/DTD/svg11.dtd">
<svg width="100%" height="100%" viewBox="0 0 32 32" version="1.1" xmlns="http://www.w3.org/2000/svg" xmlns:xlink="http://www.w3.org/1999/xlink" xml:space="preserve" xmlns:serif="http://www.serif.com/" style="fill-rule:evenodd;clip-rule:evenodd;stroke-linejoin:round;stroke-miterlimit:2;">
    <g transform="matrix(1,0,0,1,-0.256,0.928)">
        <path d="M15.015,9.971C16.041,7.931 18.085,6.72 20.32,6.72C23.584,6.72 26.24,9.376 26.24,12.64L26.24,12.992C27.296,13.728 27.968,14.944 27.968,16.192C27.968,18.4 26.176,20.192 24,20.192L23.293,20.167C23.334,19.949 23.357,19.724 23.36,19.495C23.36,19.122 23.306,18.756 23.204,18.407L24,18.432C25.184,18.432 26.144,17.472 26.144,16.288C26.144,15.456 25.664,14.688 24.896,14.336C24.512,14.176 24.32,13.76 24.384,13.376C24.416,13.12 24.448,12.896 24.448,12.672C24.448,10.4 22.592,8.544 20.32,8.544C19.059,8.544 17.892,9.134 17.123,10.069C16.697,9.971 16.254,9.92 15.8,9.92C15.535,9.92 15.273,9.937 15.015,9.971Z"/>
    </g>
    <g transform="matrix(1,0,0,1,-0.256,0.928)">
        <path d="M9.984,12.512C10.272,12.512 10.528,12.544 10.784,12.608C10.787,12.604 10.789,12.6 10.792,12.596L10.84,12.608C11.334,11.837 11.987,11.212 12.742,10.759C13.428,10.356 14.197,10.089 15.008,9.984C15.01,9.98 15.012,9.975 15.015,9.971C15.273,9.937 15.535,9.92 15.8,9.92C16.254,9.92 16.697,9.971 17.123,10.069C17.111,10.083 17.1,10.098 17.088,10.112C19.712,10.72 21.696,13.056 21.696,15.904L21.696,16.256C22.432,16.768 22.944,17.568 23.2,18.432L23.323,18.432C23.426,18.781 23.48,19.147 23.48,19.52C23.477,19.749 23.453,19.974 23.412,20.192L23.296,20.192C22.976,22.016 21.344,23.424 19.424,23.424L9.984,23.424C7.002,23.394 4.6,20.973 4.6,17.984L4.6,17.952C4.6,14.963 7.002,12.542 9.984,12.512ZM8.673,14.642C8.195,14.827 7.772,15.108 7.424,15.456C6.784,16.096 6.4,16.992 6.4,17.984C6.4,18.016 6.368,18.08 6.368,18.112C6.396,18.955 6.71,19.726 7.215,20.331C7.883,21.144 8.898,21.664 10.04,21.664L19.512,21.664C20.696,21.664 21.656,20.704 21.656,19.52C21.656,18.741 21.235,18.017 20.55,17.64C20.486,17.602 20.42,17.567 20.352,17.536C20.33,17.527 20.309,17.517 20.288,17.506C19.985,17.317 19.839,16.95 19.896,16.608C19.928,16.352 19.96,16.128 19.96,15.904C19.96,14.36 19.103,13.009 17.842,12.301C17.233,11.947 16.527,11.744 15.776,11.744C14.464,11.744 13.28,12.352 12.512,13.344C12.704,13.44 12.864,13.568 13.024,13.664C13.44,13.952 13.536,14.496 13.28,14.912C13.204,15.021 13.111,15.109 13.007,15.173C12.724,15.322 12.375,15.313 12.088,15.136C11.8,14.944 11.384,14.688 10.968,14.528C10.936,14.528 10.904,14.496 10.872,14.496C10.84,14.496 10.808,14.464 10.776,14.464C10.52,14.4 10.264,14.368 10.04,14.368C9.557,14.368 9.096,14.467 8.673,14.642Z"/>
    </g>
</svg>
