<?xml version="1.0" encoding="UTF-8" standalone="no"?>
<!DOCTYPE svg PUBLIC "-//W3C//DTD SVG 1.1//EN" "http://www.w3.org/Graphics/SVG/1.1/DTD/svg11.dtd">
<svg width="100%" height="100%" viewBox="0 0 32 32" version="1.1" xmlns="http://www.w3.org/2000/svg" xmlns:xlink="http://www.w3.org/1999/xlink" xml:space="preserve" xmlns:serif="http://www.serif.com/" style="fill-rule:evenodd;clip-rule:evenodd;stroke-linejoin:round;stroke-miterlimit:2;">
    <g transform="matrix(1,0,0,1,-0.08,0)">
        <path d="M14.592,14.528C13.792,15.328 13.792,16.608 14.592,17.408C15.936,18.72 19.04,18.976 19.04,18.976C19.04,18.976 18.816,15.872 17.472,14.528C16.672,13.728 15.392,13.728 14.592,14.528ZM16.48,16.416C16.224,16.672 15.84,16.672 15.584,16.416C15.36,16.16 15.36,15.776 15.584,15.52C15.84,15.264 16.224,15.264 16.48,15.52C16.736,15.776 16.736,16.16 16.48,16.416Z" style="fill-rule:nonzero;"/>
    </g>
    <g transform="matrix(1,0,0,1,-0.08,0)">
        <path d="M21.952,10.144C18.72,6.912 13.44,6.912 10.208,10.144C8.64,11.712 7.776,13.792 7.776,16C7.776,18.208 8.608,20.288 10.208,21.856C13.44,25.088 18.72,25.088 21.952,21.856C23.52,20.288 24.384,18.208 24.384,16C24.384,13.792 23.52,11.712 21.952,10.144ZM20.672,20.608C18.144,23.136 14.016,23.136 11.488,20.608C10.272,19.36 9.6,17.76 9.6,16C9.6,14.24 10.272,12.608 11.488,11.392C14.016,8.864 18.144,8.864 20.672,11.392C21.888,12.64 22.56,14.272 22.56,16C22.56,17.728 21.888,19.36 20.672,20.608Z" style="fill-rule:nonzero;"/>
    </g>
</svg>
