<?xml version="1.0" encoding="UTF-8" standalone="no"?>
<!DOCTYPE svg PUBLIC "-//W3C//DTD SVG 1.1//EN" "http://www.w3.org/Graphics/SVG/1.1/DTD/svg11.dtd">
<svg width="100%" height="100%" viewBox="0 0 32 32" version="1.1" xmlns="http://www.w3.org/2000/svg" xmlns:xlink="http://www.w3.org/1999/xlink" xml:space="preserve" xmlns:serif="http://www.serif.com/" style="fill-rule:evenodd;clip-rule:evenodd;stroke-linejoin:round;stroke-miterlimit:2;">
    <g transform="matrix(1,0,0,1,-0.384103,-0.032)">
        <path d="M14.368,16.096C14.368,17.216 15.264,18.144 16.416,18.144C17.568,18.144 18.464,17.248 18.464,16.096C18.432,14.176 16.416,11.84 16.416,11.84C16.416,11.84 14.368,14.208 14.368,16.096ZM17.024,16.096C17.024,16.416 16.736,16.704 16.416,16.704C16.064,16.704 15.808,16.416 15.808,16.096C15.808,15.776 16.096,15.488 16.416,15.488C16.736,15.488 17.024,15.776 17.024,16.096Z" style="fill-rule:nonzero;"/>
    </g>
    <g transform="matrix(1,0,0,1,-0.384103,-0.032)">
        <path d="M16.384,7.744C11.808,7.744 8.096,11.456 8.096,16.032C8.096,20.608 11.84,24.32 16.416,24.32C20.992,24.32 24.704,20.608 24.672,16.032C24.672,11.456 20.96,7.744 16.384,7.744ZM16.416,22.528C12.832,22.528 9.92,19.616 9.92,16.032C9.92,12.448 12.832,9.536 16.416,9.536C20,9.536 22.912,12.448 22.912,16.032C22.912,19.616 20,22.528 16.416,22.528Z" style="fill-rule:nonzero;"/>
    </g>
</svg>
