<?xml version="1.0" encoding="UTF-8" standalone="no"?>
<!DOCTYPE svg PUBLIC "-//W3C//DTD SVG 1.1//EN" "http://www.w3.org/Graphics/SVG/1.1/DTD/svg11.dtd">
<svg width="100%" height="100%" viewBox="0 0 32 32" version="1.1" xmlns="http://www.w3.org/2000/svg" xmlns:xlink="http://www.w3.org/1999/xlink" xml:space="preserve" xmlns:serif="http://www.serif.com/" style="fill-rule:evenodd;clip-rule:evenodd;stroke-linejoin:round;stroke-miterlimit:2;">
    <g transform="matrix(0.692985,0,0,0.612505,3.71189,6.64131)">
        <path d="M13.337,14.955L13.337,16.579C13.337,17.481 12.691,18.212 11.894,18.212L9.733,18.212C8.936,18.212 8.289,17.481 8.289,16.579L8.289,14.955C8.289,14.053 8.936,13.322 9.733,13.322L11.894,13.322C12.691,13.322 13.337,14.053 13.337,14.955ZM13.337,21.988L13.337,23.612C13.337,24.514 12.691,25.245 11.894,25.245L9.733,25.245C8.936,25.245 8.289,24.514 8.289,23.612L8.289,21.988C8.289,21.086 8.936,20.355 9.733,20.355L11.894,20.355C12.691,20.355 13.337,21.086 13.337,21.988ZM20.239,14.955L20.239,16.579C20.239,17.481 19.593,18.212 18.796,18.212L16.634,18.212C15.837,18.212 15.191,17.481 15.191,16.579L15.191,14.955C15.191,14.053 15.837,13.322 16.634,13.322L18.796,13.322C19.593,13.322 20.239,14.053 20.239,14.955ZM20.239,21.988L20.239,23.612C20.239,24.514 19.593,25.245 18.796,25.245L16.634,25.245C15.837,25.245 15.191,24.514 15.191,23.612L15.191,21.988C15.191,21.086 15.837,20.355 16.634,20.355L18.796,20.355C19.593,20.355 20.239,21.086 20.239,21.988ZM27.175,14.955L27.175,16.579C27.175,17.481 26.529,18.212 25.732,18.212L23.57,18.212C22.773,18.212 22.127,17.481 22.127,16.579L22.127,14.955C22.127,14.053 22.773,13.322 23.57,13.322L25.732,13.322C26.529,13.322 27.175,14.053 27.175,14.955ZM27.175,21.988L27.175,23.612C27.175,24.514 26.529,25.245 25.732,25.245L23.57,25.245C22.773,25.245 22.127,24.514 22.127,23.612L22.127,21.988C22.127,21.086 22.773,20.355 23.57,20.355L25.732,20.355C26.529,20.355 27.175,21.086 27.175,21.988Z"/>
    </g>
    <g transform="matrix(1,0,0,1,0.474717,1.91334)">
        <path d="M20.576,6.064L22.008,6.064C23.953,6.064 25.531,7.642 25.531,9.587L25.531,20.589C25.531,22.533 23.953,24.112 22.008,24.112L9.042,24.112C7.098,24.112 5.519,22.533 5.519,20.589L5.519,9.587C5.519,7.642 7.098,6.064 9.042,6.064L10.553,6.064L10.553,5.102C10.553,4.55 11.001,4.102 11.553,4.102C12.105,4.102 12.553,4.55 12.553,5.102L12.553,6.064L18.576,6.064L18.576,4.899C18.576,4.437 19.024,4.062 19.576,4.062C20.128,4.062 20.576,4.437 20.576,4.899L20.576,6.064ZM7.519,11.056L7.519,20.589C7.519,21.429 8.202,22.112 9.042,22.112L22.008,22.112C22.849,22.112 23.531,21.429 23.531,20.589L23.531,11.056L7.519,11.056Z"/>
    </g>
</svg>
