<?xml version="1.0" encoding="UTF-8" standalone="no"?>
<!DOCTYPE svg PUBLIC "-//W3C//DTD SVG 1.1//EN" "http://www.w3.org/Graphics/SVG/1.1/DTD/svg11.dtd">
<svg width="100%" height="100%" viewBox="0 0 32 32" version="1.1" xmlns="http://www.w3.org/2000/svg" xmlns:xlink="http://www.w3.org/1999/xlink" xml:space="preserve" xmlns:serif="http://www.serif.com/" style="fill-rule:evenodd;clip-rule:evenodd;stroke-linejoin:round;stroke-miterlimit:2;">
    <g transform="matrix(1,0,0,1,0.398753,-0.0470039)">
        <path d="M5.023,17.007C4.471,17.003 4.026,16.552 4.03,16C4.034,15.448 4.486,15.003 5.037,15.007L6.197,15.016L8.01,7.245C8.117,6.783 8.534,6.461 9.008,6.472C9.482,6.484 9.882,6.826 9.967,7.292L12.022,18.554L13.056,11.74C13.122,11.305 13.464,10.965 13.899,10.901C14.335,10.837 14.76,11.065 14.949,11.462L15.695,13.038L17.085,7.249C17.193,6.799 17.596,6.482 18.059,6.483C18.522,6.483 18.924,6.801 19.031,7.252L22.081,20.091L23.024,15.831C23.126,15.371 23.536,15.044 24.008,15.048L26.18,15.064C26.732,15.068 27.177,15.52 27.172,16.072C27.168,16.624 26.717,17.068 26.165,17.064L24.802,17.054L23.092,24.778C22.991,25.233 22.589,25.558 22.123,25.561C21.657,25.565 21.25,25.246 21.142,24.793L18.052,11.786L16.977,16.262C16.878,16.674 16.53,16.979 16.108,17.023C15.686,17.067 15.283,16.839 15.101,16.456L14.542,15.277L13.101,24.772C13.028,25.255 12.616,25.615 12.127,25.622C11.639,25.629 11.216,25.282 11.129,24.802L8.864,12.388L7.963,16.249C7.857,16.704 7.45,17.025 6.982,17.022L5.023,17.007Z"/>
    </g>
</svg>
