<?xml version="1.0" encoding="UTF-8" standalone="no"?>
<!DOCTYPE svg PUBLIC "-//W3C//DTD SVG 1.1//EN" "http://www.w3.org/Graphics/SVG/1.1/DTD/svg11.dtd">
<svg width="100%" height="100%" viewBox="0 0 32 32" version="1.1" xmlns="http://www.w3.org/2000/svg" xmlns:xlink="http://www.w3.org/1999/xlink" xml:space="preserve" xmlns:serif="http://www.serif.com/" style="fill-rule:evenodd;clip-rule:evenodd;stroke-linejoin:round;stroke-miterlimit:2;">
    <g transform="matrix(0.851339,0,0,0.851339,-2.58789,-5.58945)">
        <path d="M17.583,27.35C18.039,27.35 18.465,27.22 18.825,26.993C19.374,26.649 20.099,26.814 20.444,27.363C20.789,27.912 20.624,28.638 20.075,28.983C19.352,29.436 18.498,29.699 17.583,29.699C14.994,29.699 12.892,27.597 12.892,25.009C12.892,22.42 14.994,20.318 17.583,20.318C17.817,20.318 18.048,20.335 18.273,20.368C18.915,20.463 19.358,21.061 19.263,21.702C19.168,22.344 18.571,22.787 17.929,22.692C17.816,22.676 17.7,22.667 17.583,22.667C16.29,22.667 15.241,23.716 15.241,25.009C15.241,26.301 16.29,27.35 17.583,27.35ZM21.261,29.752C21.773,29.354 22.511,29.446 22.909,29.958C23.307,30.47 23.214,31.209 22.702,31.607C21.288,32.706 19.511,33.361 17.583,33.361C12.973,33.361 9.231,29.618 9.231,25.009C9.231,20.399 12.973,16.656 17.583,16.656C18.025,16.656 18.459,16.691 18.882,16.757C19.522,16.857 19.961,17.459 19.861,18.099C19.76,18.74 19.159,19.178 18.518,19.078C18.214,19.03 17.901,19.006 17.583,19.006C14.27,19.006 11.58,21.695 11.58,25.009C11.58,28.322 14.27,31.011 17.583,31.011C18.968,31.011 20.244,30.541 21.261,29.752Z"/>
    </g>
    <g transform="matrix(1,0,0,1,2.76074,0.151286)">
        <path d="M9.762,16.615C9.21,16.615 8.762,16.167 8.762,15.615C8.762,15.063 9.21,14.615 9.762,14.615L10.948,14.615L12.74,7.287C12.852,6.83 13.267,6.512 13.737,6.525C14.208,6.537 14.606,6.875 14.694,7.337L16.881,18.838L18.286,11.501C18.369,11.065 18.73,10.737 19.171,10.694C19.612,10.651 20.029,10.903 20.195,11.315L21.474,14.482L22.969,14.482C23.521,14.482 23.969,14.931 23.969,15.482C23.969,16.034 23.521,16.482 22.969,16.482L20.799,16.482C20.391,16.482 20.024,16.235 19.871,15.857L19.611,15.212L17.859,24.361C17.769,24.833 17.357,25.174 16.877,25.173C16.397,25.173 15.985,24.832 15.895,24.36L13.589,12.234L12.704,15.853C12.594,16.3 12.193,16.615 11.732,16.615L9.762,16.615Z"/>
    </g>
</svg>
