<?xml version="1.0" encoding="UTF-8" standalone="no"?>
<!DOCTYPE svg PUBLIC "-//W3C//DTD SVG 1.1//EN" "http://www.w3.org/Graphics/SVG/1.1/DTD/svg11.dtd">
<svg width="100%" height="100%" viewBox="0 0 32 32" version="1.1" xmlns="http://www.w3.org/2000/svg" xmlns:xlink="http://www.w3.org/1999/xlink" xml:space="preserve" xmlns:serif="http://www.serif.com/" style="fill-rule:evenodd;clip-rule:evenodd;stroke-linejoin:round;stroke-miterlimit:2;">
    <g transform="matrix(1,0,0,1,1.31252,-1.373)">
        <path d="M8.992,9.933C10.844,9.933 12.147,11.39 12.147,13.312C12.147,15.303 10.844,16.691 8.992,16.691C7.209,16.691 5.869,15.304 5.869,13.312C5.869,11.39 7.209,9.933 8.992,9.933ZM8.992,14.861C9.906,14.861 10.317,14.065 10.317,13.312C10.317,12.587 9.907,11.766 8.992,11.763C8.11,11.795 7.699,12.614 7.699,13.312C7.699,14.064 8.106,14.861 8.992,14.861Z"/>
    </g>
    <g transform="matrix(1,0,0,1,-0.0135159,-1.2)">
        <path d="M23.936,9.76L16.192,9.76C15.616,9.76 15.2,10.144 15.2,10.72L15.2,23.68C15.2,24.256 15.552,24.64 16.16,24.64C16.768,24.64 17.12,24.224 17.12,23.68L17.12,18.208L21.728,18.208C22.272,18.208 22.624,17.888 22.624,17.376C22.624,16.832 22.272,16.512 21.728,16.512L17.12,16.512L17.12,11.488L23.936,11.488C24.48,11.488 24.832,11.136 24.832,10.624C24.832,10.112 24.48,9.76 23.936,9.76Z" style="fill-rule:nonzero;"/>
    </g>
</svg>
