<?xml version="1.0" encoding="UTF-8" standalone="no"?>
<!DOCTYPE svg PUBLIC "-//W3C//DTD SVG 1.1//EN" "http://www.w3.org/Graphics/SVG/1.1/DTD/svg11.dtd">
<svg width="100%" height="100%" viewBox="0 0 32 32" version="1.1" xmlns="http://www.w3.org/2000/svg" xmlns:xlink="http://www.w3.org/1999/xlink" xml:space="preserve" xmlns:serif="http://www.serif.com/" style="fill-rule:evenodd;clip-rule:evenodd;stroke-linejoin:round;stroke-miterlimit:2;">
    <g transform="matrix(1,0,0,1,-0.168081,0)">
        <path d="M11.341,21.208C10.928,20.879 10.562,20.569 10.251,20.249C9.416,19.39 8.92,18.46 8.87,17.071C8.783,14.618 10.215,12.922 11.295,11.39C12.214,10.085 13.521,9.056 14.2,7.067L14.402,6.722L14.659,6.517L14.993,6.402L15.26,6.395L15.524,6.459C15.782,6.553 17.045,7.225 17.539,8.266C18.056,9.355 18.165,11.185 18.259,11.875L18.31,12.237C18.417,12.064 18.527,11.881 18.631,11.697C19.009,11.028 19.008,10.608 19.043,10.516L19.275,10.15L19.598,9.928L19.854,9.856L20.112,9.852L20.466,9.961L20.711,10.137C20.78,10.204 20.96,10.55 21.493,11.248C22.819,12.983 23.536,14.817 23.465,17.309C23.426,18.688 22.696,20.087 21.384,21.208L17.17,21.201C17.54,21.132 17.789,20.964 17.963,20.899C20.052,20.122 21.423,18.745 21.466,17.252C21.516,15.501 21.071,14.161 20.235,12.922C19.706,13.841 19.297,14.443 18.991,14.735L18.724,14.951L18.485,15.081L18.231,15.161L17.927,15.185L17.609,15.128L17.33,14.999L17.081,14.796L16.849,14.485C16.639,14.122 16.443,13.355 16.278,12.145C16.199,11.569 16.164,10.032 15.733,9.124C15.695,9.045 15.644,8.97 15.585,8.9C14.81,10.389 13.749,11.378 12.93,12.541C12.072,13.76 10.799,15.05 10.869,17C10.905,18.004 11.361,18.594 12.057,19.207C12.658,19.737 13.414,20.27 14.274,20.967C14.361,21.037 14.598,21.188 14.951,21.208L11.341,21.208Z"/>
    </g>
    <g transform="matrix(1.1707,0,0,0.8576,-2.2273,2.8703)">
        <path d="M14.535,21.383L23.182,21.383C23.619,21.383 23.947,21.868 23.947,22.427C23.947,22.987 23.592,23.472 23.155,23.472L7.957,23.472C7.52,23.472 7.192,22.987 7.192,22.427C7.192,21.868 7.547,21.383 7.957,21.383L14.53,21.383C14.228,21.36 14.026,21.184 13.952,21.102C13.455,20.553 13,20.091 12.598,19.658C12.708,18.688 12.992,17.786 13.883,16.397C14.24,15.839 14.506,15.476 14.721,15.267L15.158,14.959L15.536,14.875L15.912,14.951L16.338,15.239C16.534,15.425 16.767,15.735 17.081,16.166C18.19,17.692 18.444,18.633 18.498,19.501C18.51,19.695 18.514,19.878 18.51,20.051C18.103,20.426 17.63,20.755 17.103,21.022C16.955,21.098 16.743,21.293 16.43,21.374C16.605,20.949 16.845,20.49 16.796,19.699C16.764,19.187 16.523,18.709 15.868,17.809C15.764,17.666 15.644,17.51 15.548,17.387C15.44,17.532 15.299,17.73 15.169,17.933C14.535,18.921 14.326,19.494 14.269,20.197C14.227,20.715 14.338,20.93 14.535,21.383ZM21.351,24.48C21.788,24.48 22.116,24.965 22.116,25.524C22.116,26.084 21.788,26.569 21.378,26.569L9.706,26.569C9.269,26.569 8.941,26.084 8.941,25.524C8.941,24.965 9.296,24.48 9.706,24.48L21.351,24.48Z"/>
    </g>
</svg>
