<?xml version="1.0" encoding="UTF-8" standalone="no"?>
<!DOCTYPE svg PUBLIC "-//W3C//DTD SVG 1.1//EN" "http://www.w3.org/Graphics/SVG/1.1/DTD/svg11.dtd">
<svg width="100%" height="100%" viewBox="0 0 32 32" version="1.1" xmlns="http://www.w3.org/2000/svg" xmlns:xlink="http://www.w3.org/1999/xlink" xml:space="preserve" xmlns:serif="http://www.serif.com/" style="fill-rule:evenodd;clip-rule:evenodd;stroke-linejoin:round;stroke-miterlimit:2;">
    <g transform="matrix(1,0,0,1,-0.168081,0)">
        <path d="M11.341,21.208C10.928,20.879 10.562,20.569 10.251,20.249C9.416,19.39 8.92,18.46 8.87,17.071C8.783,14.618 10.215,12.922 11.295,11.39C12.214,10.085 13.521,9.056 14.2,7.067L14.402,6.722L14.659,6.517L14.993,6.402L15.26,6.395L15.524,6.459C15.782,6.553 17.045,7.225 17.539,8.266C18.056,9.355 18.165,11.185 18.259,11.875L18.31,12.237C18.417,12.064 18.527,11.881 18.631,11.697C19.009,11.028 19.008,10.608 19.043,10.516L19.275,10.15L19.598,9.928L19.854,9.856L20.112,9.852L20.466,9.961L20.711,10.137C20.78,10.204 20.96,10.55 21.493,11.248C22.819,12.983 23.536,14.817 23.465,17.309C23.426,18.688 22.696,20.087 21.384,21.208L17.171,21.208C17.376,20.841 17.662,20.447 17.604,19.764C17.566,19.325 17.284,18.915 16.518,18.143C16.396,18.021 16.256,17.887 16.143,17.781C16.016,17.906 15.851,18.076 15.699,18.249C14.957,19.097 14.712,19.588 14.645,20.191C14.596,20.635 14.727,20.82 14.957,21.208L11.341,21.208ZM19.61,20.066C20.746,19.298 21.436,18.304 21.466,17.252C21.516,15.501 21.071,14.161 20.235,12.922C19.706,13.841 19.297,14.443 18.991,14.735L18.724,14.951L18.485,15.081L18.231,15.161L17.927,15.185L17.609,15.128L17.33,14.999L17.081,14.796L16.849,14.485C16.639,14.122 16.443,13.355 16.278,12.145C16.199,11.569 16.164,10.032 15.733,9.124C15.695,9.045 15.644,8.97 15.585,8.9C14.81,10.389 13.749,11.378 12.93,12.541C12.072,13.76 10.799,15.05 10.869,17C10.905,18.004 11.361,18.594 12.057,19.207C12.252,19.379 12.463,19.551 12.689,19.729C12.817,18.897 13.15,18.124 14.194,16.932C14.612,16.454 14.923,16.143 15.174,15.963L15.686,15.699L16.128,15.627L16.569,15.692L17.067,15.94C17.297,16.098 17.57,16.365 17.937,16.734C19.236,18.043 19.533,18.85 19.596,19.594C19.61,19.761 19.615,19.918 19.61,20.066Z"/>
    </g>
    <g transform="matrix(1,0,0,1,-0.016,1.72)">
        <path d="M7.104,19.488L24.928,19.488C25.44,19.488 25.824,19.904 25.824,20.384C25.824,20.864 25.408,21.28 24.896,21.28L7.104,21.28C6.592,21.28 6.208,20.864 6.208,20.384C6.208,19.904 6.624,19.488 7.104,19.488ZM22.784,22.144C23.296,22.144 23.68,22.56 23.68,23.04C23.68,23.52 23.296,23.936 22.816,23.936L9.152,23.936C8.64,23.936 8.256,23.52 8.256,23.04C8.256,22.56 8.672,22.144 9.152,22.144L22.784,22.144Z"/>
    </g>
</svg>
