<?xml version="1.0" encoding="UTF-8" standalone="no"?>
<!DOCTYPE svg PUBLIC "-//W3C//DTD SVG 1.1//EN" "http://www.w3.org/Graphics/SVG/1.1/DTD/svg11.dtd">
<svg width="100%" height="100%" viewBox="0 0 32 32" version="1.1" xmlns="http://www.w3.org/2000/svg" xmlns:xlink="http://www.w3.org/1999/xlink" xml:space="preserve" xmlns:serif="http://www.serif.com/" style="fill-rule:evenodd;clip-rule:evenodd;stroke-linecap:round;stroke-linejoin:round;stroke-miterlimit:1.5;">
    <g transform="matrix(1,0,0,1,1.49721,1.97085)">
        <path d="M16.059,19.057C17.39,19.057 17.88,19.614 18.238,20.233C18.312,20.36 18.377,20.493 18.444,20.625C18.493,20.723 18.527,20.834 18.621,20.905C18.713,20.975 18.852,20.982 19.056,20.982C19.608,20.982 20.056,21.43 20.056,21.982C20.056,22.534 19.608,22.982 19.056,22.982C17.692,22.982 17.18,22.424 16.817,21.818C16.738,21.686 16.669,21.548 16.6,21.41C16.547,21.304 16.526,21.176 16.412,21.11C16.33,21.063 16.216,21.057 16.059,21.057C15.901,21.057 15.783,21.066 15.697,21.115C15.566,21.19 15.531,21.333 15.466,21.454C15.393,21.592 15.32,21.731 15.237,21.864C14.855,22.479 14.328,23.031 12.997,23.031C11.647,23.031 11.13,22.461 10.763,21.829C10.684,21.693 10.615,21.551 10.546,21.409C10.489,21.292 10.467,21.153 10.346,21.08C10.272,21.036 10.169,21.032 10.03,21.032C9.878,21.032 9.765,21.04 9.682,21.087C9.555,21.16 9.52,21.299 9.457,21.416C9.385,21.551 9.314,21.687 9.233,21.816C8.853,22.429 8.335,22.972 7.037,22.972C6.485,22.972 6.037,22.524 6.037,21.972C6.037,21.42 6.485,20.972 7.037,20.972C7.198,20.972 7.317,20.962 7.405,20.913C7.534,20.841 7.57,20.704 7.632,20.587C7.704,20.454 7.774,20.32 7.853,20.192C8.231,19.575 8.743,19.032 10.03,19.032C11.341,19.032 11.835,19.6 12.197,20.248C12.27,20.378 12.334,20.514 12.401,20.65C12.454,20.758 12.491,20.877 12.591,20.956C12.676,21.024 12.807,21.031 12.997,21.031C13.197,21.031 13.334,21.019 13.426,20.949C13.533,20.867 13.578,20.744 13.638,20.632C13.71,20.497 13.781,20.361 13.859,20.232C14.239,19.608 14.752,19.057 16.059,19.057ZM12.88,18.532C12.328,18.532 11.88,18.084 11.88,17.532C11.88,16.98 12.328,16.532 12.88,16.532C13.041,16.532 13.16,16.522 13.248,16.472C13.377,16.4 13.413,16.263 13.475,16.147C13.547,16.013 13.617,15.879 13.696,15.751C14.074,15.134 14.586,14.591 15.872,14.591C17.184,14.591 17.678,15.159 18.04,15.807C18.113,15.937 18.177,16.074 18.244,16.209C18.297,16.317 18.334,16.437 18.433,16.516C18.519,16.583 18.65,16.59 18.84,16.59C19.04,16.59 19.177,16.579 19.269,16.509C19.376,16.427 19.421,16.303 19.481,16.191C19.553,16.056 19.624,15.921 19.702,15.791C20.082,15.167 20.595,14.616 21.902,14.616C22.454,14.616 22.902,15.064 22.902,15.616C22.902,16.168 22.454,16.616 21.902,16.616C21.743,16.616 21.626,16.625 21.54,16.674C21.409,16.75 21.373,16.892 21.309,17.013C21.236,17.151 21.163,17.29 21.08,17.423C20.698,18.039 20.171,18.59 18.84,18.59C17.49,18.59 16.973,18.021 16.606,17.388C16.527,17.252 16.458,17.11 16.389,16.969C16.332,16.852 16.309,16.712 16.189,16.64C16.115,16.595 16.012,16.591 15.872,16.591C15.721,16.591 15.608,16.599 15.525,16.646C15.398,16.719 15.363,16.858 15.3,16.975C15.228,17.11 15.157,17.246 15.076,17.376C14.696,17.988 14.178,18.532 12.88,18.532Z"/>
    </g>
    <g transform="matrix(0.861973,0,0,1.00138,2.4588,-9.0304)">
        <path d="M6.951,29.402L6.947,22.004L15.759,17.006L24.473,21.996L24.47,23.739" style="fill:none;stroke:black;stroke-width:2.14px;"/>
    </g>
</svg>
