<?xml version="1.0" encoding="UTF-8" standalone="no"?>
<!DOCTYPE svg PUBLIC "-//W3C//DTD SVG 1.1//EN" "http://www.w3.org/Graphics/SVG/1.1/DTD/svg11.dtd">
<svg width="100%" height="100%" viewBox="0 0 32 32" version="1.1" xmlns="http://www.w3.org/2000/svg" xmlns:xlink="http://www.w3.org/1999/xlink" xml:space="preserve" xmlns:serif="http://www.serif.com/" style="fill-rule:evenodd;clip-rule:evenodd;stroke-linejoin:round;stroke-miterlimit:2;">
    <g transform="matrix(1,0,0,1,-2.12035,-1.98283)">
        <g transform="matrix(1,0,0,1,14.7607,12.0819)">
            <path d="M8.992,9.933C10.844,9.933 12.147,11.39 12.147,13.312C12.147,15.303 10.844,16.691 8.992,16.691C7.209,16.691 5.869,15.304 5.869,13.312C5.869,11.39 7.209,9.933 8.992,9.933ZM8.992,14.861C9.906,14.861 10.317,14.065 10.317,13.312C10.317,12.587 9.907,11.766 8.992,11.763C8.11,11.795 7.699,12.614 7.699,13.312C7.699,14.064 8.106,14.861 8.992,14.861ZM1.881,14.818C1.49,15.208 0.857,15.208 0.466,14.818C0.076,14.427 0.076,13.794 0.466,13.403L9.06,4.81C9.45,4.42 10.084,4.42 10.474,4.81C10.864,5.2 10.864,5.834 10.474,6.224L1.881,14.818Z"/>
        </g>
        <g>
            <g transform="matrix(1,0,0,1,-0.16,-0.612)">
                <path d="M15.292,23.401C15.667,23.497 15.91,23.899 15.91,24.31C15.91,24.831 15.478,25.321 14.961,25.307L14.941,25.307L14.934,25.306C11.833,24.727 9.493,21.994 9.493,18.752C9.493,16.484 10.424,14.345 11.558,12.583C13.254,9.947 15.4,8.155 15.535,8.039C15.882,7.728 16.401,7.726 16.782,8.037C17.034,8.226 22.002,12.145 22.737,17.25C22.744,17.299 22.749,17.349 22.749,17.401C22.749,17.939 22.312,18.376 21.774,18.376C21.246,18.376 20.883,17.96 20.8,17.433C20.271,14.074 17.428,11.298 16.16,10.088C14.76,11.432 11.435,14.982 11.435,18.752C11.435,21.054 13.071,22.965 15.246,23.389L15.252,23.39L15.292,23.401L15.29,23.416C15.302,23.431 15.308,23.45 15.306,23.47C15.306,23.474 15.305,23.478 15.304,23.482C15.318,23.487 15.332,23.491 15.345,23.497C15.347,23.492 15.348,23.488 15.348,23.483C15.353,23.446 15.329,23.41 15.292,23.401Z"/>
            </g>
            <g transform="matrix(1,0,0,1,-0.175023,-0.470063)">
                <path d="M14.976,16.032C14.976,16.032 13.216,17.472 13.216,19.104C13.216,20.064 14.016,20.864 14.976,20.864C15.936,20.864 16.736,20.064 16.736,19.104C16.736,17.472 14.976,16.032 14.976,16.032Z" style="fill-rule:nonzero;"/>
            </g>
        </g>
    </g>
</svg>
