<?xml version="1.0" encoding="UTF-8" standalone="no"?>
<!DOCTYPE svg PUBLIC "-//W3C//DTD SVG 1.1//EN" "http://www.w3.org/Graphics/SVG/1.1/DTD/svg11.dtd">
<svg width="100%" height="100%" viewBox="0 0 32 32" version="1.1" xmlns="http://www.w3.org/2000/svg" xmlns:xlink="http://www.w3.org/1999/xlink" xml:space="preserve" xmlns:serif="http://www.serif.com/" style="fill-rule:evenodd;clip-rule:evenodd;stroke-linejoin:round;stroke-miterlimit:2;">
    <g transform="matrix(1.53519,0.217191,0.217191,0.992649,-12.6357,-1.0964)">
        <path d="M14.336,21.543C14.121,22.105 13.693,22.447 13.379,22.307C13.066,22.166 12.986,21.595 13.201,21.033L19.101,5.587C19.316,5.025 19.745,4.683 20.058,4.823C20.371,4.964 20.451,5.535 20.236,6.097L14.336,21.543Z"/>
    </g>
    <g transform="matrix(1,0,0,1,0.187325,1.96654)">
        <path d="M21.135,14.378C23.016,14.378 24.614,16.063 24.614,18.218C24.614,20.373 23.016,22.059 21.135,22.059C19.255,22.059 17.657,20.373 17.657,18.218C17.657,16.063 19.255,14.378 21.135,14.378ZM21.135,16.378C20.279,16.378 19.657,17.236 19.657,18.218C19.657,19.2 20.279,20.059 21.135,20.059C21.992,20.059 22.614,19.2 22.614,18.218C22.614,17.236 21.992,16.378 21.135,16.378ZM10.49,6.008C12.37,6.008 13.969,7.694 13.969,9.849C13.969,12.004 12.37,13.689 10.49,13.689C8.609,13.689 7.011,12.004 7.011,9.849C7.011,7.694 8.609,6.008 10.49,6.008ZM10.49,8.008C9.633,8.008 9.011,8.867 9.011,9.849C9.011,10.83 9.633,11.689 10.49,11.689C11.347,11.689 11.969,10.83 11.969,9.849C11.969,8.867 11.347,8.008 10.49,8.008Z"/>
    </g>
</svg>
