<?xml version="1.0" encoding="UTF-8" standalone="no"?>
<!DOCTYPE svg PUBLIC "-//W3C//DTD SVG 1.1//EN" "http://www.w3.org/Graphics/SVG/1.1/DTD/svg11.dtd">
<svg width="100%" height="100%" viewBox="0 0 32 32" version="1.1" xmlns="http://www.w3.org/2000/svg" xmlns:xlink="http://www.w3.org/1999/xlink" xml:space="preserve" xmlns:serif="http://www.serif.com/" style="fill-rule:evenodd;clip-rule:evenodd;stroke-linejoin:round;stroke-miterlimit:2;">
    <g transform="matrix(0.336478,0,0,0.336478,10.916,10.7533)">
        <path d="M15.11,3.7C21.772,3.7 27.182,9.109 27.182,15.772C27.182,22.435 21.772,27.844 15.11,27.844C8.447,27.844 3.038,22.435 3.038,15.772C3.038,9.109 8.447,3.7 15.11,3.7ZM15.11,9.644C11.727,9.644 8.982,12.39 8.982,15.772C8.982,19.154 11.727,21.9 15.11,21.9C18.492,21.9 21.238,19.154 21.238,15.772C21.238,12.39 18.492,9.644 15.11,9.644Z"/>
    </g>
    <g transform="matrix(0.771751,5.55112e-17,-5.55112e-17,0.771751,4.33917,3.88805)">
        <path d="M12.134,25.735C7.844,24.453 4.714,20.476 4.714,15.772C4.714,12.582 6.154,9.725 8.419,7.818L16.017,0.219C16.388,-0.151 16.945,-0.262 17.429,-0.061C17.913,0.139 18.229,0.612 18.229,1.136L18.229,5.854C22.444,7.18 25.505,11.121 25.505,15.772C25.505,18.998 24.033,21.883 21.724,23.79L14.345,31.169C13.975,31.539 13.418,31.65 12.933,31.45C12.449,31.249 12.133,30.777 12.133,30.253L12.134,25.735ZM14.725,24.717L14.725,27.124L19.936,21.913C19.967,21.882 20,21.853 20.034,21.825C21.791,20.393 22.914,18.213 22.914,15.772C22.914,12.001 20.233,8.85 16.675,8.125C16.071,8.002 15.638,7.471 15.638,6.855L15.638,4.264L10.211,9.691C10.183,9.718 10.154,9.745 10.124,9.77C8.402,11.203 7.305,13.36 7.305,15.772C7.305,19.587 10.048,22.767 13.667,23.443C14.281,23.558 14.725,24.093 14.725,24.717Z"/>
    </g>
</svg>
