<?xml version="1.0" encoding="UTF-8" standalone="no"?>
<!DOCTYPE svg PUBLIC "-//W3C//DTD SVG 1.1//EN" "http://www.w3.org/Graphics/SVG/1.1/DTD/svg11.dtd">
<svg width="100%" height="100%" viewBox="0 0 32 32" version="1.1" xmlns="http://www.w3.org/2000/svg" xmlns:xlink="http://www.w3.org/1999/xlink" xml:space="preserve" xmlns:serif="http://www.serif.com/" style="fill-rule:evenodd;clip-rule:evenodd;stroke-linejoin:round;stroke-miterlimit:2;">
    <g transform="matrix(-1,-1.22465e-16,1.22465e-16,-1,32.019,32.4905)">
        <path d="M15.019,13.318C15.019,12.766 15.467,12.318 16.019,12.318C16.571,12.318 17.019,12.766 17.019,13.318L17.019,17.211C17.019,17.763 16.571,18.211 16.019,18.211C15.467,18.211 15.019,17.763 15.019,17.211L15.019,13.318ZM16.019,18.7C16.561,18.7 17.001,19.14 17.001,19.681C17.001,20.223 16.561,20.663 16.019,20.663C15.478,20.663 15.038,20.223 15.038,19.681C15.038,19.14 15.478,18.7 16.019,18.7Z"/>
    </g>
    <g transform="matrix(1.09382,0,0,1.09382,-1.41776,-2.78113)">
        <path d="M15.924,8.947C20.462,8.947 24.147,12.632 24.147,17.17C24.147,21.709 20.462,25.393 15.924,25.393C11.385,25.393 7.701,21.709 7.701,17.17C7.701,12.632 11.385,8.947 15.924,8.947ZM15.924,10.776C12.394,10.776 9.529,13.641 9.529,17.17C9.529,20.7 12.394,23.565 15.924,23.565C19.453,23.565 22.319,20.7 22.319,17.17C22.319,13.641 19.453,10.776 15.924,10.776Z"/>
    </g>
</svg>
