<?xml version="1.0" encoding="UTF-8" standalone="no"?><svg viewBox="0 0 32 32" xmlns="http://www.w3.org/2000/svg" xmlns:xlink="http://www.w3.org/1999/xlink" xml:space="preserve" fill-rule="evenodd" clip-rule="evenodd" stroke-linejoin="round" stroke-miterlimit="2" fill="currentColor"><g transform="translate(-.032 -2.08)"><path d="M23.744 15.648c1.056.736 1.728 1.952 1.728 3.264-.032 2.08-1.824 3.84-4 3.84a.894.894 0 0 1-.896-.896c0-.48.416-.896.896-.896 1.184 0 2.144-.96 2.144-2.144 0-.832-.48-1.6-1.248-1.952-.384-.16-.576-.576-.512-.96.032-.256.064-.48.064-.704a4.14 4.14 0 0 0-4.128-4.128 4.16 4.16 0 0 0-3.232 1.568c.192.096.352.224.512.32a.92.92 0 0 1 .256 1.248.92.92 0 0 1-1.248.256 5.4 5.4 0 0 0-1.216-.64 3.65 3.65 0 0 0-4.032 1.792 3.8 3.8 0 0 0-.416 1.696c0 .064-.032.096-.032.16a3.65 3.65 0 0 0 3.648 3.552c.512 0 .896.416.896.896s-.416.896-.896.896a5.435 5.435 0 0 1-5.44-5.44v-.096a5.435 5.435 0 0 1 5.44-5.44c.288 0 .576.032.832.096a5.9 5.9 0 0 1 4.928-2.624c3.264 0 5.952 2.656 5.952 5.952zm-5.888 5.472c.32 0 .64.192.8.48s.16.64-.032.928l-2.496 3.936c-.192.224-.48.384-.768.384a.9.9 0 0 1-.48-.128c-.416-.256-.544-.832-.288-1.248l1.632-2.56h-.864a.94.94 0 0 1-.8-.48c-.16-.288-.128-.64.064-.928l2.496-3.584a.883.883 0 0 1 1.248-.224.883.883 0 0 1 .224 1.248l-1.504 2.176z"/></g></svg>