<?xml version="1.0" encoding="UTF-8" standalone="no"?>
<!DOCTYPE svg PUBLIC "-//W3C//DTD SVG 1.1//EN" "http://www.w3.org/Graphics/SVG/1.1/DTD/svg11.dtd">
<svg width="100%" height="100%" viewBox="0 0 32 32" version="1.1" xmlns="http://www.w3.org/2000/svg" xmlns:xlink="http://www.w3.org/1999/xlink" xml:space="preserve" xmlns:serif="http://www.serif.com/" style="fill-rule:evenodd;clip-rule:evenodd;stroke-linejoin:round;stroke-miterlimit:2;">
    <g transform="matrix(1,0,0,1,-1.6,-2.248)">
        <path d="M20.864,15.84C20.64,15.84 20.384,15.744 20.224,15.584C19.872,15.232 19.872,14.656 20.224,14.304L20.512,14.016C20.352,13.856 20.224,13.632 20.224,13.376C20.224,12.864 20.608,12.48 21.12,12.48L22.432,12.48C22.912,12.48 23.36,12.864 23.392,13.376L23.392,14.688C23.392,15.168 22.976,15.584 22.464,15.584C22.208,15.584 21.952,15.488 21.792,15.296L21.504,15.584C21.312,15.744 21.088,15.84 20.864,15.84Z"/>
    </g>
    <g transform="matrix(1,0,0,1,-0.016,-1.28)">
        <path d="M22.098,19.488L24.928,19.488C25.44,19.488 25.824,19.904 25.824,20.384C25.824,20.864 25.408,21.28 24.896,21.28L7.104,21.28C6.592,21.28 6.208,20.864 6.208,20.384C6.208,19.904 6.624,19.488 7.104,19.488L9.956,19.488C9.683,18.771 9.533,17.993 9.533,17.18C9.533,14.268 11.485,11.708 14.301,10.908C14.557,10.844 14.845,10.908 15.037,11.068C15.261,11.228 15.357,11.516 15.325,11.772C15.325,11.9 15.293,12.028 15.293,12.188C15.293,14.876 17.469,17.052 20.157,17.052C20.573,17.052 21.021,16.988 21.469,16.86C21.725,16.796 22.013,16.86 22.205,17.02C22.429,17.18 22.525,17.468 22.493,17.724C22.446,18.34 22.309,18.932 22.098,19.488ZM11.757,19.488L20.272,19.488C20.419,19.223 20.541,18.944 20.637,18.652C17.117,18.94 14.077,16.316 13.693,12.924C12.157,13.756 11.165,15.388 11.165,17.18C11.165,18.014 11.38,18.801 11.757,19.488ZM22.784,22.144C23.296,22.144 23.68,22.56 23.68,23.04C23.68,23.52 23.296,23.936 22.816,23.936L9.152,23.936C8.64,23.936 8.256,23.52 8.256,23.04C8.256,22.56 8.672,22.144 9.152,22.144L22.784,22.144Z"/>
    </g>
</svg>
