<?xml version="1.0" encoding="UTF-8" standalone="no"?>
<!DOCTYPE svg PUBLIC "-//W3C//DTD SVG 1.1//EN" "http://www.w3.org/Graphics/SVG/1.1/DTD/svg11.dtd">
<svg width="100%" height="100%" viewBox="0 0 32 32" version="1.1" xmlns="http://www.w3.org/2000/svg" xmlns:xlink="http://www.w3.org/1999/xlink" xml:space="preserve" xmlns:serif="http://www.serif.com/" style="fill-rule:evenodd;clip-rule:evenodd;stroke-linejoin:round;stroke-miterlimit:2;">
    <g transform="matrix(1,0,0,1,-0.032,-1.264)">
        <path d="M16.32,25.792C16.32,26.287 15.919,26.688 15.424,26.688C14.929,26.688 14.528,26.287 14.528,25.792C14.528,25.297 14.929,24.896 15.424,24.896C15.919,24.896 16.32,25.297 16.32,25.792ZM19.616,24.416C19.616,24.911 19.215,25.312 18.72,25.312C18.225,25.312 17.824,24.911 17.824,24.416C17.824,23.921 18.225,23.52 18.72,23.52C19.215,23.52 19.616,23.921 19.616,24.416ZM15.424,18.848C15.904,18.848 16.32,19.264 16.32,19.744L16.32,23.008C16.32,23.52 15.936,23.936 15.424,23.936C14.912,23.936 14.528,23.52 14.528,23.04L14.528,19.744C14.528,19.232 14.944,18.848 15.424,18.848ZM18.72,17.216C19.2,17.216 19.616,17.632 19.616,18.112L19.616,21.376C19.616,21.888 19.2,22.272 18.72,22.272C18.208,22.272 17.824,21.856 17.824,21.376L17.824,18.112C17.824,17.6 18.24,17.216 18.72,17.216Z"/>
    </g>
    <g transform="matrix(1,0,0,1,-0.032,-1.264)">
        <path d="M8.688,16.45C8.514,16.876 8.416,17.343 8.416,17.824C8.416,17.888 8.384,17.92 8.384,17.984C8.448,19.936 10.048,21.504 12.032,21.504C12.544,21.504 12.928,21.92 12.928,22.4C12.928,22.88 12.512,23.296 12.032,23.296C9.024,23.296 6.592,20.864 6.592,17.856L6.592,17.792C6.592,16.543 7.011,15.393 7.717,14.476C7.696,14.401 7.677,14.325 7.658,14.248C7.583,13.883 7.536,13.498 7.536,13.113C7.536,10.681 9.168,8.505 11.536,7.865C11.824,7.801 12.112,7.865 12.336,8.025C12.56,8.185 12.688,8.505 12.656,8.793C12.656,8.889 12.624,8.985 12.624,9.113C12.624,10.041 12.976,10.905 13.552,11.545L13.556,11.541C13.561,11.547 13.567,11.554 13.573,11.561C14.664,10.438 16.165,9.792 17.792,9.792C21.056,9.792 23.744,12.448 23.744,15.744L23.744,16.128C24.8,16.864 25.472,18.08 25.472,19.392C25.44,21.472 23.648,23.232 21.472,23.232C20.96,23.232 20.576,22.816 20.576,22.336C20.576,21.856 20.992,21.44 21.472,21.44C22.656,21.44 23.616,20.48 23.616,19.296C23.616,18.464 23.136,17.696 22.368,17.344C21.984,17.184 21.792,16.768 21.856,16.384C21.888,16.128 21.92,15.904 21.92,15.68C21.92,13.408 20.064,11.552 17.792,11.552C16.76,11.552 15.807,11.909 15.073,12.544C15.452,12.699 15.862,12.761 16.272,12.761C16.592,12.761 16.912,12.729 17.264,12.633C17.552,12.569 17.84,12.633 18.064,12.793C18.288,12.985 18.416,13.273 18.384,13.561C18.192,16.345 15.792,18.553 12.976,18.553C11.235,18.553 9.682,17.738 8.688,16.45ZM10.928,10.073C9.936,10.745 9.328,11.865 9.328,13.081C9.328,15.097 10.96,16.729 12.976,16.729C14.448,16.729 15.76,15.833 16.336,14.521C13.648,14.553 11.408,12.633 10.928,10.073Z"/>
    </g>
</svg>
