<?xml version="1.0" encoding="UTF-8" standalone="no"?><svg viewBox="0 0 32 32" xmlns="http://www.w3.org/2000/svg" xmlns:xlink="http://www.w3.org/1999/xlink" xml:space="preserve" fill-rule="evenodd" clip-rule="evenodd" stroke-linejoin="round" stroke-miterlimit="2" fill="currentColor"><g transform="translate(.208 -.26)"><path d="M23.52 14.688c1.056.736 1.728 1.952 1.728 3.232-.064 2.176-1.824 3.936-4 3.936a.894.894 0 0 1-.896-.896c0-.512.416-.896.896-.896 1.184 0 2.144-.96 2.144-2.144 0-.832-.48-1.6-1.248-1.952-.384-.16-.576-.576-.512-.96.032-.256.064-.48.064-.704a4.14 4.14 0 0 0-4.128-4.128 4.1 4.1 0 0 0-2.752 1.056c.384.16.8.224 1.216.224.32 0 .64-.032.992-.128a1 1 0 0 1 .8.16c.224.192.352.48.32.768-.192 2.784-2.592 4.992-5.408 4.992a5.4 5.4 0 0 1-4.32-2.144c-.16.416-.256.864-.256 1.312 0 .064-.032.096-.032.16.096 1.92 1.696 3.456 3.616 3.456.512 0 .896.416.896.896a.86.86 0 0 1-.864.928 5.435 5.435 0 0 1-5.44-5.44c0-1.184.384-2.336 1.12-3.296a6 6 0 0 1-.16-1.312c0-2.432 1.632-4.576 4-5.248a1 1 0 0 1 .8.16c.224.192.352.48.32.768 0 .096-.032.192-.032.32 0 .928.352 1.792.928 2.432a5.81 5.81 0 0 1 4.256-1.856c3.264 0 5.952 2.656 5.952 5.952zm-7.488-1.472c-2.656.032-4.864-1.92-5.344-4.448a3.63 3.63 0 0 0-1.6 3.008 3.646 3.646 0 0 0 3.648 3.648c1.472 0 2.784-.896 3.296-2.208m1.632 7.04c.32 0 .64.192.8.48s.16.64-.032.928L15.936 25.6c-.192.224-.48.384-.768.384a.9.9 0 0 1-.48-.128c-.416-.256-.544-.832-.288-1.248l1.632-2.56h-.864a.94.94 0 0 1-.8-.48c-.16-.288-.128-.64.064-.928l2.496-3.584a.883.883 0 0 1 1.248-.224.883.883 0 0 1 .224 1.248l-1.504 2.176z"/></g></svg>