<?xml version="1.0" encoding="UTF-8" standalone="no"?><svg viewBox="0 0 32 32" xmlns="http://www.w3.org/2000/svg" xmlns:xlink="http://www.w3.org/1999/xlink" xml:space="preserve" fill-rule="evenodd" clip-rule="evenodd" stroke-linejoin="round" stroke-miterlimit="2" fill="currentColor"><g transform="translate(.928 -.02)"><path d="M24.16 18.592c.512 0 .896.416.896.896s-.416.896-.896.896h-3.104c-1.312 1.568-3.264 2.592-5.44 2.592a7.07 7.07 0 0 1-6.848-5.344H5.984a.894.894 0 0 1-.896-.896c0-.48.416-.896.896-.896h2.56c0-.416.064-.832.128-1.216H8.32a.894.894 0 0 1-.896-.896c0-.512.416-.896.896-.896h.928a7.27 7.27 0 0 1 4.48-3.744 1 1 0 0 1 .8.16c.224.192.352.48.32.768 0 .16-.032.288-.032.448 0 .864.224 1.664.576 2.368H20c.512 0 .896.416.896.896.032.48-.384.896-.864.896h-3.168a5.2 5.2 0 0 0 3.232 1.12c.48 0 .928-.064 1.408-.192a1 1 0 0 1 .8.16c.224.192.352.48.32.768-.064.736-.256 1.44-.512 2.112zm-11.104-7.296a5.4 5.4 0 0 0-1.76 1.536h2.112a7.7 7.7 0 0 1-.352-1.536m2.528 9.888c.992 0 1.952-.288 2.784-.8h-3.872a.894.894 0 0 1-.896-.896c0-.512.416-.896.896-.896h5.632q.288-.48.48-1.056a7 7 0 0 1-6.24-2.912h-3.904c-.096.384-.16.8-.16 1.216h4.192c.512 0 .896.416.896.896s-.416.896-.896.896h-3.904c.736 2.08 2.688 3.552 4.992 3.552"/></g></svg>