<?xml version="1.0" encoding="UTF-8" standalone="no"?>
<!DOCTYPE svg PUBLIC "-//W3C//DTD SVG 1.1//EN" "http://www.w3.org/Graphics/SVG/1.1/DTD/svg11.dtd">
<svg width="100%" height="100%" viewBox="0 0 32 32" version="1.1" xmlns="http://www.w3.org/2000/svg" xmlns:xlink="http://www.w3.org/1999/xlink" xml:space="preserve" xmlns:serif="http://www.serif.com/" style="fill-rule:evenodd;clip-rule:evenodd;stroke-linejoin:round;stroke-miterlimit:2;">
    <g transform="matrix(1,0,0,1,-1.104,-0.803737)">
        <path d="M18.432,18.272C18.08,17.984 17.6,17.984 17.28,18.272C17.024,18.464 14.848,20.352 14.848,22.656C14.848,24.32 16.192,25.664 17.856,25.664C19.52,25.664 20.864,24.32 20.864,22.656C20.864,20.352 18.688,18.464 18.432,18.272ZM17.856,23.872C17.184,23.872 16.64,23.328 16.64,22.656C16.64,21.76 17.312,20.832 17.856,20.192C18.432,20.832 19.072,21.76 19.072,22.656C19.072,23.328 18.528,23.872 17.856,23.872Z" style="fill-rule:nonzero;"/>
    </g>
    <g transform="matrix(1,0,0,1,-0.096,-0.0357375)">
        <path d="M23.808,15.328L23.808,14.976C23.808,11.68 21.12,9.024 17.856,9.024C16.256,9.024 14.72,9.696 13.6,10.848C13.024,10.208 12.704,9.376 12.704,8.448C12.704,8.32 12.736,8.224 12.736,8.128C12.768,7.84 12.64,7.552 12.416,7.36C12.192,7.2 11.904,7.136 11.616,7.2C9.248,7.872 7.616,10.016 7.616,12.448C7.616,12.896 7.68,13.344 7.776,13.76C7.04,14.72 6.656,15.872 6.656,17.056C6.656,20.064 9.088,22.496 12.096,22.496C12.576,22.496 12.96,22.048 12.96,21.568C12.96,21.088 12.576,20.672 12.064,20.672C10.144,20.672 8.544,19.136 8.448,17.216C8.448,17.152 8.48,17.12 8.48,17.056C8.48,16.608 8.576,16.16 8.736,15.744C9.728,17.056 11.296,17.888 13.056,17.888C15.872,17.888 18.24,15.68 18.464,12.896C18.496,12.608 18.368,12.288 18.144,12.128C17.92,11.968 17.632,11.904 17.344,11.968C16.992,12.064 16.672,12.096 16.352,12.096C15.904,12.096 15.488,12 15.104,11.872C15.84,11.2 16.832,10.816 17.856,10.816C20.128,10.816 21.984,12.672 21.984,14.944C21.984,15.168 21.952,15.392 21.92,15.648C21.856,16.032 22.048,16.448 22.432,16.608C23.2,16.96 23.68,17.728 23.68,18.56C23.68,19.744 22.72,20.704 21.536,20.704C21.056,20.704 20.64,21.12 20.64,21.6C20.64,22.08 21.024,22.496 21.536,22.496C23.712,22.496 25.504,20.736 25.536,18.56C25.536,17.28 24.864,16.064 23.808,15.328ZM16.352,13.856C15.84,15.168 14.528,16.064 13.056,16.064C11.04,16.064 9.408,14.432 9.408,12.416C9.408,11.2 10.016,10.08 11.008,9.408C11.456,11.968 13.696,13.888 16.352,13.856Z" style="fill-rule:nonzero;"/>
    </g>
</svg>
