<?xml version="1.0" encoding="UTF-8" standalone="no"?>
<!DOCTYPE svg PUBLIC "-//W3C//DTD SVG 1.1//EN" "http://www.w3.org/Graphics/SVG/1.1/DTD/svg11.dtd">
<svg width="100%" height="100%" viewBox="0 0 32 32" version="1.1" xmlns="http://www.w3.org/2000/svg" xmlns:xlink="http://www.w3.org/1999/xlink" xml:space="preserve" xmlns:serif="http://www.serif.com/" style="fill-rule:evenodd;clip-rule:evenodd;stroke-linejoin:round;stroke-miterlimit:2;">
    <g transform="matrix(1,0,0,1,-0.672,0)">
        <path d="M18.329,10.514C20.722,11.211 22.472,13.421 22.472,16.037C22.472,19.21 19.882,21.722 16.709,21.722C13.535,21.722 10.972,19.21 10.972,16.037C10.972,12.88 13.521,10.314 16.672,10.287L16.672,10.272C17.248,10.272 17.805,10.357 18.329,10.514ZM17.568,21.632C20.288,21.184 22.4,18.816 22.4,16C22.4,13.152 20.32,10.816 17.568,10.368C18.592,11.68 19.232,13.696 19.232,16C19.232,18.304 18.592,20.32 17.568,21.632Z"/>
    </g>
    <g transform="matrix(1,0,0,1,-0.672,0)">
        <path d="M16.672,8.48C20.832,8.48 24.192,11.872 24.192,16C24.192,20.128 20.832,23.52 16.672,23.52C12.544,23.52 9.152,20.16 9.152,16C9.152,11.84 12.512,8.48 16.672,8.48ZM18.329,10.514C17.805,10.357 17.248,10.272 16.672,10.272L16.672,10.287C13.521,10.314 10.972,12.88 10.972,16.037C10.972,19.21 13.535,21.722 16.709,21.722C19.882,21.722 22.472,19.21 22.472,16.037C22.472,13.421 20.722,11.211 18.329,10.514Z"/>
    </g>
</svg>
