<?xml version="1.0" encoding="UTF-8" standalone="no"?>
<!DOCTYPE svg PUBLIC "-//W3C//DTD SVG 1.1//EN" "http://www.w3.org/Graphics/SVG/1.1/DTD/svg11.dtd">
<svg width="100%" height="100%" viewBox="0 0 32 32" version="1.1" xmlns="http://www.w3.org/2000/svg" xmlns:xlink="http://www.w3.org/1999/xlink" xml:space="preserve" xmlns:serif="http://www.serif.com/" style="fill-rule:evenodd;clip-rule:evenodd;stroke-linejoin:round;stroke-miterlimit:2;">
    <g transform="matrix(1,0,0,1,0.16,0.416)">
        <path d="M15.84,23.104C11.68,23.104 8.32,19.744 8.32,15.584C8.32,19.744 11.712,23.104 15.84,23.104ZM17.497,10.098C19.89,10.795 21.64,13.005 21.64,15.621C21.64,18.794 19.05,21.306 15.877,21.306C12.703,21.306 10.14,18.794 10.14,15.621C10.14,12.464 12.689,9.898 15.84,9.871L15.84,9.856C16.416,9.856 16.973,9.941 17.497,10.098ZM16.288,21.28C19.232,21.056 21.568,18.592 21.568,15.584C21.568,12.576 19.2,10.08 16.224,9.888C15.04,10.912 14.24,13.056 14.24,15.552C14.24,18.112 15.008,20.288 16.288,21.28Z"/>
    </g>
    <g transform="matrix(1,0,0,1,0.16,0.416)">
        <path d="M8.32,15.584C8.32,11.424 11.68,8.064 15.84,8.064C20,8.064 23.36,11.424 23.36,15.584C23.36,19.712 20,23.104 15.84,23.104C11.712,23.104 8.32,19.744 8.32,15.584ZM17.497,10.098C16.973,9.941 16.416,9.856 15.84,9.856L15.84,9.871C12.689,9.898 10.14,12.464 10.14,15.621C10.14,18.794 12.703,21.306 15.877,21.306C19.05,21.306 21.64,18.794 21.64,15.621C21.64,13.005 19.89,10.795 17.497,10.098Z"/>
    </g>
</svg>
