<?xml version="1.0" encoding="UTF-8" standalone="no"?>
<!DOCTYPE svg PUBLIC "-//W3C//DTD SVG 1.1//EN" "http://www.w3.org/Graphics/SVG/1.1/DTD/svg11.dtd">
<svg width="100%" height="100%" viewBox="0 0 32 32" version="1.1" xmlns="http://www.w3.org/2000/svg" xmlns:xlink="http://www.w3.org/1999/xlink" xml:space="preserve" xmlns:serif="http://www.serif.com/" style="fill-rule:evenodd;clip-rule:evenodd;stroke-linejoin:round;stroke-miterlimit:2;">
    <g transform="matrix(1,0,0,1,0.112,-0.542365)">
        <path d="M19.904,21.856C19.904,22.351 19.503,22.752 19.008,22.752C18.513,22.752 18.112,22.351 18.112,21.856C18.112,21.361 18.513,20.96 19.008,20.96C19.503,20.96 19.904,21.361 19.904,21.856ZM19.904,24.346C19.904,24.841 19.503,25.242 19.008,25.242C18.513,25.242 18.112,24.841 18.112,24.346C18.112,23.851 18.513,23.45 19.008,23.45C19.503,23.45 19.904,23.851 19.904,24.346ZM15.092,20.801C15.092,21.296 14.691,21.697 14.196,21.697C13.701,21.697 13.3,21.296 13.3,20.801C13.3,20.306 13.701,19.905 14.196,19.905C14.691,19.905 15.092,20.306 15.092,20.801ZM14.208,22.147C14.688,22.147 15.104,22.563 15.104,23.043L15.104,24.579C15.104,25.091 14.688,25.475 14.208,25.475C13.696,25.475 13.312,25.059 13.312,24.579L13.312,23.043C13.312,22.531 13.728,22.147 14.208,22.147ZM17.519,25.568C17.519,26.063 17.118,26.464 16.623,26.464C16.128,26.464 15.727,26.063 15.727,25.568C15.727,25.073 16.128,24.672 16.623,24.672C17.118,24.672 17.519,25.073 17.519,25.568ZM16.623,20.96C17.103,20.96 17.519,21.376 17.519,21.856L17.519,23.392C17.519,23.904 17.103,24.288 16.623,24.288C16.111,24.288 15.727,23.872 15.727,23.392L15.727,21.856C15.727,21.344 16.143,20.96 16.623,20.96Z"/>
    </g>
    <g transform="matrix(1,0,0,1,-0.624,-2.06774)">
        <path d="M24.352,16.672L24.352,16.288C24.352,12.992 21.664,10.336 18.4,10.336C16.768,10.336 15.264,11.008 14.144,12.128C13.568,11.488 13.248,10.656 13.248,9.728C13.248,9.6 13.28,9.504 13.28,9.408C13.312,9.12 13.184,8.832 12.96,8.64C12.736,8.48 12.448,8.416 12.16,8.48C9.792,9.12 8.16,11.296 8.16,13.728C8.16,14.176 8.224,14.624 8.32,15.04C7.648,15.936 7.264,16.992 7.2,18.112C7.168,18.208 7.168,18.272 7.168,18.368C7.168,21.376 9.6,23.808 12.608,23.808C13.12,23.808 13.504,23.392 13.504,22.912C13.504,22.432 13.12,22.016 12.608,22.016C10.656,22.016 9.088,20.48 8.96,18.592C8.992,18.528 8.992,18.432 9.024,18.336C9.024,17.888 9.12,17.44 9.28,17.024C10.272,18.336 11.84,19.168 13.6,19.168C16.416,19.168 18.784,16.96 19.008,14.176C19.04,13.888 18.912,13.6 18.688,13.408C18.464,13.248 18.176,13.184 17.888,13.248C17.536,13.344 17.216,13.376 16.896,13.376C16.448,13.376 16.064,13.312 15.68,13.152C16.448,12.48 17.408,12.128 18.4,12.128C20.672,12.128 22.528,13.984 22.528,16.256C22.528,16.48 22.496,16.704 22.464,16.96C22.4,17.344 22.592,17.76 22.976,17.92C23.744,18.272 24.224,19.04 24.224,19.872C24.224,21.056 23.264,22.016 22.08,22.016C21.6,22.016 21.184,22.432 21.184,22.912C21.184,23.392 21.568,23.808 22.08,23.808C24.256,23.808 26.048,22.016 26.08,19.936C26.08,18.624 25.408,17.408 24.352,16.672ZM16.928,15.136C16.384,16.448 15.072,17.344 13.6,17.344C11.584,17.344 9.952,15.712 9.952,13.696C9.952,12.48 10.56,11.36 11.552,10.688C12,13.248 14.24,15.168 16.928,15.136Z" style="fill-rule:nonzero;"/>
    </g>
</svg>
