<?xml version="1.0" encoding="UTF-8" standalone="no"?><svg viewBox="0 0 32 32" xmlns="http://www.w3.org/2000/svg" xmlns:xlink="http://www.w3.org/1999/xlink" xml:space="preserve" fill-rule="evenodd" clip-rule="evenodd" stroke-linejoin="round" stroke-miterlimit="2" fill="currentColor"><g transform="translate(.16 -.064)"><path d="M23.36 16.064a7.44 7.44 0 0 1-5.312 7.168c-.032 0-.064.032-.096.032a6.6 6.6 0 0 1-2.112.32c-4.16 0-7.52-3.36-7.52-7.52s3.36-7.52 7.52-7.52q1.104 0 2.112.288l.288.096a7.51 7.51 0 0 1 5.12 7.136m-13.248 0a5.72 5.72 0 0 0 4.864 5.664c-1.024-1.312-1.664-3.36-1.664-5.664 0-2.336.64-4.352 1.664-5.664a5.72 5.72 0 0 0-4.864 5.664"/></g></svg>