<?xml version="1.0" encoding="UTF-8" standalone="no"?>
<!DOCTYPE svg PUBLIC "-//W3C//DTD SVG 1.1//EN" "http://www.w3.org/Graphics/SVG/1.1/DTD/svg11.dtd">
<svg width="100%" height="100%" viewBox="0 0 32 32" version="1.1" xmlns="http://www.w3.org/2000/svg" xmlns:xlink="http://www.w3.org/1999/xlink" xml:space="preserve" xmlns:serif="http://www.serif.com/" style="fill-rule:evenodd;clip-rule:evenodd;stroke-linejoin:round;stroke-miterlimit:2;">
    <g transform="matrix(1,0,0,1,-0.108,0.936)">
        <path d="M25.792,17.312C25.792,17.792 25.408,18.208 24.896,18.208L19.216,18.208C18.704,18.208 18.32,17.792 18.32,17.312C18.32,16.832 18.736,16.416 19.216,16.416L24.896,16.416C25.408,16.416 25.792,16.832 25.792,17.312ZM9.943,17.312C9.943,17.792 9.559,18.208 9.047,18.208L7.904,18.208C7.392,18.208 7.008,17.792 7.008,17.312C7.008,16.832 7.424,16.416 7.904,16.416L9.047,16.416C9.559,16.416 9.943,16.832 9.943,17.312ZM20.086,22.717C19.59,22.717 19.186,22.314 19.186,21.818C19.185,21.321 19.588,20.917 20.085,20.917L23.567,20.913C24.064,20.913 24.468,21.316 24.468,21.812C24.469,22.309 24.066,22.713 23.569,22.713L20.086,22.717ZM14.447,22.713C13.95,22.713 13.547,22.31 13.547,21.813C13.547,21.316 13.95,20.913 14.447,20.913L17.739,20.913C18.235,20.913 18.639,21.316 18.639,21.813C18.639,22.31 18.235,22.713 17.739,22.713L14.447,22.713ZM12.138,20.951C12.635,20.951 13.038,21.354 13.038,21.851C13.038,22.348 12.635,22.752 12.138,22.752C11.641,22.752 11.237,22.348 11.237,21.851C11.237,21.354 11.641,20.951 12.138,20.951ZM17.544,18.64C18.041,18.64 18.445,19.044 18.445,19.541C18.445,20.038 18.041,20.441 17.544,20.441C17.047,20.441 16.644,20.038 16.644,19.541C16.644,19.044 17.047,18.64 17.544,18.64ZM19.886,20.433C19.389,20.433 18.986,20.03 18.986,19.533C18.986,19.036 19.389,18.633 19.886,18.633L25.658,18.633C26.155,18.633 26.558,19.036 26.558,19.533C26.558,20.03 26.155,20.433 25.658,20.433L19.886,20.433ZM9.512,20.433C9.015,20.433 8.612,20.03 8.612,19.533C8.612,19.036 9.015,18.633 9.512,18.633L15.243,18.633C15.74,18.633 16.143,19.036 16.143,19.533C16.143,20.03 15.74,20.433 15.243,20.433L9.512,20.433Z"/>
    </g>
    <g transform="matrix(1,0,0,1,-0.108,0.936)">
        <path d="M9.528,15.705C9.364,15.876 9.139,15.968 8.896,15.968C8.736,15.968 8.576,15.936 8.416,15.84C8,15.584 7.872,15.04 8.128,14.592C8.309,14.292 8.517,14.015 8.747,13.762C8.683,13.426 8.644,13.075 8.644,12.724C8.644,10.292 10.276,8.116 12.644,7.476C12.932,7.412 13.22,7.476 13.444,7.636C13.668,7.828 13.796,8.116 13.764,8.404C13.764,8.5 13.732,8.596 13.732,8.724C13.732,9.566 13.961,10.361 14.464,10.949C15.542,9.942 16.973,9.376 18.496,9.376C21.664,9.376 24.288,11.84 24.448,15.008C24.48,15.52 24.096,15.936 23.584,15.936C23.072,15.968 22.656,15.584 22.656,15.072C22.56,12.864 20.736,11.136 18.528,11.136C17.542,11.136 16.629,11.476 15.909,12.067C15.988,12.096 16.072,12.123 16.164,12.148C16.853,12.34 16.932,12.372 17.38,12.372C17.7,12.372 18.02,12.34 18.372,12.244C18.66,12.18 18.948,12.244 19.172,12.404C19.396,12.596 19.524,12.884 19.492,13.172C19.268,15.956 16.9,18.164 14.084,18.164C12.324,18.164 10.838,17.266 9.764,16.02C9.681,15.924 9.602,15.817 9.528,15.705ZM17.412,14.132C14.724,14.164 12.484,12.244 12.036,9.684C11.044,10.356 10.436,11.476 10.436,12.692C10.436,14.708 12.068,16.34 14.084,16.34C15.556,16.34 16.868,15.444 17.412,14.132Z"/>
    </g>
</svg>
