<?xml version="1.0" encoding="UTF-8" standalone="no"?>
<!DOCTYPE svg PUBLIC "-//W3C//DTD SVG 1.1//EN" "http://www.w3.org/Graphics/SVG/1.1/DTD/svg11.dtd">
<svg width="100%" height="100%" viewBox="0 0 32 32" version="1.1" xmlns="http://www.w3.org/2000/svg" xmlns:xlink="http://www.w3.org/1999/xlink" xml:space="preserve" xmlns:serif="http://www.serif.com/" style="fill-rule:evenodd;clip-rule:evenodd;stroke-linejoin:round;stroke-miterlimit:2;">
    <g transform="matrix(1,0,0,-1,-9.6,26.072)">
        <path d="M20.864,15.84C20.64,15.84 20.384,15.744 20.224,15.584C19.872,15.232 19.872,14.656 20.224,14.304L20.512,14.016C20.352,13.856 20.224,13.632 20.224,13.376C20.224,12.864 20.608,12.48 21.12,12.48L22.432,12.48C22.912,12.48 23.36,12.864 23.392,13.376L23.392,14.688C23.392,15.168 22.976,15.584 22.464,15.584C22.208,15.584 21.952,15.488 21.792,15.296L21.504,15.584C21.312,15.744 21.088,15.84 20.864,15.84Z"/>
    </g>
    <g transform="matrix(1,0,0,1,-0.016,-1.28)">
        <path d="M22.076,19.488L24.928,19.488C25.44,19.488 25.824,19.904 25.824,20.384C25.824,20.864 25.408,21.28 24.896,21.28L7.104,21.28C6.592,21.28 6.208,20.864 6.208,20.384C6.208,19.904 6.624,19.488 7.104,19.488L9.934,19.488C9.723,18.932 9.586,18.34 9.539,17.724C9.507,17.468 9.603,17.18 9.827,17.02C10.019,16.86 10.307,16.796 10.563,16.86C11.011,16.988 11.459,17.052 11.875,17.052C14.563,17.052 16.739,14.876 16.739,12.188C16.739,12.028 16.707,11.9 16.707,11.772C16.675,11.516 16.771,11.228 16.995,11.068C17.187,10.908 17.475,10.844 17.731,10.908C20.547,11.708 22.499,14.268 22.499,17.18C22.499,17.993 22.349,18.771 22.076,19.488ZM11.76,19.488L20.275,19.488C20.652,18.801 20.867,18.014 20.867,17.18C20.867,15.388 19.875,13.756 18.339,12.924C17.955,16.316 14.915,18.94 11.395,18.652C11.491,18.944 11.613,19.223 11.76,19.488ZM22.784,22.144C23.296,22.144 23.68,22.56 23.68,23.04C23.68,23.52 23.296,23.936 22.816,23.936L9.152,23.936C8.64,23.936 8.256,23.52 8.256,23.04C8.256,22.56 8.672,22.144 9.152,22.144L22.784,22.144Z"/>
    </g>
</svg>
