<?xml version="1.0" encoding="UTF-8" standalone="no"?><svg viewBox="0 0 32 32" xmlns="http://www.w3.org/2000/svg" xmlns:xlink="http://www.w3.org/1999/xlink" xml:space="preserve" fill-rule="evenodd" clip-rule="evenodd" stroke-linejoin="round" stroke-miterlimit="2" fill="currentColor"><g transform="translate(-.016 -.004)"><path d="M23.744 16.512c1.056.736 1.728 1.952 1.728 3.264-.064 2.144-1.824 3.904-4 3.904H12a5.435 5.435 0 0 1-5.44-5.44v-.032c0-1.184.384-2.336 1.12-3.296a6 6 0 0 1-.16-1.312c0-2.432 1.632-4.608 4-5.248a1 1 0 0 1 .8.16c.224.16.352.48.32.768 0 .096-.032.192-.032.32 0 .928.352 1.792.928 2.432a5.85 5.85 0 0 1 4.256-1.824c3.264 0 5.952 2.656 5.952 5.952zM10.912 10.56a3.63 3.63 0 0 0-1.6 3.008 3.646 3.646 0 0 0 3.648 3.648 3.69 3.69 0 0 0 3.36-2.208c-2.688.032-4.928-1.888-5.408-4.448m10.56 11.328c1.184 0 2.144-.96 2.144-2.144 0-.832-.48-1.6-1.248-1.952-.384-.16-.576-.576-.512-.96.032-.256.064-.48.064-.704A4.14 4.14 0 0 0 17.792 12a4.13 4.13 0 0 0-2.752 1.024c.384.16.8.224 1.216.224.32 0 .64-.032.992-.128a1 1 0 0 1 .8.16c.224.192.352.48.32.768-.192 2.784-2.592 4.992-5.408 4.992a5.4 5.4 0 0 1-4.32-2.144c-.16.416-.256.864-.256 1.312 0 .064-.032.096-.032.16A3.64 3.64 0 0 0 12 21.888z"/></g></svg>