<?xml version="1.0" encoding="UTF-8" standalone="no"?>
<!DOCTYPE svg PUBLIC "-//W3C//DTD SVG 1.1//EN" "http://www.w3.org/Graphics/SVG/1.1/DTD/svg11.dtd">
<svg width="100%" height="100%" viewBox="0 0 32 32" version="1.1" xmlns="http://www.w3.org/2000/svg" xmlns:xlink="http://www.w3.org/1999/xlink" xml:space="preserve" xmlns:serif="http://www.serif.com/" style="fill-rule:evenodd;clip-rule:evenodd;stroke-linejoin:round;stroke-miterlimit:2;">
    <g transform="matrix(1,0,0,1,-0.108,0.936)">
        <path d="M23.2,20.96C23.712,20.96 24.096,21.376 24.096,21.856C24.096,22.336 23.68,22.752 23.2,22.752L11.776,22.752C11.264,22.752 10.88,22.336 10.88,21.856C10.88,21.376 11.296,20.96 11.776,20.96L23.2,20.96ZM25.28,18.688C25.792,18.688 26.176,19.104 26.176,19.584C26.176,20.064 25.792,20.48 25.28,20.48L9.088,20.48C8.576,20.48 8.192,20.064 8.192,19.584C8.192,19.104 8.608,18.688 9.088,18.688L25.28,18.688ZM25.792,17.312C25.792,17.792 25.408,18.208 24.896,18.208L19.216,18.208C18.704,18.208 18.32,17.792 18.32,17.312C18.32,16.832 18.736,16.416 19.216,16.416L24.896,16.416C25.408,16.416 25.792,16.832 25.792,17.312ZM9.943,17.312C9.943,17.792 9.559,18.208 9.047,18.208L7.904,18.208C7.392,18.208 7.008,17.792 7.008,17.312C7.008,16.832 7.424,16.416 7.904,16.416L9.047,16.416C9.559,16.416 9.943,16.832 9.943,17.312Z"/>
    </g>
    <g transform="matrix(1,0,0,1,-0.108,0.936)">
        <path d="M9.528,15.705C9.364,15.876 9.139,15.968 8.896,15.968C8.736,15.968 8.576,15.936 8.416,15.84C8,15.584 7.872,15.04 8.128,14.592C8.309,14.292 8.517,14.015 8.747,13.762C8.683,13.426 8.644,13.075 8.644,12.724C8.644,10.292 10.276,8.116 12.644,7.476C12.932,7.412 13.22,7.476 13.444,7.636C13.668,7.828 13.796,8.116 13.764,8.404C13.764,8.5 13.732,8.596 13.732,8.724C13.732,9.566 13.961,10.361 14.464,10.949C15.542,9.942 16.973,9.376 18.496,9.376C21.664,9.376 24.288,11.84 24.448,15.008C24.48,15.52 24.096,15.936 23.584,15.936C23.072,15.968 22.656,15.584 22.656,15.072C22.56,12.864 20.736,11.136 18.528,11.136C17.542,11.136 16.629,11.476 15.909,12.067C15.988,12.096 16.072,12.123 16.164,12.148C16.853,12.34 16.932,12.372 17.38,12.372C17.7,12.372 18.02,12.34 18.372,12.244C18.66,12.18 18.948,12.244 19.172,12.404C19.396,12.596 19.524,12.884 19.492,13.172C19.268,15.956 16.9,18.164 14.084,18.164C12.324,18.164 10.838,17.266 9.764,16.02C9.681,15.924 9.602,15.817 9.528,15.705ZM17.412,14.132C14.724,14.164 12.484,12.244 12.036,9.684C11.044,10.356 10.436,11.476 10.436,12.692C10.436,14.708 12.068,16.34 14.084,16.34C15.556,16.34 16.868,15.444 17.412,14.132Z"/>
    </g>
</svg>
