<?xml version="1.0" encoding="UTF-8" standalone="no"?>
<!DOCTYPE svg PUBLIC "-//W3C//DTD SVG 1.1//EN" "http://www.w3.org/Graphics/SVG/1.1/DTD/svg11.dtd">
<svg width="100%" height="100%" viewBox="0 0 32 32" version="1.1" xmlns="http://www.w3.org/2000/svg" xmlns:xlink="http://www.w3.org/1999/xlink" xml:space="preserve" xmlns:serif="http://www.serif.com/" style="fill-rule:evenodd;clip-rule:evenodd;stroke-linejoin:round;stroke-miterlimit:2;">
    <g transform="matrix(0.952691,0.134782,0.134782,0.616008,-1.12025,5.39049)">
        <path d="M14.683,21.698C14.337,22.604 13.646,23.156 13.142,22.929C12.637,22.703 12.508,21.783 12.854,20.878L18.754,5.432C19.1,4.526 19.791,3.974 20.296,4.201C20.8,4.427 20.929,5.347 20.583,6.252L14.683,21.698Z"/>
    </g>
    <g transform="matrix(1.16936,0,0,1,-3.42477,4.74465)">
        <path d="M9.752,8.004L11.981,11.949L11.981,8.097C11.981,7.719 12.062,7.439 12.201,7.249C12.353,7.042 12.557,6.934 12.815,6.934C13.08,6.934 13.287,7.042 13.44,7.248C13.581,7.438 13.663,7.718 13.663,8.097L13.663,14.29C13.663,14.708 13.578,15.018 13.43,15.227C13.27,15.453 13.034,15.577 12.714,15.577C12.565,15.577 12.431,15.55 12.311,15.5C12.188,15.449 12.073,15.367 11.965,15.255C11.868,15.154 11.778,15.036 11.695,14.9C11.621,14.779 11.546,14.655 11.472,14.528L11.469,14.523L9.304,10.641L9.304,14.414C9.304,14.79 9.219,15.071 9.069,15.264C8.909,15.471 8.703,15.577 8.452,15.577C8.191,15.577 7.984,15.468 7.827,15.257C7.682,15.063 7.599,14.784 7.599,14.414L7.599,8.339C7.599,8.042 7.631,7.81 7.687,7.641L7.69,7.635C7.764,7.428 7.887,7.258 8.06,7.127C8.23,6.998 8.415,6.934 8.612,6.934C8.77,6.934 8.904,6.967 9.016,7.026C9.127,7.086 9.225,7.166 9.31,7.267C9.384,7.356 9.461,7.471 9.539,7.613L9.752,8.004ZM23.754,14.39L23.485,13.562L21.043,13.562L20.773,14.41C20.638,14.836 20.518,15.121 20.422,15.27C20.298,15.464 20.099,15.577 19.815,15.577C19.588,15.577 19.387,15.482 19.213,15.287C19.034,15.088 18.949,14.86 18.949,14.607C18.949,14.475 18.967,14.34 19.005,14.199C19.037,14.081 19.089,13.915 19.162,13.704L20.884,8.591L21.061,8.062C21.136,7.837 21.217,7.65 21.303,7.501C21.399,7.333 21.526,7.197 21.683,7.093C21.838,6.99 22.03,6.934 22.259,6.934C22.491,6.934 22.684,6.99 22.839,7.093C22.996,7.196 23.122,7.33 23.218,7.493C23.305,7.64 23.378,7.798 23.437,7.967C23.491,8.12 23.56,8.325 23.643,8.58L25.401,13.658C25.554,14.087 25.623,14.401 25.623,14.596C25.623,14.842 25.541,15.07 25.366,15.275C25.194,15.476 24.986,15.577 24.744,15.577C24.599,15.577 24.476,15.543 24.372,15.483C24.267,15.422 24.179,15.338 24.107,15.232C24.047,15.143 23.981,15.007 23.912,14.823C23.851,14.661 23.799,14.519 23.756,14.396L23.754,14.39ZM21.557,11.865L22.959,11.865L22.251,9.6L21.557,11.865Z"/>
    </g>
</svg>
