<?xml version="1.0" encoding="UTF-8" standalone="no"?>
<!DOCTYPE svg PUBLIC "-//W3C//DTD SVG 1.1//EN" "http://www.w3.org/Graphics/SVG/1.1/DTD/svg11.dtd">
<svg width="100%" height="100%" viewBox="0 0 32 32" version="1.1" xmlns="http://www.w3.org/2000/svg" xmlns:xlink="http://www.w3.org/1999/xlink" xml:space="preserve" xmlns:serif="http://www.serif.com/" style="fill-rule:evenodd;clip-rule:evenodd;stroke-linejoin:round;stroke-miterlimit:2;">
    <g transform="matrix(0.482204,0,0,0.482204,5.39608,6.54838)">
        <path d="M12.655,11.47C13.776,11.47 14.686,12.38 14.686,13.501C14.686,14.622 13.776,15.532 12.655,15.532C11.534,15.532 10.623,14.622 10.623,13.501C10.623,12.38 11.534,11.47 12.655,11.47ZM36.201,26.976C37.346,26.976 38.276,27.906 38.276,29.051C38.276,30.196 37.346,31.126 36.201,31.126C35.056,31.126 34.126,30.196 34.126,29.051C34.126,27.906 35.056,26.976 36.201,26.976ZM25.165,29.814C26.31,29.814 27.24,30.744 27.24,31.889C27.24,33.034 26.31,33.964 25.165,33.964C24.02,33.964 23.09,33.034 23.09,31.889C23.09,30.744 24.02,29.814 25.165,29.814ZM29.622,1.949C30.767,1.949 31.697,2.879 31.697,4.024C31.697,5.169 30.767,6.099 29.622,6.099C28.477,6.099 27.547,5.169 27.547,4.024C27.547,2.879 28.477,1.949 29.622,1.949ZM41.218,18.593C42.363,18.593 43.293,19.523 43.293,20.668C43.293,21.813 42.363,22.743 41.218,22.743C40.073,22.743 39.143,21.813 39.143,20.668C39.143,19.523 40.073,18.593 41.218,18.593Z"/>
    </g>
    <g transform="matrix(0.772398,0.445944,-0.445944,0.772398,7.78244,-3.42504)">
        <path d="M25.868,7.43L22.522,9.362C21.986,9.671 21.3,9.487 20.99,8.952C20.681,8.416 20.865,7.729 21.401,7.42L24.747,5.488C25.114,5.276 25.241,4.805 25.028,4.437C24.816,4.069 24.345,3.943 23.977,4.155C23.441,4.464 22.755,4.28 22.445,3.745C22.136,3.209 22.32,2.522 22.856,2.213C24.295,1.382 26.139,1.876 26.97,3.315C27.802,4.755 27.308,6.599 25.868,7.43ZM15.103,20.241C14.497,20.886 13.665,21.28 12.762,21.28C11.43,21.28 10.251,20.422 9.729,19.166C8.38,19.342 7.047,18.749 6.381,17.596C5.715,16.443 5.869,14.992 6.695,13.912C5.869,12.832 5.715,11.381 6.381,10.228C7.047,9.075 8.38,8.482 9.729,8.658C10.251,7.402 11.43,6.544 12.762,6.544C14.094,6.544 15.273,7.402 15.795,8.658C17.144,8.482 18.477,9.075 19.143,10.228C19.809,11.381 19.655,12.832 18.829,13.912C19.655,14.992 19.809,16.443 19.143,17.596C18.686,18.387 17.915,18.915 17.04,19.111L19.908,24.078C20.217,24.614 20.034,25.3 19.498,25.61C18.962,25.919 18.275,25.735 17.966,25.199L15.103,20.241ZM10.003,11.076C9.399,10.727 8.637,10.804 8.323,11.349C8.009,11.894 8.322,12.592 8.927,12.941C9.274,13.141 9.487,13.511 9.487,13.912C9.487,14.312 9.274,14.683 8.927,14.883C8.322,15.232 8.009,15.93 8.323,16.475C8.637,17.019 9.399,17.097 10.003,16.748C10.35,16.548 10.778,16.548 11.125,16.748C11.472,16.948 11.685,17.318 11.685,17.719C11.685,18.417 12.133,19.038 12.762,19.038C13.391,19.038 13.839,18.417 13.839,17.719C13.839,17.318 14.052,16.948 14.399,16.748C14.746,16.548 15.174,16.548 15.521,16.748C16.125,17.097 16.887,17.019 17.201,16.475C17.515,15.93 17.202,15.232 16.597,14.883C16.25,14.683 16.037,14.312 16.037,13.912C16.037,13.511 16.25,13.141 16.597,12.941C17.202,12.592 17.515,11.894 17.201,11.349C16.887,10.804 16.125,10.727 15.521,11.076C15.174,11.276 14.746,11.276 14.399,11.076C14.052,10.876 13.839,10.505 13.839,10.105C13.839,9.407 13.391,8.786 12.762,8.786C12.133,8.786 11.685,9.407 11.685,10.105C11.685,10.505 11.472,10.876 11.125,11.076C10.778,11.276 10.35,11.276 10.003,11.076ZM22.51,15.268C21.974,15.577 21.287,15.394 20.978,14.858C20.669,14.322 20.852,13.635 21.388,13.326L24.119,11.749C24.655,11.44 25.342,11.624 25.651,12.16C25.96,12.696 25.776,13.382 25.241,13.691L22.51,15.268Z"/>
    </g>
</svg>
