<?xml version="1.0" encoding="UTF-8" standalone="no"?>
<!DOCTYPE svg PUBLIC "-//W3C//DTD SVG 1.1//EN" "http://www.w3.org/Graphics/SVG/1.1/DTD/svg11.dtd">
<svg width="100%" height="100%" viewBox="0 0 32 32" version="1.1" xmlns="http://www.w3.org/2000/svg" xmlns:xlink="http://www.w3.org/1999/xlink" xml:space="preserve" xmlns:serif="http://www.serif.com/" style="fill-rule:evenodd;clip-rule:evenodd;stroke-linejoin:round;stroke-miterlimit:2;">
    <g transform="matrix(1,0,0,1,0.136396,0.115533)">
        <path d="M16.098,18.983C15.708,18.592 15.708,17.959 16.098,17.569C16.488,17.178 17.122,17.178 17.512,17.569L19.47,19.526L21.378,17.619C21.768,17.228 22.402,17.228 22.792,17.619C23.182,18.009 23.182,18.643 22.792,19.033L20.177,21.648C19.787,22.038 19.154,22.038 18.763,21.648L16.098,18.983Z"/>
    </g>
    <g transform="matrix(0.590372,0,0,0.590372,8.1119,8.69333)">
        <path d="M17.777,16.851L17.777,12.136C17.777,8.477 14.807,5.506 11.148,5.506C7.488,5.506 4.518,8.477 4.518,12.136C4.518,15.795 7.488,18.766 11.148,18.766C12.082,18.766 12.841,19.525 12.841,20.46C12.841,21.395 12.082,22.154 11.148,22.154C5.619,22.154 1.13,17.665 1.13,12.136C1.13,6.607 5.619,2.119 11.148,2.119C16.676,2.119 21.165,6.608 21.165,12.136L21.164,16.851L19.47,18.545L17.777,16.851Z"/>
    </g>
</svg>
