<?xml version="1.0" encoding="UTF-8" standalone="no"?>
<!DOCTYPE svg PUBLIC "-//W3C//DTD SVG 1.1//EN" "http://www.w3.org/Graphics/SVG/1.1/DTD/svg11.dtd">
<svg width="100%" height="100%" viewBox="0 0 32 32" version="1.1" xmlns="http://www.w3.org/2000/svg" xmlns:xlink="http://www.w3.org/1999/xlink" xml:space="preserve" xmlns:serif="http://www.serif.com/" style="fill-rule:evenodd;clip-rule:evenodd;stroke-linejoin:round;stroke-miterlimit:2;">
    <g transform="matrix(0.77911,3.69779e-32,-1.2326e-32,0.819821,4.92854,0.743045)">
        <path d="M14.278,21.321C13.72,21.736 12.913,21.643 12.476,21.112C12.04,20.582 12.138,19.815 12.696,19.4C16.144,16.837 19.977,13.077 22.461,8.975C22.815,8.391 23.6,8.19 24.214,8.526C24.828,8.862 25.04,9.608 24.686,10.192C22.036,14.568 17.956,18.587 14.278,21.321ZM14.716,15.817C14.264,16.336 13.454,16.408 12.909,15.978C12.363,15.549 12.288,14.779 12.74,14.261C15.499,11.096 16.614,9.119 17.492,5.665C17.659,5.011 18.353,4.608 19.041,4.766C19.73,4.924 20.154,5.584 19.987,6.238C19.009,10.084 17.788,12.295 14.716,15.817ZM3.332,14.705C4.051,14.705 4.634,15.259 4.634,15.942C4.634,16.625 4.051,17.179 3.332,17.179C2.614,17.179 2.031,16.625 2.031,15.942C2.031,15.259 2.614,14.705 3.332,14.705ZM16.435,28.795C17.153,28.795 17.736,29.349 17.736,30.032C17.736,30.715 17.153,31.269 16.435,31.269C15.717,31.269 15.133,30.715 15.133,30.032C15.133,29.349 15.717,28.795 16.435,28.795ZM25.834,15.365C26.553,15.365 27.136,15.919 27.136,16.601C27.136,17.284 26.553,17.838 25.834,17.838C25.116,17.838 24.533,17.284 24.533,16.601C24.533,15.919 25.116,15.365 25.834,15.365Z"/>
    </g>
    <g transform="matrix(-0.799903,9.79598e-17,-9.79598e-17,-0.799903,27.5637,30.906)">
        <path d="M23.371,9.5L26.367,11.038C26.784,11.252 27.046,11.682 27.046,12.15C27.046,12.619 26.784,13.049 26.367,13.263L23.371,14.801L21.832,17.797C21.618,18.214 21.189,18.477 20.72,18.477C20.251,18.477 19.822,18.214 19.608,17.797L18.07,14.801L15.073,13.263C14.656,13.049 14.394,12.619 14.394,12.15C14.394,11.682 14.656,11.252 15.073,11.038L18.07,9.5L19.608,6.503C19.822,6.086 20.251,5.824 20.72,5.824C21.189,5.824 21.618,6.086 21.832,6.503L23.371,9.5ZM21.33,11L20.72,9.812L20.111,11C19.991,11.232 19.802,11.421 19.569,11.541L18.382,12.15L19.569,12.76C19.802,12.879 19.991,13.069 20.111,13.301L20.72,14.489L21.33,13.301C21.449,13.069 21.638,12.879 21.871,12.76L23.059,12.15L21.871,11.541C21.638,11.421 21.449,11.232 21.33,11ZM21.143,26.671L21.806,26.671C22.496,26.671 23.056,27.231 23.056,27.921C23.056,28.611 22.496,29.171 21.806,29.171L21.143,29.171L21.143,29.834C21.143,30.524 20.583,31.084 19.893,31.084C19.203,31.084 18.643,30.524 18.643,29.834L18.643,29.171L17.98,29.171C17.29,29.171 16.73,28.611 16.73,27.921C16.73,27.231 17.29,26.671 17.98,26.671L18.643,26.671L18.643,26.008C18.643,25.318 19.203,24.758 19.893,24.758C20.583,24.758 21.143,25.318 21.143,26.008L21.143,26.671ZM8.067,11.706L8.729,11.706C9.419,11.706 9.98,12.266 9.98,12.956C9.98,13.646 9.419,14.206 8.729,14.206L8.067,14.206L8.067,14.869C8.067,15.559 7.507,16.119 6.817,16.119C6.127,16.119 5.566,15.559 5.566,14.869L5.566,14.206L4.904,14.206C4.214,14.206 3.654,13.646 3.654,12.956C3.654,12.266 4.214,11.706 4.904,11.706L5.566,11.706L5.566,11.043C5.566,10.353 6.127,9.793 6.817,9.793C7.507,9.793 8.067,10.353 8.067,11.043L8.067,11.706Z"/>
    </g>
</svg>
