<?xml version="1.0" encoding="UTF-8" standalone="no"?>
<!DOCTYPE svg PUBLIC "-//W3C//DTD SVG 1.1//EN" "http://www.w3.org/Graphics/SVG/1.1/DTD/svg11.dtd">
<svg width="100%" height="100%" viewBox="0 0 32 32" version="1.1" xmlns="http://www.w3.org/2000/svg" xmlns:xlink="http://www.w3.org/1999/xlink" xml:space="preserve" xmlns:serif="http://www.serif.com/" style="fill-rule:evenodd;clip-rule:evenodd;stroke-linejoin:round;stroke-miterlimit:2;">
    <g transform="matrix(-0.799903,9.79598e-17,-9.79598e-17,-0.799903,27.468,19.3331)">
        <path d="M23.371,9.5L26.367,11.038C26.784,11.252 27.046,11.682 27.046,12.15C27.046,12.619 26.784,13.049 26.367,13.263L23.371,14.801L21.832,17.797C21.618,18.214 21.189,18.477 20.72,18.477C20.251,18.477 19.822,18.214 19.608,17.797L18.07,14.801L15.073,13.263C14.656,13.049 14.394,12.619 14.394,12.15C14.394,11.682 14.656,11.252 15.073,11.038L18.07,9.5L19.608,6.503C19.822,6.086 20.251,5.824 20.72,5.824C21.189,5.824 21.618,6.086 21.832,6.503L23.371,9.5ZM21.33,11L20.72,9.812L20.111,11C19.991,11.232 19.802,11.421 19.569,11.541L18.382,12.15L19.569,12.76C19.802,12.879 19.991,13.069 20.111,13.301L20.72,14.489L21.33,13.301C21.449,13.069 21.638,12.879 21.871,12.76L23.059,12.15L21.871,11.541C21.638,11.421 21.449,11.232 21.33,11ZM23.371,-6.467L26.367,-4.929C26.784,-4.715 27.046,-4.285 27.046,-3.817C27.046,-3.348 26.784,-2.918 26.367,-2.704L23.371,-1.166L21.832,1.83C21.618,2.247 21.189,2.51 20.72,2.51C20.251,2.51 19.822,2.247 19.608,1.83L18.07,-1.166L15.073,-2.704C14.656,-2.918 14.394,-3.348 14.394,-3.817C14.394,-4.285 14.656,-4.715 15.073,-4.929L18.07,-6.467L19.608,-9.463C19.822,-9.88 20.251,-10.143 20.72,-10.143C21.189,-10.143 21.618,-9.88 21.832,-9.463L23.371,-6.467ZM21.33,-4.967L20.72,-6.155L20.111,-4.967C19.991,-4.735 19.802,-4.546 19.569,-4.426L18.382,-3.817L19.569,-3.207C19.802,-3.088 19.991,-2.898 20.111,-2.666L20.72,-1.478L21.33,-2.666C21.449,-2.898 21.638,-3.088 21.871,-3.207L23.059,-3.817L21.871,-4.426C21.638,-4.546 21.449,-4.735 21.33,-4.967Z"/>
    </g>
    <g transform="matrix(-1,1.22465e-16,-1.22465e-16,-1,40.8105,28.1504)">
        <path d="M23.185,9.686L26.253,11.261C26.586,11.432 26.796,11.775 26.796,12.15C26.796,12.525 26.586,12.869 26.253,13.04L23.185,14.615L21.61,17.683C21.439,18.017 21.095,18.226 20.72,18.226C20.345,18.226 20.002,18.017 19.831,17.683L18.256,14.615L15.187,13.04C14.854,12.869 14.644,12.525 14.644,12.15C14.644,11.775 14.854,11.432 15.187,11.261L18.256,9.686L19.831,6.618C20.002,6.284 20.345,6.074 20.72,6.074C21.095,6.074 21.439,6.284 21.61,6.618L23.185,9.686ZM21.552,10.885L20.72,9.264L19.888,10.885C19.792,11.071 19.641,11.223 19.455,11.318L17.834,12.15L19.455,12.983C19.641,13.078 19.792,13.229 19.888,13.416L20.72,15.037L21.552,13.416C21.648,13.229 21.799,13.078 21.985,12.983L23.606,12.15L21.985,11.318C21.799,11.223 21.648,11.071 21.552,10.885Z"/>
    </g>
</svg>
