<?xml version="1.0" encoding="UTF-8" standalone="no"?>
<!DOCTYPE svg PUBLIC "-//W3C//DTD SVG 1.1//EN" "http://www.w3.org/Graphics/SVG/1.1/DTD/svg11.dtd">
<svg width="100%" height="100%" viewBox="0 0 32 32" version="1.1" xmlns="http://www.w3.org/2000/svg" xmlns:xlink="http://www.w3.org/1999/xlink" xml:space="preserve" xmlns:serif="http://www.serif.com/" style="fill-rule:evenodd;clip-rule:evenodd;stroke-linejoin:round;stroke-miterlimit:2;">
    <g transform="matrix(-1.57877,1.93343e-16,-1.93343e-16,-1.57877,48.7123,35.1827)">
        <path d="M22.912,9.958L26.085,11.587C26.297,11.695 26.43,11.913 26.43,12.15C26.43,12.388 26.297,12.605 26.085,12.714L22.912,14.343L21.284,17.516C21.175,17.727 20.958,17.86 20.72,17.86C20.483,17.86 20.265,17.727 20.157,17.516L18.528,14.343L15.355,12.714C15.144,12.605 15.011,12.388 15.011,12.15C15.011,11.913 15.144,11.695 15.355,11.587L18.528,9.958L20.157,6.785C20.265,6.574 20.483,6.441 20.72,6.441C20.958,6.441 21.175,6.574 21.284,6.785L22.912,9.958ZM21.878,10.718L20.72,8.461L19.562,10.718C19.501,10.836 19.405,10.932 19.288,10.992L17.031,12.15L19.288,13.309C19.405,13.369 19.501,13.465 19.562,13.583L20.72,15.839L21.878,13.583C21.939,13.465 22.035,13.369 22.153,13.309L24.409,12.15L22.153,10.992C22.035,10.932 21.939,10.836 21.878,10.718Z"/>
    </g>
</svg>
