<?xml version="1.0" encoding="UTF-8" standalone="no"?>
<!DOCTYPE svg PUBLIC "-//W3C//DTD SVG 1.1//EN" "http://www.w3.org/Graphics/SVG/1.1/DTD/svg11.dtd">
<svg width="100%" height="100%" viewBox="0 0 32 32" version="1.1" xmlns="http://www.w3.org/2000/svg" xmlns:xlink="http://www.w3.org/1999/xlink" xml:space="preserve" xmlns:serif="http://www.serif.com/" style="fill-rule:evenodd;clip-rule:evenodd;stroke-linejoin:round;stroke-miterlimit:2;">
    <g transform="matrix(1,0,0,1,-0.176,0.128)">
        <path d="M11.104,19.52C10.848,18.88 10.688,18.144 10.688,17.408C10.688,14.464 13.056,12.064 16,12.064C18.912,12.064 21.312,14.464 21.312,17.408C21.312,18.112 21.184,18.88 20.896,19.52L18.816,19.52C19.296,18.88 19.52,18.176 19.52,17.408C19.52,15.456 17.952,13.856 16,13.856C14.048,13.856 12.48,15.424 12.48,17.376C12.48,18.144 12.704,18.88 13.152,19.488L13.152,19.52L11.104,19.52ZM16,10.848C15.488,10.848 15.04,10.432 15.04,9.952L15.04,8.64C15.04,8.16 15.488,7.744 16,7.744C16.512,7.744 16.96,8.128 16.96,8.64L16.96,9.952C16.96,10.432 16.512,10.848 16,10.848ZM10.112,12.768L9.184,11.84C8.832,11.488 8.832,10.912 9.184,10.56C9.536,10.208 10.112,10.208 10.464,10.56L11.392,11.488C11.744,11.84 11.744,12.416 11.392,12.768C11.2,12.928 10.976,13.024 10.752,13.024C10.528,13.024 10.272,12.928 10.112,12.768ZM7.264,18.24C6.752,18.24 6.368,17.792 6.368,17.28C6.368,16.768 6.752,16.32 7.264,16.32L8.576,16.32C9.056,16.32 9.472,16.768 9.472,17.28C9.472,17.792 9.088,18.24 8.576,18.24L7.264,18.24ZM22.528,17.28C22.528,16.768 22.944,16.32 23.424,16.32L24.736,16.32C25.216,16.32 25.632,16.768 25.632,17.28C25.632,17.792 25.248,18.24 24.736,18.24L23.424,18.24C22.944,18.24 22.528,17.792 22.528,17.28ZM21.248,13.024C21.024,13.024 20.8,12.928 20.608,12.768C20.256,12.416 20.256,11.84 20.608,11.488L21.536,10.56C21.888,10.208 22.464,10.208 22.816,10.56C23.168,10.912 23.168,11.488 22.816,11.84L21.888,12.768C21.696,12.928 21.472,13.024 21.248,13.024Z"/>
    </g>
    <g transform="matrix(1,0,0,1,-0.016,0.16)">
        <path d="M7.104,19.488L24.928,19.488C25.44,19.488 25.824,19.904 25.824,20.384C25.824,20.864 25.408,21.28 24.896,21.28L7.104,21.28C6.592,21.28 6.208,20.864 6.208,20.384C6.208,19.904 6.624,19.488 7.104,19.488ZM22.784,22.144C23.296,22.144 23.68,22.56 23.68,23.04C23.68,23.52 23.296,23.936 22.816,23.936L9.152,23.936C8.64,23.936 8.256,23.52 8.256,23.04C8.256,22.56 8.672,22.144 9.152,22.144L22.784,22.144Z"/>
    </g>
</svg>
