<?xml version="1.0" encoding="UTF-8" standalone="no"?><svg viewBox="0 0 32 32" xmlns="http://www.w3.org/2000/svg" xmlns:xlink="http://www.w3.org/1999/xlink" xml:space="preserve" fill-rule="evenodd" clip-rule="evenodd" stroke-linejoin="round" stroke-miterlimit="2" fill="currentColor"><g transform="translate(.896 1.728)"><path d="M24.832 15.904c1.056.736 1.728 1.952 1.728 3.264-.064 2.08-1.824 3.84-4 3.84h-1.024a.894.894 0 0 1-.896-.896c0-.48.416-.896.896-.896h1.024c1.184 0 2.144-.96 2.144-2.144 0-.832-.48-1.6-1.248-1.952-.384-.16-.576-.576-.512-.96.032-.256.064-.48.064-.704a4.14 4.14 0 0 0-4.128-4.128c-1.28 0-2.464.576-3.232 1.568.16.096.32.224.48.32a.92.92 0 0 1 .256 1.248.92.92 0 0 1-1.248.256c-.352-.224-.832-.512-1.312-.672a5 5 0 0 0-.704-.064 3.646 3.646 0 0 0-3.648 3.648.894.894 0 0 1-.896.896c-.384 0-.704-.256-.832-.608a.85.85 0 0 1-.096-.384 5.42 5.42 0 0 1 2.56-4.608c-.384-.64-.48-1.216-.48-1.888 0-2.208 1.792-4 4-4a3.97 3.97 0 0 1 3.776 2.688c.448-.096.896-.16 1.376-.16 3.264 0 5.952 2.656 5.952 5.952zm-11.744-3.808c.288 0 .608.032.864.096A6.3 6.3 0 0 1 15.84 10.4a2.23 2.23 0 0 0-2.112-1.568 2.21 2.21 0 0 0-2.208 2.208c0 .512.064.736.256 1.024a.7.7 0 0 1 .096.16c.384-.064.8-.128 1.216-.128m4.384 6.592c0 1.12-.928 2.048-2.048 2.048H4.544a.894.894 0 0 1-.896-.896c0-.48.416-.896.896-.896h10.88a.25.25 0 0 0 .256-.256c0-.16-.096-.256-.256-.256a.894.894 0 0 1-.896-.896c0-.48.416-.896.896-.896 1.12 0 2.048.928 2.048 2.048m.672 2.528c1.12 0 2.048.928 2.048 2.048s-.928 2.048-2.048 2.048a.894.894 0 0 1-.896-.896c0-.48.416-.896.896-.896a.25.25 0 0 0 .256-.256c0-.16-.096-.256-.256-.256H7.264a.894.894 0 0 1-.896-.896c0-.48.416-.896.896-.896zM13.728 5.952a.894.894 0 0 1-.896-.896v-.928c0-.512.416-.896.896-.896s.896.416.896.896v.928a.894.894 0 0 1-.896.896M8.864 7.456l-.64-.64a.91.91 0 0 1 0-1.28.91.91 0 0 1 1.28 0l.64.64a.91.91 0 0 1 0 1.28c-.192.16-.416.256-.64.256s-.448-.096-.64-.256m-2.048 4.48a.894.894 0 0 1-.896-.896c0-.48.416-.896.896-.896h.928c.512 0 .896.416.896.896s-.384.896-.896.896zm11.136-4.224c-.224 0-.448-.096-.64-.256a.91.91 0 0 1 0-1.28l.64-.64a.91.91 0 0 1 1.28 0 .91.91 0 0 1 0 1.28l-.64.64c-.192.16-.416.256-.64.256"/></g></svg>