<?xml version="1.0" encoding="UTF-8" standalone="no"?>
<!DOCTYPE svg PUBLIC "-//W3C//DTD SVG 1.1//EN" "http://www.w3.org/Graphics/SVG/1.1/DTD/svg11.dtd">
<svg width="100%" height="100%" viewBox="0 0 32 32" version="1.1" xmlns="http://www.w3.org/2000/svg" xmlns:xlink="http://www.w3.org/1999/xlink" xml:space="preserve" xmlns:serif="http://www.serif.com/" style="fill-rule:evenodd;clip-rule:evenodd;stroke-linejoin:round;stroke-miterlimit:2;">
    <g transform="matrix(0.616991,0,0,0.616991,5.68268,6.12993)">
        <path d="M18.329,10.514C20.722,11.211 22.472,13.421 22.472,16.037C22.472,19.21 19.882,21.722 16.709,21.722C13.535,21.722 10.972,19.21 10.972,16.037C10.972,12.88 13.521,10.314 16.672,10.287L16.672,10.272C17.248,10.272 17.805,10.357 18.329,10.514ZM17.568,21.632C20.288,21.184 22.4,18.816 22.4,16C22.4,13.152 20.32,10.816 17.568,10.368C18.592,11.68 19.232,13.696 19.232,16C19.232,18.304 18.592,20.32 17.568,21.632Z"/>
    </g>
    <g transform="matrix(1,0,0,1,0,-0.32)">
        <path d="M16,11.008C18.944,11.008 21.312,13.408 21.312,16.32C21.312,19.264 18.944,21.632 16,21.632C13.056,21.632 10.688,19.232 10.688,16.32C10.688,13.376 13.088,11.008 16,11.008ZM16,19.84C17.952,19.84 19.52,18.272 19.52,16.32C19.52,14.368 17.952,12.8 16,12.8C14.048,12.8 12.48,14.368 12.48,16.32C12.48,18.272 14.048,19.84 16,19.84ZM16,9.792C15.488,9.792 15.104,9.376 15.104,8.896L15.104,7.584C15.104,7.072 15.52,6.688 16,6.688C16.512,6.688 16.896,7.104 16.896,7.584L16.896,8.896C16.896,9.408 16.512,9.792 16,9.792ZM10.112,11.712L9.184,10.784C8.832,10.432 8.832,9.856 9.184,9.504C9.536,9.152 10.112,9.152 10.464,9.504L11.392,10.432C11.744,10.784 11.744,11.36 11.392,11.712C11.2,11.872 10.976,11.968 10.752,11.968C10.528,11.968 10.304,11.872 10.112,11.712ZM9.472,16.32C9.472,16.832 9.088,17.216 8.576,17.216L7.264,17.216C6.752,17.216 6.368,16.8 6.368,16.32C6.368,15.808 6.784,15.424 7.264,15.424L8.576,15.424C9.088,15.424 9.472,15.84 9.472,16.32ZM10.112,20.928C10.464,20.576 11.04,20.576 11.392,20.928C11.744,21.28 11.744,21.856 11.392,22.208L10.464,23.136C10.272,23.296 10.048,23.392 9.824,23.392C9.6,23.392 9.376,23.296 9.184,23.136C8.832,22.784 8.832,22.208 9.184,21.856L10.112,20.928ZM16,22.848C16.512,22.848 16.896,23.264 16.896,23.744L16.896,25.056C16.896,25.568 16.512,25.952 16,25.952C15.488,25.952 15.104,25.536 15.104,25.056L15.104,23.744C15.104,23.232 15.52,22.848 16,22.848ZM21.888,20.928L22.816,21.856C23.168,22.208 23.168,22.784 22.816,23.136C22.624,23.296 22.4,23.392 22.176,23.392C21.952,23.392 21.728,23.296 21.536,23.136L20.608,22.208C20.256,21.856 20.256,21.28 20.608,20.928C20.96,20.576 21.536,20.576 21.888,20.928ZM24.736,15.424C25.248,15.424 25.632,15.84 25.632,16.32C25.632,16.832 25.248,17.216 24.736,17.216L23.424,17.216C22.912,17.216 22.528,16.8 22.528,16.32C22.528,15.808 22.944,15.424 23.424,15.424L24.736,15.424ZM21.248,11.968C21.024,11.968 20.8,11.872 20.608,11.712C20.256,11.36 20.256,10.784 20.608,10.432L21.536,9.504C21.888,9.152 22.464,9.152 22.816,9.504C23.168,9.856 23.168,10.432 22.816,10.784L21.888,11.712C21.696,11.872 21.472,11.968 21.248,11.968Z"/>
    </g>
</svg>
