<?xml version="1.0" encoding="UTF-8" standalone="no"?>
<!DOCTYPE svg PUBLIC "-//W3C//DTD SVG 1.1//EN" "http://www.w3.org/Graphics/SVG/1.1/DTD/svg11.dtd">
<svg width="100%" height="100%" viewBox="0 0 32 32" version="1.1" xmlns="http://www.w3.org/2000/svg" xmlns:xlink="http://www.w3.org/1999/xlink" xml:space="preserve" xmlns:serif="http://www.serif.com/" style="fill-rule:evenodd;clip-rule:evenodd;stroke-linejoin:round;stroke-miterlimit:2;">
    <g transform="matrix(0.778729,0,0,1,0.986632,0.0676032)">
        <path d="M21.032,15.624L9.257,15.622C8.777,15.589 8.424,15.188 8.424,14.728C8.424,14.216 8.84,13.832 9.32,13.832L21,13.832C21.512,13.832 21.896,14.248 21.896,14.728C21.928,15.208 21.512,15.624 21.032,15.624ZM28.709,18.429L17.829,18.429C17.253,18.429 16.82,18.013 16.82,17.533C16.82,17.021 17.289,16.637 17.829,16.637L28.709,16.637C29.285,16.637 29.717,17.053 29.717,17.533C29.717,18.013 29.249,18.429 28.709,18.429Z"/>
    </g>
    <g transform="matrix(1,0,0,1,0,-0.32)">
        <path d="M11.121,14.22C11.939,12.327 13.827,11.008 16,11.008C18.944,11.008 21.312,13.408 21.312,16.32L21.312,16.332C21.312,16.567 21.296,16.798 21.266,17.025L19.45,17.025C19.496,16.8 19.52,16.568 19.52,16.33L19.52,16.31C19.52,14.384 17.936,12.8 16.01,12.8L15.99,12.8C14.845,12.8 13.82,13.36 13.178,14.22L11.121,14.22ZM20.686,18.817C19.79,20.486 18.024,21.632 16.012,21.632L16,21.632C13.056,21.632 10.688,19.232 10.688,16.32C10.688,16.216 10.691,16.113 10.697,16.01L12.493,16.011C12.484,16.109 12.48,16.209 12.48,16.31L12.48,16.33C12.48,18.256 14.064,19.84 15.99,19.84L16.01,19.84C16.968,19.84 17.841,19.448 18.477,18.817L20.686,18.817ZM16.021,9.792L15.998,9.792C15.508,9.792 15.104,9.388 15.104,8.898L15.104,8.896L15.104,7.584C15.104,7.072 15.52,6.688 16,6.688C16.512,6.688 16.896,7.104 16.896,7.584L16.896,8.896L16.896,8.917C16.896,9.397 16.501,9.792 16.021,9.792ZM10.112,11.712L9.184,10.784C8.836,10.432 8.836,9.856 9.184,9.504C9.536,9.156 10.112,9.156 10.464,9.504L11.392,10.432C11.74,10.784 11.74,11.36 11.392,11.712C11.2,11.872 10.976,11.968 10.752,11.968C10.528,11.968 10.304,11.872 10.112,11.712ZM10.112,20.928C10.464,20.58 11.04,20.58 11.392,20.928C11.74,21.28 11.74,21.856 11.392,22.208L10.464,23.136C10.272,23.296 10.048,23.392 9.824,23.392C9.6,23.392 9.376,23.296 9.184,23.136C8.836,22.784 8.836,22.208 9.184,21.856L10.112,20.928ZM16,22.848C16.512,22.848 16.896,23.264 16.896,23.744L16.896,25.056L16.896,25.077C16.896,25.557 16.501,25.952 16.021,25.952L15.998,25.952C15.508,25.952 15.104,25.548 15.104,25.058L15.104,25.056L15.104,23.744C15.104,23.232 15.52,22.848 16,22.848ZM21.888,20.928L22.816,21.856C23.164,22.208 23.164,22.784 22.816,23.136C22.624,23.296 22.4,23.392 22.176,23.392C21.952,23.392 21.728,23.296 21.536,23.136L20.608,22.208C20.26,21.856 20.26,21.28 20.608,20.928C20.96,20.58 21.536,20.58 21.888,20.928ZM21.248,11.968C21.024,11.968 20.8,11.872 20.608,11.712C20.26,11.36 20.26,10.784 20.608,10.432L21.536,9.504C21.888,9.156 22.464,9.156 22.816,9.504C23.164,9.856 23.164,10.432 22.816,10.784L21.888,11.712C21.696,11.872 21.472,11.968 21.248,11.968Z"/>
    </g>
</svg>
