<?xml version="1.0" encoding="UTF-8" standalone="no"?>
<!DOCTYPE svg PUBLIC "-//W3C//DTD SVG 1.1//EN" "http://www.w3.org/Graphics/SVG/1.1/DTD/svg11.dtd">
<svg width="100%" height="100%" viewBox="0 0 32 32" version="1.1" xmlns="http://www.w3.org/2000/svg" xmlns:xlink="http://www.w3.org/1999/xlink" xml:space="preserve" xmlns:serif="http://www.serif.com/" style="fill-rule:evenodd;clip-rule:evenodd;stroke-linejoin:round;stroke-miterlimit:2;">
    <g transform="matrix(1,0,0,1,0.768,0.536)">
        <path d="M16.32,25.792C16.32,26.287 15.919,26.688 15.424,26.688C14.929,26.688 14.528,26.287 14.528,25.792C14.528,25.297 14.929,24.896 15.424,24.896C15.919,24.896 16.32,25.297 16.32,25.792ZM19.616,24.416C19.616,24.911 19.215,25.312 18.72,25.312C18.225,25.312 17.824,24.911 17.824,24.416C17.824,23.921 18.225,23.52 18.72,23.52C19.215,23.52 19.616,23.921 19.616,24.416ZM15.424,18.848C15.904,18.848 16.32,19.264 16.32,19.744L16.32,23.008C16.32,23.52 15.936,23.936 15.424,23.936C14.912,23.936 14.528,23.52 14.528,23.04L14.528,19.744C14.528,19.232 14.944,18.848 15.424,18.848ZM18.72,17.216C19.2,17.216 19.616,17.632 19.616,18.112L19.616,21.376C19.616,21.888 19.2,22.272 18.72,22.272C18.208,22.272 17.824,21.856 17.824,21.376L17.824,18.112C17.824,17.6 18.24,17.216 18.72,17.216Z"/>
    </g>
    <g transform="matrix(1,0,0,1,0.768,0.536)">
        <path d="M16.235,9.996C16.734,9.862 17.256,9.792 17.792,9.792C21.056,9.792 23.744,12.448 23.744,15.744L23.744,16.128C24.8,16.864 25.472,18.08 25.472,19.392C25.44,21.472 23.648,23.232 21.472,23.232C20.96,23.232 20.576,22.816 20.576,22.336C20.576,21.856 20.992,21.44 21.472,21.44C22.656,21.44 23.616,20.48 23.616,19.296C23.616,18.464 23.136,17.696 22.368,17.344C21.984,17.184 21.792,16.768 21.856,16.384C21.888,16.128 21.92,15.904 21.92,15.68C21.92,13.408 20.064,11.552 17.792,11.552C16.48,11.552 15.296,12.128 14.528,13.12C14.72,13.248 14.912,13.376 15.072,13.472C15.488,13.76 15.584,14.304 15.328,14.72C15.04,15.136 14.496,15.232 14.08,14.976C13.664,14.688 13.152,14.368 12.576,14.24C12.384,14.208 12.224,14.208 12.032,14.208C11.04,14.208 10.144,14.624 9.472,15.264C8.832,15.904 8.416,16.832 8.416,17.824C8.416,17.888 8.384,17.92 8.384,17.984C8.448,19.936 10.048,21.504 12.032,21.504C12.544,21.504 12.928,21.92 12.928,22.4C12.928,22.88 12.512,23.296 12.032,23.296C9.024,23.296 6.592,20.864 6.592,17.856L6.592,17.792C6.592,15.921 7.533,14.273 8.968,13.294C8.829,12.9 8.8,12.503 8.8,12.048C8.8,9.84 10.592,8.048 12.8,8.048C14.258,8.048 15.527,8.801 16.235,9.996ZM10.627,12.535C11.075,12.416 11.546,12.352 12.032,12.352C12.32,12.352 12.608,12.384 12.864,12.448C13.318,11.754 13.9,11.176 14.571,10.739C14.154,10.18 13.492,9.84 12.8,9.84C11.584,9.84 10.592,10.832 10.592,12.048C10.592,12.257 10.592,12.402 10.627,12.535ZM12.8,6.96C12.288,6.96 11.904,6.544 11.904,6.064L11.904,5.136C11.904,4.624 12.32,4.24 12.8,4.24C13.28,4.24 13.696,4.656 13.696,5.136L13.696,6.064C13.696,6.576 13.28,6.96 12.8,6.96ZM7.936,8.464L7.296,7.824C6.944,7.472 6.944,6.896 7.296,6.544C7.648,6.192 8.224,6.192 8.576,6.544L9.216,7.184C9.568,7.536 9.568,8.112 9.216,8.464C9.024,8.624 8.8,8.72 8.576,8.72C8.352,8.72 8.128,8.624 7.936,8.464ZM7.712,12.048C7.712,12.528 7.296,12.944 6.816,12.944L5.888,12.944C5.376,12.944 4.992,12.528 4.992,12.048C4.992,11.568 5.408,11.152 5.888,11.152L6.816,11.152C7.328,11.152 7.712,11.568 7.712,12.048ZM17.024,8.72C16.8,8.72 16.576,8.624 16.384,8.464C16.032,8.112 16.032,7.536 16.384,7.184L17.024,6.544C17.376,6.192 17.952,6.192 18.304,6.544C18.656,6.896 18.656,7.472 18.304,7.824L17.664,8.464C17.472,8.624 17.248,8.72 17.024,8.72Z"/>
    </g>
</svg>
