<?xml version="1.0" encoding="UTF-8" standalone="no"?>
<!DOCTYPE svg PUBLIC "-//W3C//DTD SVG 1.1//EN" "http://www.w3.org/Graphics/SVG/1.1/DTD/svg11.dtd">
<svg width="100%" height="100%" viewBox="0 0 32 32" version="1.1" xmlns="http://www.w3.org/2000/svg" xmlns:xlink="http://www.w3.org/1999/xlink" xml:space="preserve" xmlns:serif="http://www.serif.com/" style="fill-rule:evenodd;clip-rule:evenodd;stroke-linejoin:round;stroke-miterlimit:2;">
    <g transform="matrix(1,0,0,1,-0.014,2.788)">
        <path d="M23.2,20.96C23.712,20.96 24.096,21.376 24.096,21.856C24.096,22.336 23.68,22.752 23.2,22.752L11.776,22.752C11.264,22.752 10.88,22.336 10.88,21.856C10.88,21.376 11.296,20.96 11.776,20.96L23.2,20.96ZM25.28,18.688C25.792,18.688 26.176,19.104 26.176,19.584C26.176,20.064 25.792,20.48 25.28,20.48L9.088,20.48C8.576,20.48 8.192,20.064 8.192,19.584C8.192,19.104 8.608,18.688 9.088,18.688L25.28,18.688ZM25.792,17.312C25.792,17.792 25.408,18.208 24.896,18.208L7.904,18.208C7.392,18.208 7.008,17.792 7.008,17.312C7.008,16.832 7.424,16.416 7.904,16.416L24.896,16.416C25.408,16.416 25.792,16.832 25.792,17.312Z"/>
    </g>
    <g transform="matrix(1,0,0,1,-0.014,2.788)">
        <path d="M17.165,9.524C17.596,9.427 18.042,9.376 18.496,9.376C21.664,9.376 24.288,11.84 24.448,15.008C24.48,15.52 24.096,15.936 23.584,15.936C23.072,15.968 22.656,15.584 22.656,15.072C22.56,12.864 20.736,11.136 18.528,11.136C16.928,11.136 15.52,12.032 14.816,13.44C14.624,13.824 14.176,14.016 13.76,13.92C12.16,13.472 10.496,14.144 9.664,15.52C9.504,15.808 9.216,15.968 8.896,15.968C8.736,15.968 8.576,15.936 8.416,15.84C8,15.584 7.872,15.04 8.128,14.592C8.572,13.857 9.176,13.257 9.877,12.821C9.862,12.804 9.852,12.793 9.852,12.792C9.692,12.376 9.66,11.96 9.66,11.48C9.66,9.272 11.452,7.48 13.66,7.48C15.132,7.48 16.444,8.28 17.148,9.528C17.154,9.526 17.159,9.525 17.165,9.524ZM11.568,12.132C12.203,11.992 12.87,11.965 13.536,12.064C14.033,11.29 14.689,10.662 15.448,10.209C15.057,9.633 14.374,9.272 13.66,9.272C12.444,9.272 11.452,10.264 11.452,11.48C11.452,11.736 11.484,11.896 11.516,12.056C11.516,12.057 11.536,12.086 11.568,12.132ZM8.572,11.48C8.572,11.96 8.188,12.376 7.676,12.376L6.748,12.376C6.236,12.376 5.852,11.96 5.852,11.48C5.852,11 6.268,10.584 6.748,10.584L7.676,10.584C8.188,10.584 8.572,11 8.572,11.48ZM8.796,7.896L8.156,7.256C7.804,6.904 7.804,6.328 8.156,5.976C8.508,5.624 9.084,5.624 9.436,5.976L10.076,6.616C10.428,6.968 10.428,7.544 10.076,7.896C9.916,8.056 9.66,8.152 9.436,8.152C9.212,8.152 8.988,8.056 8.796,7.896ZM13.66,6.392C13.148,6.392 12.764,5.976 12.764,5.496L12.764,4.568C12.764,4.056 13.18,3.672 13.66,3.672C14.14,3.672 14.556,4.088 14.556,4.568L14.556,5.496C14.556,6.008 14.172,6.392 13.66,6.392ZM17.884,8.152C17.66,8.152 17.436,8.056 17.244,7.896C16.892,7.544 16.892,6.968 17.244,6.616L17.884,5.976C18.236,5.624 18.812,5.624 19.164,5.976C19.516,6.328 19.516,6.904 19.164,7.256L18.524,7.896C18.364,8.056 18.14,8.152 17.884,8.152Z"/>
    </g>
</svg>
