<?xml version="1.0" encoding="UTF-8" standalone="no"?>
<!DOCTYPE svg PUBLIC "-//W3C//DTD SVG 1.1//EN" "http://www.w3.org/Graphics/SVG/1.1/DTD/svg11.dtd">
<svg width="100%" height="100%" viewBox="0 0 32 32" version="1.1" xmlns="http://www.w3.org/2000/svg" xmlns:xlink="http://www.w3.org/1999/xlink" xml:space="preserve" xmlns:serif="http://www.serif.com/" style="fill-rule:evenodd;clip-rule:evenodd;stroke-linejoin:round;stroke-miterlimit:2;">
    <g transform="matrix(1,0,0,1,0.816,0.928)">
        <path d="M16.608,20.96C17.088,20.96 17.504,21.376 17.504,21.856L17.504,25.568C17.504,26.048 17.088,26.464 16.608,26.464C16.096,26.464 15.712,26.048 15.712,25.568L15.712,21.856C15.712,21.344 16.128,20.96 16.608,20.96ZM14.208,20.96C14.688,20.96 15.104,21.376 15.104,21.856L15.104,23.392C15.104,23.904 14.688,24.288 14.208,24.288C13.696,24.288 13.312,23.872 13.312,23.392L13.312,21.856C13.312,21.344 13.728,20.96 14.208,20.96ZM19.008,23.136C19.488,23.136 19.904,23.552 19.904,24.032L19.904,25.568C19.904,26.08 19.488,26.464 19.008,26.464C18.496,26.464 18.112,26.048 18.112,25.568L18.112,24.032C18.112,23.52 18.528,23.136 19.008,23.136ZM19.904,21.856C19.904,22.351 19.503,22.752 19.008,22.752C18.513,22.752 18.112,22.351 18.112,21.856C18.112,21.361 18.513,20.96 19.008,20.96C19.503,20.96 19.904,21.361 19.904,21.856ZM15.104,25.568C15.104,26.063 14.703,26.464 14.208,26.464C13.713,26.464 13.312,26.063 13.312,25.568C13.312,25.073 13.713,24.672 14.208,24.672C14.703,24.672 15.104,25.073 15.104,25.568Z"/>
    </g>
    <g transform="matrix(1,0,0,1,-0.624,0.832)">
        <path d="M25.152,15.776C26.208,16.512 26.88,17.728 26.88,19.04C26.816,21.088 25.056,22.88 22.88,22.88C22.368,22.88 21.984,22.464 21.984,21.984C21.984,21.504 22.4,21.088 22.88,21.088C24.064,21.088 25.024,20.128 25.024,18.944C25.024,18.112 24.544,17.344 23.776,16.992C23.392,16.832 23.2,16.416 23.264,16.032C23.296,15.776 23.328,15.552 23.328,15.328C23.328,13.056 21.472,11.2 19.2,11.2C17.888,11.2 16.736,11.808 15.968,12.768C16.128,12.864 16.288,12.992 16.448,13.088C16.864,13.376 16.96,13.92 16.704,14.336C16.416,14.752 15.872,14.848 15.456,14.592C15.104,14.368 14.624,14.08 14.144,13.92C13.92,13.888 13.664,13.856 13.44,13.856C11.424,13.856 9.792,15.488 9.792,17.504C9.792,19.52 11.424,21.152 13.44,21.152C13.952,21.152 14.336,21.568 14.336,22.048C14.336,22.528 13.92,22.944 13.44,22.944C10.464,22.944 8.096,20.608 8,17.664C8,17.568 7.968,17.504 7.968,17.408C7.968,15.52 8.928,13.888 10.368,12.896C10.208,12.48 10.176,12.064 10.176,11.584C10.176,9.376 11.968,7.584 14.176,7.584C15.648,7.584 16.96,8.384 17.664,9.632C18.176,9.504 18.688,9.44 19.2,9.44C22.464,9.44 25.152,12.096 25.152,15.392L25.152,15.776ZM13.408,11.968C13.696,11.968 14.016,12 14.272,12.064C14.72,11.36 15.328,10.816 16,10.368C15.616,9.76 14.912,9.376 14.176,9.376C12.96,9.376 11.968,10.368 11.968,11.584C11.968,11.84 12,12 12.032,12.16C12.448,12.032 12.928,11.968 13.408,11.968ZM14.176,6.496C13.664,6.496 13.28,6.08 13.28,5.6L13.28,4.672C13.28,4.16 13.696,3.776 14.176,3.776C14.656,3.776 15.072,4.192 15.072,4.672L15.072,5.6C15.072,6.112 14.688,6.496 14.176,6.496ZM9.312,8L8.672,7.36C8.32,7.008 8.32,6.432 8.672,6.08C9.024,5.728 9.6,5.728 9.952,6.08L10.592,6.72C10.944,7.072 10.944,7.648 10.592,8C10.432,8.16 10.176,8.256 9.952,8.256C9.728,8.256 9.504,8.16 9.312,8ZM9.088,11.584C9.088,12.064 8.704,12.48 8.192,12.48L7.264,12.48C6.752,12.48 6.368,12.064 6.368,11.584C6.368,11.104 6.784,10.688 7.264,10.688L8.192,10.688C8.704,10.688 9.088,11.104 9.088,11.584ZM18.4,8.256C18.176,8.256 17.952,8.16 17.76,8C17.408,7.648 17.408,7.072 17.76,6.72L18.4,6.08C18.752,5.728 19.328,5.728 19.68,6.08C20.032,6.432 20.032,7.008 19.68,7.36L19.04,8C18.88,8.16 18.656,8.256 18.4,8.256Z"/>
    </g>
</svg>
