<?xml version="1.0" encoding="UTF-8" standalone="no"?>
<!DOCTYPE svg PUBLIC "-//W3C//DTD SVG 1.1//EN" "http://www.w3.org/Graphics/SVG/1.1/DTD/svg11.dtd">
<svg width="100%" height="100%" viewBox="0 0 32 32" version="1.1" xmlns="http://www.w3.org/2000/svg" xmlns:xlink="http://www.w3.org/1999/xlink" xml:space="preserve" xmlns:serif="http://www.serif.com/" style="fill-rule:evenodd;clip-rule:evenodd;stroke-linejoin:round;stroke-miterlimit:2;">
    <g transform="matrix(1,0,0,1,0.032,1.424)">
        <path d="M18.432,18.272C18.08,17.984 17.6,17.984 17.28,18.272C17.024,18.464 14.848,20.352 14.848,22.656C14.848,24.32 16.192,25.664 17.856,25.664C19.52,25.664 20.864,24.32 20.864,22.656C20.864,20.352 18.688,18.464 18.432,18.272ZM17.856,23.872C17.184,23.872 16.64,23.328 16.64,22.656C16.64,21.76 17.312,20.832 17.856,20.192C18.432,20.832 19.072,21.76 19.072,22.656C19.072,23.328 18.528,23.872 17.856,23.872Z" style="fill-rule:nonzero;"/>
    </g>
    <g transform="matrix(1,0,0,1,0.416,0.272)">
        <path d="M24.384,17.056C25.44,17.792 26.112,19.008 26.144,20.32C26.08,22.528 24.32,24.288 22.144,24.288C21.632,24.288 21.248,23.872 21.248,23.392C21.248,22.912 21.664,22.496 22.144,22.496C23.328,22.496 24.288,21.536 24.288,20.352C24.288,19.52 23.808,18.752 23.04,18.4C22.656,18.24 22.464,17.824 22.528,17.44C22.56,17.184 22.592,16.96 22.592,16.736C22.592,14.464 20.736,12.608 18.464,12.608C17.184,12.608 15.968,13.184 15.2,14.176C15.392,14.304 15.584,14.432 15.744,14.528C16.16,14.816 16.256,15.36 16,15.776C15.712,16.192 15.168,16.288 14.752,16.032C14.336,15.744 13.824,15.424 13.248,15.296C13.056,15.264 12.896,15.264 12.704,15.264C11.68,15.264 10.784,15.68 10.144,16.32C9.504,16.96 9.12,17.856 9.12,18.848C9.12,18.912 9.088,18.944 9.088,18.976C9.152,20.928 10.752,22.496 12.704,22.496C13.216,22.496 13.6,22.912 13.6,23.392C13.6,23.872 13.184,24.288 12.704,24.288C9.696,24.288 7.264,21.856 7.264,18.848C7.264,18.656 7.296,18.496 7.296,18.336L7.296,18.24C7.296,18.08 7.328,17.952 7.36,17.792C7.36,17.728 7.392,17.696 7.392,17.664C7.424,17.504 7.456,17.344 7.488,17.216C7.488,17.184 7.52,17.152 7.52,17.12C7.552,17.024 7.616,16.896 7.648,16.8C7.68,16.736 7.68,16.704 7.712,16.64C7.776,16.544 7.808,16.416 7.872,16.32L8.064,15.936C8.128,15.84 8.224,15.712 8.288,15.616C8.32,15.584 8.32,15.552 8.352,15.52C8.672,15.104 9.024,14.752 9.408,14.464C8.928,13.792 8.832,13.184 8.832,12.448C8.832,10.24 10.624,8.448 12.832,8.448C14.528,8.448 16,9.472 16.576,11.04C17.184,10.848 17.792,10.752 18.432,10.752C21.696,10.752 24.384,13.408 24.384,16.704L24.384,17.056ZM13.472,13.44C13.888,12.832 14.4,12.288 14.976,11.872C14.976,11.84 14.944,11.84 14.944,11.808C14.656,10.88 13.792,10.24 12.832,10.24C11.616,10.24 10.624,11.232 10.624,12.448C10.624,12.96 10.688,13.184 10.88,13.472L10.976,13.664L11.264,13.568C11.328,13.568 11.392,13.536 11.456,13.536C11.552,13.504 11.616,13.472 11.712,13.472C11.776,13.472 11.872,13.44 11.968,13.44C12.032,13.44 12.096,13.408 12.16,13.408C12.352,13.376 12.512,13.376 12.672,13.376C12.928,13.376 13.184,13.408 13.472,13.44ZM12.832,7.36C12.32,7.36 11.936,6.944 11.936,6.464L11.936,5.536C11.936,5.024 12.352,4.64 12.832,4.64C13.312,4.64 13.728,5.056 13.728,5.536L13.728,6.464C13.728,6.944 13.312,7.36 12.832,7.36ZM7.968,8.864L7.328,8.224C6.976,7.872 6.976,7.296 7.328,6.944C7.68,6.592 8.256,6.592 8.608,6.944L9.248,7.584C9.6,7.936 9.6,8.512 9.248,8.864C9.056,9.024 8.832,9.12 8.608,9.12C8.384,9.12 8.16,9.024 7.968,8.864ZM7.744,12.416C7.744,12.896 7.36,13.344 6.848,13.344L5.92,13.344C5.408,13.344 5.024,12.928 5.024,12.448C5.024,11.968 5.44,11.52 5.92,11.52L6.848,11.52C7.36,11.52 7.744,11.936 7.744,12.416ZM17.056,9.12C16.832,9.12 16.608,9.024 16.416,8.864C16.064,8.512 16.064,7.936 16.416,7.584L17.056,6.944C17.408,6.592 17.984,6.592 18.336,6.944C18.688,7.296 18.688,7.872 18.336,8.224L17.696,8.864C17.504,9.024 17.28,9.12 17.056,9.12Z"/>
    </g>
</svg>
