<?xml version="1.0" encoding="UTF-8" standalone="no"?>
<!DOCTYPE svg PUBLIC "-//W3C//DTD SVG 1.1//EN" "http://www.w3.org/Graphics/SVG/1.1/DTD/svg11.dtd">
<svg width="100%" height="100%" viewBox="0 0 32 32" version="1.1" xmlns="http://www.w3.org/2000/svg" xmlns:xlink="http://www.w3.org/1999/xlink" xml:space="preserve" xmlns:serif="http://www.serif.com/" style="fill-rule:evenodd;clip-rule:evenodd;stroke-linejoin:round;stroke-miterlimit:2;">
    <g transform="matrix(1,0,0,1,0.979762,2.81325)">
        <path d="M19.093,22.691C18.596,22.692 18.192,22.289 18.192,21.792C18.191,21.296 18.594,20.892 19.091,20.891L22.574,20.888C23.07,20.887 23.474,21.29 23.474,21.787C23.475,22.284 23.072,22.687 22.575,22.688L19.093,22.691ZM13.453,22.688C12.957,22.688 12.553,22.285 12.553,21.788C12.553,21.291 12.957,20.888 13.453,20.888L16.745,20.888C17.242,20.888 17.645,21.291 17.645,21.788C17.645,22.285 17.242,22.688 16.745,22.688L13.453,22.688ZM11.144,20.926C11.641,20.926 12.045,21.329 12.045,21.826C12.045,22.323 11.641,22.727 11.144,22.727C10.647,22.727 10.243,22.323 10.243,21.826C10.243,21.329 10.647,20.926 11.144,20.926ZM16.55,18.615C17.048,18.615 17.451,19.018 17.451,19.515C17.451,20.012 17.048,20.416 16.55,20.416C16.053,20.416 15.65,20.012 15.65,19.515C15.65,19.018 16.053,18.615 16.55,18.615ZM24.282,16.345C24.779,16.345 25.182,16.749 25.182,17.246C25.182,17.743 24.779,18.146 24.282,18.146C23.785,18.146 23.381,17.743 23.381,17.246C23.381,16.749 23.785,16.345 24.282,16.345ZM18.892,20.408C18.395,20.408 17.992,20.004 17.992,19.508C17.992,19.011 18.395,18.608 18.892,18.608L24.664,18.608C25.161,18.608 25.564,19.011 25.564,19.508C25.564,20.004 25.161,20.408 24.664,20.408L18.892,20.408ZM8.518,20.408C8.022,20.408 7.618,20.004 7.618,19.508C7.618,19.011 8.022,18.608 8.518,18.608L14.25,18.608C14.746,18.608 15.15,19.011 15.15,19.508C15.15,20.004 14.746,20.408 14.25,20.408L8.518,20.408ZM19.336,18.168C18.839,18.168 18.436,17.765 18.436,17.268C18.436,16.771 18.839,16.368 19.336,16.368L21.944,16.368C22.441,16.368 22.844,16.771 22.844,17.268C22.844,17.765 22.441,18.168 21.944,18.168L19.336,18.168ZM7.286,18.168C6.789,18.168 6.386,17.765 6.386,17.268C6.386,16.771 6.789,16.368 7.286,16.368L17.011,16.368C17.507,16.368 17.911,16.771 17.911,17.268C17.911,17.765 17.507,18.168 17.011,18.168L7.286,18.168Z"/>
    </g>
    <g transform="matrix(1,0,0,1,-0.014,2.788)">
        <path d="M17.165,9.524C17.596,9.427 18.042,9.376 18.496,9.376C21.664,9.376 24.288,11.84 24.448,15.008C24.48,15.52 24.096,15.936 23.584,15.936C23.072,15.968 22.656,15.584 22.656,15.072C22.56,12.864 20.736,11.136 18.528,11.136C16.928,11.136 15.52,12.032 14.816,13.44C14.624,13.824 14.176,14.016 13.76,13.92C12.16,13.472 10.496,14.144 9.664,15.52C9.504,15.808 9.216,15.968 8.896,15.968C8.736,15.968 8.576,15.936 8.416,15.84C8,15.584 7.872,15.04 8.128,14.592C8.572,13.857 9.176,13.257 9.877,12.821C9.862,12.804 9.852,12.793 9.852,12.792C9.692,12.376 9.66,11.96 9.66,11.48C9.66,9.272 11.452,7.48 13.66,7.48C15.132,7.48 16.444,8.28 17.148,9.528C17.154,9.526 17.159,9.525 17.165,9.524ZM11.568,12.132C12.203,11.992 12.87,11.965 13.536,12.064C14.033,11.29 14.689,10.662 15.448,10.209C15.057,9.633 14.374,9.272 13.66,9.272C12.444,9.272 11.452,10.264 11.452,11.48C11.452,11.736 11.484,11.896 11.516,12.056C11.516,12.057 11.536,12.086 11.568,12.132ZM8.572,11.48C8.572,11.96 8.188,12.376 7.676,12.376L6.748,12.376C6.236,12.376 5.852,11.96 5.852,11.48C5.852,11 6.268,10.584 6.748,10.584L7.676,10.584C8.188,10.584 8.572,11 8.572,11.48ZM8.796,7.896L8.156,7.256C7.804,6.904 7.804,6.328 8.156,5.976C8.508,5.624 9.084,5.624 9.436,5.976L10.076,6.616C10.428,6.968 10.428,7.544 10.076,7.896C9.916,8.056 9.66,8.152 9.436,8.152C9.212,8.152 8.988,8.056 8.796,7.896ZM13.66,6.392C13.148,6.392 12.764,5.976 12.764,5.496L12.764,4.568C12.764,4.056 13.18,3.672 13.66,3.672C14.14,3.672 14.556,4.088 14.556,4.568L14.556,5.496C14.556,6.008 14.172,6.392 13.66,6.392ZM17.884,8.152C17.66,8.152 17.436,8.056 17.244,7.896C16.892,7.544 16.892,6.968 17.244,6.616L17.884,5.976C18.236,5.624 18.812,5.624 19.164,5.976C19.516,6.328 19.516,6.904 19.164,7.256L18.524,7.896C18.364,8.056 18.14,8.152 17.884,8.152Z"/>
    </g>
</svg>
