<?xml version="1.0" encoding="UTF-8" standalone="no"?>
<!DOCTYPE svg PUBLIC "-//W3C//DTD SVG 1.1//EN" "http://www.w3.org/Graphics/SVG/1.1/DTD/svg11.dtd">
<svg width="100%" height="100%" viewBox="0 0 32 32" version="1.1" xmlns="http://www.w3.org/2000/svg" xmlns:xlink="http://www.w3.org/1999/xlink" xml:space="preserve" xmlns:serif="http://www.serif.com/" style="fill-rule:evenodd;clip-rule:evenodd;stroke-linejoin:round;stroke-miterlimit:2;">
    <g transform="matrix(1,0,0,1,0.384,-0.032)">
        <path d="M8.352,13.12L8.032,12.864C7.68,12.512 7.68,11.936 8.032,11.584C8.384,11.232 8.96,11.232 9.312,11.584L9.6,11.872C9.76,11.712 10.016,11.584 10.272,11.584C10.784,11.584 11.2,11.968 11.2,12.48L11.2,13.792C11.2,14.272 10.784,14.72 10.272,14.72L8.96,14.72C8.48,14.72 8.064,14.304 8.064,13.792C8.064,13.536 8.16,13.28 8.352,13.12Z"/>
    </g>
    <g transform="matrix(1,0,0,1,0.384,-0.032)">
        <path d="M20.704,18.24L24.528,18.24C25.04,18.24 25.424,18.656 25.424,19.136C25.424,19.616 25.008,20.032 24.496,20.032L6.704,20.032C6.192,20.032 5.808,19.616 5.808,19.136C5.808,18.656 6.224,18.24 6.704,18.24L10.208,18.24C10.592,15.68 12.8,13.696 15.456,13.696C18.112,13.696 20.32,15.68 20.704,18.24ZM12.032,18.24L18.88,18.24C18.528,16.64 17.12,15.488 15.456,15.488C13.792,15.488 12.384,16.64 12.032,18.24ZM15.36,12.448C14.848,12.448 14.4,12.032 14.4,11.552L14.4,10.24C14.4,9.76 14.848,9.344 15.36,9.344C15.872,9.344 16.32,9.728 16.32,10.24L16.32,11.552C16.32,12.032 15.872,12.448 15.36,12.448ZM20.704,14.624C20.48,14.624 20.256,14.528 20.064,14.368C19.712,14.016 19.712,13.44 20.064,13.088L20.992,12.16C21.344,11.808 21.92,11.808 22.272,12.16C22.624,12.512 22.624,13.088 22.272,13.44L21.344,14.368C21.152,14.528 20.928,14.624 20.704,14.624ZM22.384,20.896C22.896,20.896 23.28,21.312 23.28,21.792C23.28,22.272 22.896,22.688 22.416,22.688L8.752,22.688C8.24,22.688 7.856,22.272 7.856,21.792C7.856,21.312 8.272,20.896 8.752,20.896L22.384,20.896Z"/>
    </g>
</svg>
