<?xml version="1.0" encoding="UTF-8" standalone="no"?>
<!DOCTYPE svg PUBLIC "-//W3C//DTD SVG 1.1//EN" "http://www.w3.org/Graphics/SVG/1.1/DTD/svg11.dtd">
<svg width="100%" height="100%" viewBox="0 0 32 32" version="1.1" xmlns="http://www.w3.org/2000/svg" xmlns:xlink="http://www.w3.org/1999/xlink" xml:space="preserve" xmlns:serif="http://www.serif.com/" style="fill-rule:evenodd;clip-rule:evenodd;stroke-linejoin:round;stroke-miterlimit:2;">
    <g transform="matrix(6.12323e-17,1,-1,6.12323e-17,27.5992,0.741866)">
        <path d="M13.728,5.952C13.216,5.952 12.832,5.536 12.832,5.056L12.832,4.128C12.832,3.616 13.248,3.232 13.728,3.232C14.208,3.232 14.624,3.648 14.624,4.128L14.624,5.056C14.624,5.568 14.208,5.952 13.728,5.952ZM6.816,11.936C6.304,11.936 5.92,11.52 5.92,11.04C5.92,10.56 6.336,10.144 6.816,10.144L7.744,10.144C8.256,10.144 8.64,10.56 8.64,11.04C8.64,11.52 8.256,11.936 7.744,11.936L6.816,11.936ZM8.864,7.456L8.224,6.816C7.872,6.464 7.872,5.888 8.224,5.536C8.576,5.184 9.152,5.184 9.504,5.536L10.144,6.176C10.496,6.528 10.496,7.104 10.144,7.456C9.952,7.616 9.728,7.712 9.504,7.712C9.28,7.712 9.056,7.616 8.864,7.456ZM17.952,7.712C17.728,7.712 17.504,7.616 17.312,7.456C16.96,7.104 16.96,6.528 17.312,6.176L17.952,5.536C18.304,5.184 18.88,5.184 19.232,5.536C19.584,5.888 19.584,6.464 19.232,6.816L18.592,7.456C18.4,7.616 18.176,7.712 17.952,7.712ZM19.521,11.936C19.009,11.936 18.625,11.52 18.625,11.04C18.625,10.56 19.041,10.144 19.521,10.144L20.449,10.144C20.961,10.144 21.345,10.56 21.345,11.04C21.345,11.52 20.961,11.936 20.449,11.936L19.521,11.936ZM11.692,10.977C11.692,11.529 11.244,11.977 10.692,11.977C10.14,11.977 9.692,11.529 9.692,10.977C9.692,8.778 11.475,6.994 13.668,6.994C15.862,6.994 17.644,8.778 17.644,10.977C17.644,11.529 17.196,11.977 16.644,11.977C16.092,11.977 15.644,11.529 15.644,10.977C15.644,9.883 14.76,8.994 13.668,8.994C12.577,8.994 11.692,9.883 11.692,10.977Z"/>
    </g>
    <g transform="matrix(1,0,0,1,-4.52724,-8.88178e-16)">
        <path d="M19.264,19.968C19.488,20.384 19.776,21.088 19.776,21.824C19.84,24.032 18.112,25.728 16,25.728C13.888,25.728 12.16,24 12.16,21.888C12.16,21.088 12.352,20.32 12.736,19.744L12.736,9.632C12.736,7.776 14.208,6.272 16,6.272C17.792,6.272 19.264,7.776 19.264,9.632L19.264,19.968ZM15.968,23.872C17.088,23.872 17.984,22.976 17.984,21.856C17.984,21.536 17.824,21.056 17.568,20.64C17.408,20.416 17.408,20.128 17.472,19.872L17.472,9.632C17.472,8.8 16.8,8.064 16,8.064C15.2,8.064 14.528,8.768 14.528,9.632L14.528,20.064C14.528,20.32 14.4,20.544 14.24,20.704C14.048,21.024 13.952,21.408 13.952,21.856C13.952,22.976 14.848,23.872 15.968,23.872ZM16,8.736C16.512,8.736 16.896,9.152 16.896,9.632L16.896,22.144C16.896,22.624 16.512,23.04 16,23.04C15.488,23.04 15.104,22.624 15.104,22.144L15.104,9.632C15.104,9.12 15.52,8.736 16,8.736Z"/>
    </g>
</svg>
