<?xml version="1.0" encoding="UTF-8" standalone="no"?>
<!DOCTYPE svg PUBLIC "-//W3C//DTD SVG 1.1//EN" "http://www.w3.org/Graphics/SVG/1.1/DTD/svg11.dtd">
<svg width="100%" height="100%" viewBox="0 0 32 32" version="1.1" xmlns="http://www.w3.org/2000/svg" xmlns:xlink="http://www.w3.org/1999/xlink" xml:space="preserve" xmlns:serif="http://www.serif.com/" style="fill-rule:evenodd;clip-rule:evenodd;stroke-linejoin:round;stroke-miterlimit:2;">
    <g transform="matrix(0.831292,0,0,0.831292,3.43212,0.0219724)">
        <path d="M22.625,10.566L22.629,10.564C23.13,10.259 23.821,10.452 24.09,10.946C24.398,11.448 24.205,12.142 23.704,12.413L23.188,12.709L23.47,12.786C24.048,12.94 24.392,13.517 24.238,14.094L24.238,14.097C24.108,14.561 23.687,14.889 23.204,14.9L23.2,14.9C23.117,14.9 22.995,14.896 22.872,14.824L20.538,14.209L18.727,15.264L20.602,16.35L22.93,15.73C23.507,15.576 24.084,15.92 24.238,16.498C24.392,17.075 24.048,17.652 23.474,17.805L23.22,17.878L23.704,18.146L23.711,18.15C24.21,18.457 24.397,19.111 24.092,19.611C23.907,19.945 23.552,20.152 23.17,20.148C22.977,20.155 22.787,20.101 22.626,19.994L22.149,19.729L22.221,19.982L22.222,19.986C22.376,20.563 22.032,21.14 21.454,21.294C21.439,21.298 21.424,21.3 21.408,21.3C21.312,21.3 21.248,21.332 21.184,21.332C20.694,21.335 20.263,20.999 20.146,20.526L19.525,18.199L17.684,17.144L17.684,19.221L19.392,20.929C19.808,21.349 19.81,22.034 19.4,22.455C19.204,22.687 18.935,22.772 18.624,22.772C18.36,22.772 18.095,22.663 17.868,22.475L17.856,22.464L17.684,22.292L17.684,22.848C17.684,23.425 17.223,23.924 16.608,23.924L16.606,23.924C16.017,23.924 15.532,23.439 15.532,22.85L15.532,22.848L15.532,7.808C15.532,7.193 16.031,6.732 16.608,6.732C17.223,6.732 17.684,7.231 17.684,7.808L17.684,8.364L17.857,8.192C18.279,7.774 18.969,7.774 19.391,8.192L19.392,8.193C19.81,8.615 19.81,9.305 19.392,9.727L17.684,11.435L17.684,13.416L19.525,12.361L20.145,10.067C20.266,9.595 20.695,9.262 21.182,9.262C21.274,9.262 21.365,9.274 21.454,9.298C22.031,9.451 22.376,10.029 22.222,10.606L22.221,10.612L22.156,10.827L22.625,10.566Z"/>
    </g>
    <g transform="matrix(1,0,0,1,-3.77174,0.65414)">
        <path d="M19.264,19.968C19.488,20.384 19.776,21.088 19.776,21.824C19.84,24.032 18.112,25.728 16,25.728C13.888,25.728 12.16,24 12.16,21.888C12.16,21.088 12.352,20.32 12.736,19.744L12.736,9.632C12.736,7.776 14.208,6.272 16,6.272C17.792,6.272 19.264,7.776 19.264,9.632L19.264,19.968ZM15.968,23.872C17.088,23.872 17.984,22.976 17.984,21.856C17.984,21.536 17.824,21.056 17.568,20.64C17.408,20.416 17.408,20.128 17.472,19.872L17.472,9.632C17.472,8.8 16.8,8.064 16,8.064C15.2,8.064 14.528,8.768 14.528,9.632L14.528,20.064C14.528,20.32 14.4,20.544 14.24,20.704C14.048,21.024 13.952,21.408 13.952,21.856C13.952,22.976 14.848,23.872 15.968,23.872ZM16,19.168C16.48,19.168 16.896,19.584 16.896,20.064L16.896,22.016C16.896,22.496 16.512,22.912 16,22.912C15.488,22.912 15.104,22.496 15.104,22.016L15.104,20.064C15.104,19.552 15.52,19.168 16,19.168Z"/>
    </g>
</svg>
