<?xml version="1.0" encoding="UTF-8" standalone="no"?>
<!DOCTYPE svg PUBLIC "-//W3C//DTD SVG 1.1//EN" "http://www.w3.org/Graphics/SVG/1.1/DTD/svg11.dtd">
<svg width="100%" height="100%" viewBox="0 0 32 32" version="1.1" xmlns="http://www.w3.org/2000/svg" xmlns:xlink="http://www.w3.org/1999/xlink" xml:space="preserve" xmlns:serif="http://www.serif.com/" style="fill-rule:evenodd;clip-rule:evenodd;stroke-linejoin:round;stroke-miterlimit:2;">
    <g transform="matrix(1,0,0,1,-0.384223,1.77636e-15)">
        <path d="M16.416,14.08C16.928,14.08 17.312,14.496 17.312,14.976L17.312,22.112C17.312,22.592 16.896,23.008 16.416,23.008C15.904,23.008 15.52,22.592 15.52,22.112L15.52,14.976C15.52,14.464 15.936,14.08 16.416,14.08Z"/>
    </g>
    <g transform="matrix(1,0,0,1,-0.384223,1.77636e-15)">
        <path d="M19.648,19.904C19.872,20.32 20.192,21.056 20.192,21.824C20.224,24.032 18.528,25.728 16.416,25.728C14.304,25.728 12.576,24 12.576,21.888C12.576,21.088 12.768,20.32 13.152,19.744L13.152,9.856C13.12,9.792 13.12,9.696 13.12,9.632C13.12,7.776 14.592,6.272 16.384,6.272C18.176,6.272 19.648,7.776 19.648,9.632L19.648,19.904ZM16.384,23.872C17.504,23.872 18.4,22.976 18.4,21.856C18.4,21.536 18.24,21.056 17.984,20.64C17.856,20.448 17.824,20.224 17.856,20L17.856,9.632C17.856,8.8 17.184,8.064 16.384,8.064C15.584,8.064 14.912,8.768 14.912,9.632L14.912,9.664C14.944,9.728 14.944,9.824 14.944,9.888L14.944,20.064C14.944,20.288 14.848,20.512 14.688,20.672C14.464,20.992 14.368,21.408 14.368,21.856C14.368,22.976 15.264,23.872 16.384,23.872Z"/>
    </g>
</svg>
