<?xml version="1.0" encoding="UTF-8" standalone="no"?>
<!DOCTYPE svg PUBLIC "-//W3C//DTD SVG 1.1//EN" "http://www.w3.org/Graphics/SVG/1.1/DTD/svg11.dtd">
<svg width="100%" height="100%" viewBox="0 0 32 32" version="1.1" xmlns="http://www.w3.org/2000/svg" xmlns:xlink="http://www.w3.org/1999/xlink" xml:space="preserve" xmlns:serif="http://www.serif.com/" style="fill-rule:evenodd;clip-rule:evenodd;stroke-linejoin:round;stroke-miterlimit:2;">
    <path d="M15.096,16.427C15.038,16.3 15.005,16.16 15.005,16.011L15.005,10.17C15.005,9.619 15.453,9.17 16.005,9.17C16.557,9.17 17.005,9.619 17.005,10.17L17.005,15.62L19.65,18.265C20.04,18.655 20.04,19.289 19.65,19.679C19.26,20.069 18.626,20.069 18.236,19.679L15.316,16.76C15.218,16.662 15.145,16.548 15.096,16.427Z"/>
    <g transform="matrix(1,0,0,1,0.16967,0.11944)">
        <path d="M15.83,5.879C21.35,5.879 25.832,10.36 25.832,15.881C25.832,21.401 21.35,25.882 15.83,25.882C10.31,25.882 5.829,21.401 5.829,15.881C5.829,10.36 10.31,5.879 15.83,5.879ZM15.83,7.879C11.414,7.879 7.829,11.464 7.829,15.881C7.829,20.297 11.414,23.882 15.83,23.882C20.247,23.882 23.832,20.297 23.832,15.881C23.832,11.464 20.247,7.879 15.83,7.879Z"/>
    </g>
</svg>
