<?xml version="1.0" encoding="UTF-8" standalone="no"?>
<!DOCTYPE svg PUBLIC "-//W3C//DTD SVG 1.1//EN" "http://www.w3.org/Graphics/SVG/1.1/DTD/svg11.dtd">
<svg width="100%" height="100%" viewBox="0 0 32 32" version="1.1" xmlns="http://www.w3.org/2000/svg" xmlns:xlink="http://www.w3.org/1999/xlink" xml:space="preserve" xmlns:serif="http://www.serif.com/" style="fill-rule:evenodd;clip-rule:evenodd;stroke-linejoin:round;stroke-miterlimit:2;">
    <g transform="matrix(1,0,0,1,0.561182,8.50084)">
        <path d="M21.226,9.606C21.769,9.505 22.292,9.863 22.393,10.405C22.494,10.948 22.136,11.471 21.593,11.572C20.039,11.862 18.028,12.039 15.832,12.039C13.576,12.039 11.514,11.852 9.943,11.547C9.401,11.443 9.046,10.917 9.151,10.376C9.256,9.834 9.781,9.479 10.323,9.584C11.793,9.869 13.721,10.039 15.832,10.039C17.888,10.039 19.772,9.877 21.226,9.606Z"/>
    </g>
    <g transform="matrix(1,0,0,1,0.167759,-0.651623)">
        <path d="M15.832,6.247C19.336,6.247 22.375,6.712 23.885,7.352C25.015,7.83 25.458,8.567 25.458,9.143L25.413,9.499L25.293,9.813L25.036,10.183C24.952,10.276 24.852,10.368 24.735,10.458C24.155,10.904 22.959,11.336 21.344,11.617C19.827,11.88 17.913,12.039 15.832,12.039C12.329,12.039 9.29,11.575 7.78,10.935C6.65,10.456 6.207,9.72 6.207,9.143C6.207,8.567 6.65,7.83 7.78,7.352C9.29,6.712 12.329,6.247 15.832,6.247ZM8.723,9.143C8.862,9.203 9.013,9.261 9.159,9.305C10.664,9.756 13.094,10.039 15.832,10.039C17.783,10.039 19.579,9.893 21.002,9.646C21.792,9.509 22.46,9.344 22.961,9.151C22.816,9.089 22.658,9.028 22.506,8.982C21,8.531 18.57,8.247 15.832,8.247C13.094,8.247 10.664,8.531 9.159,8.982C9.013,9.026 8.862,9.083 8.723,9.143ZM23.1,12.238C23.609,12.023 24.196,12.262 24.411,12.77C24.625,13.279 24.387,13.866 23.879,14.081C22.367,14.719 19.331,15.182 15.832,15.182C12.428,15.182 9.463,14.746 7.918,14.135C7.405,13.932 7.153,13.35 7.356,12.837C7.56,12.324 8.141,12.072 8.654,12.275C10.054,12.829 12.747,13.182 15.832,13.182C18.99,13.182 21.736,12.814 23.1,12.238ZM22.277,15.61C22.811,15.47 23.358,15.79 23.498,16.324C23.637,16.858 23.317,17.405 22.783,17.545C21.14,17.974 18.677,18.254 15.926,18.254C13.084,18.254 10.55,17.955 8.907,17.501C8.375,17.354 8.062,16.803 8.209,16.271C8.356,15.739 8.907,15.426 9.439,15.573C10.957,15.993 13.3,16.254 15.926,16.254C18.474,16.254 20.755,16.007 22.277,15.61ZM21.636,21.839C22.182,21.761 22.689,22.141 22.767,22.688C22.844,23.234 22.464,23.741 21.917,23.819C20.529,24.016 18.876,24.131 17.101,24.131C15.36,24.131 13.734,24.02 12.362,23.829C11.816,23.753 11.434,23.248 11.51,22.701C11.586,22.155 12.091,21.772 12.638,21.848C13.93,22.028 15.461,22.131 17.101,22.131C18.772,22.131 20.329,22.024 21.636,21.839ZM21.861,24.896C22.41,24.841 22.9,25.243 22.954,25.793C23.008,26.342 22.606,26.832 22.057,26.886C20.952,26.995 19.726,27.056 18.437,27.056C16.767,27.056 15.204,26.954 13.869,26.777C13.322,26.705 12.936,26.202 13.009,25.655C13.081,25.107 13.584,24.722 14.131,24.794C15.389,24.961 16.863,25.056 18.437,25.056C19.656,25.056 20.815,24.999 21.861,24.896Z"/>
    </g>
</svg>
