<?xml version="1.0" encoding="UTF-8" standalone="no"?>
<!DOCTYPE svg PUBLIC "-//W3C//DTD SVG 1.1//EN" "http://www.w3.org/Graphics/SVG/1.1/DTD/svg11.dtd">
<svg width="100%" height="100%" viewBox="0 0 32 32" version="1.1" xmlns="http://www.w3.org/2000/svg" xmlns:xlink="http://www.w3.org/1999/xlink" xml:space="preserve" xmlns:serif="http://www.serif.com/" style="fill-rule:evenodd;clip-rule:evenodd;stroke-linejoin:round;stroke-miterlimit:2;">
    <g transform="matrix(1,0,0,1,-0.0194022,1)">
        <path d="M15.019,13.318C15.019,12.766 15.467,12.318 16.019,12.318C16.571,12.318 17.019,12.766 17.019,13.318L17.019,17.211C17.019,17.763 16.571,18.211 16.019,18.211C15.467,18.211 15.019,17.763 15.019,17.211L15.019,13.318ZM16.019,18.7C16.561,18.7 17.001,19.14 17.001,19.681C17.001,20.223 16.561,20.663 16.019,20.663C15.478,20.663 15.038,20.223 15.038,19.681C15.038,19.14 15.478,18.7 16.019,18.7Z"/>
    </g>
    <g transform="matrix(1,0,0,1,-0.741117,0.178344)">
        <path d="M17.612,7.822L26.09,22.838C26.265,23.147 26.262,23.526 26.083,23.833C25.904,24.14 25.575,24.329 25.219,24.329L8.263,24.329C7.907,24.329 7.579,24.14 7.399,23.833C7.22,23.526 7.217,23.147 7.392,22.838L15.87,7.822C16.048,7.508 16.38,7.314 16.741,7.314C17.102,7.314 17.435,7.508 17.612,7.822ZM16.741,10.348L9.976,22.329L23.506,22.329L16.741,10.348Z"/>
    </g>
</svg>
