<?xml version="1.0" encoding="UTF-8" standalone="no"?>
<!DOCTYPE svg PUBLIC "-//W3C//DTD SVG 1.1//EN" "http://www.w3.org/Graphics/SVG/1.1/DTD/svg11.dtd">
<svg width="100%" height="100%" viewBox="0 0 32 32" version="1.1" xmlns="http://www.w3.org/2000/svg" xmlns:xlink="http://www.w3.org/1999/xlink" xml:space="preserve" xmlns:serif="http://www.serif.com/" style="fill-rule:evenodd;clip-rule:evenodd;stroke-linejoin:round;stroke-miterlimit:2;">
    <g transform="matrix(1,0,0,1,0.8835,-3.5075)">
        <path d="M22.656,13.198C24.828,13.198 26.578,14.948 26.578,17.12C26.578,19.292 24.828,21.042 22.656,21.042L8.192,21.042C7.651,21.042 7.246,20.603 7.246,20.096C7.246,19.555 7.685,19.15 8.192,19.15L22.656,19.15C23.78,19.15 24.686,18.244 24.686,17.12C24.686,15.996 23.78,15.09 22.656,15.09C21.532,15.09 20.626,15.996 20.626,17.12C20.626,17.661 20.187,18.066 19.68,18.066C19.139,18.066 18.734,17.627 18.734,17.12C18.734,14.948 20.484,13.198 22.656,13.198Z"/>
    </g>
    <g transform="matrix(1,0,0,1,0.8835,-3.5075)">
        <path d="M17.529,16.493C17.529,17.627 16.59,18.566 15.456,18.566L4.576,18.566C4.05,18.566 3.655,18.138 3.655,17.645C3.655,17.119 4.083,16.724 4.576,16.724L15.456,16.724C15.571,16.724 15.687,16.637 15.687,16.493C15.687,16.378 15.6,16.262 15.456,16.262C14.93,16.262 14.535,15.834 14.535,15.341C14.535,14.848 14.963,14.42 15.456,14.42C16.59,14.42 17.529,15.359 17.529,16.493ZM19.328,21.671C20.462,21.671 21.401,22.61 21.401,23.744C21.401,24.878 20.494,25.817 19.328,25.817C18.802,25.817 18.407,25.389 18.407,24.896C18.407,24.403 18.835,23.975 19.328,23.975C19.443,23.975 19.559,23.888 19.559,23.744C19.559,23.672 19.538,23.613 19.498,23.574C19.459,23.534 19.4,23.513 19.328,23.513L11.168,23.513C10.642,23.513 10.247,23.085 10.247,22.592C10.247,22.099 10.675,21.671 11.168,21.671L19.328,21.671Z"/>
    </g>
</svg>
