<?xml version="1.0" encoding="utf-8"?>
<!-- Generated by IcoMoon.io -->
<!DOCTYPE svg PUBLIC "-//W3C//DTD SVG 1.1//EN" "http://www.w3.org/Graphics/SVG/1.1/DTD/svg11.dtd">
<svg version="1.1" xmlns="http://www.w3.org/2000/svg" xmlns:xlink="http://www.w3.org/1999/xlink" width="32" height="32" viewBox="0 0 32 32">
<path fill="#000" d="M16 8.32c-4.576 0-8.288 3.712-8.288 8.288s3.712 8.288 8.288 8.288c4.576 0 8.288-3.712 8.288-8.288s-3.712-8.288-8.288-8.288zM16 10.112c3.584 0 6.496 2.976 6.496 6.592 0 0.736-0.128 1.248-0.352 2.208h-1.664c0.256-0.64 0.416-1.28 0.48-1.92h0.256c0.512 0 0.896-0.448 0.896-0.96s-0.416-0.96-0.896-0.96h-0.448c-0.192-0.64-0.48-1.12-0.896-1.6l0.288-0.32c0.32-0.384 0.256-0.928-0.096-1.248-0.384-0.32-0.96-0.256-1.28 0.128l-0.256 0.352c-0.512-0.32-0.928-0.544-1.568-0.64v-0.352c0-0.512-0.448-0.896-0.96-0.896s-0.96 0.416-0.96 0.896v0.352c-0.64 0.096-1.056 0.288-1.536 0.576l-0.192-0.192c-0.352-0.352-0.928-0.352-1.28 0s-0.352 0.928 0 1.28l0.128 0.032c-0.384 0.48-0.704 0.96-0.896 1.6h-0.448c-0.512 0-0.896 0.448-0.896 0.96s0.416 0.96 0.896 0.96h0.256c0.032 0.64 0.192 1.28 0.48 1.92h-1.664c-0.224-0.96-0.352-1.44-0.352-2.208-0.032-3.584 2.88-6.56 6.464-6.56zM13.696 18.88c-0.512-0.64-0.832-1.408-0.832-2.208 0-1.728 1.408-3.168 3.136-3.168 0.448 0 0.896 0.096 1.28 0.256l-1.216 1.472c-0.032 0-0.032 0-0.064 0-0.8 0-1.472 0.672-1.472 1.472s0.672 1.472 1.472 1.472 1.472-0.672 1.472-1.472c0-0.096 0-0.224-0.032-0.32l1.216-1.44c0.32 0.48 0.512 1.152 0.512 1.76 0 0.8-0.288 1.568-0.832 2.208h-4.64zM16 23.072c-2.112 0-4-0.992-5.184-2.592h10.336c-1.152 1.6-3.040 2.592-5.152 2.592z"></path>
</svg>
