<?xml version="1.0" encoding="utf-8"?>
<!-- Generated by IcoMoon.io -->
<!DOCTYPE svg PUBLIC "-//W3C//DTD SVG 1.1//EN" "http://www.w3.org/Graphics/SVG/1.1/DTD/svg11.dtd">
<svg version="1.1" xmlns="http://www.w3.org/2000/svg" xmlns:xlink="http://www.w3.org/1999/xlink" width="32" height="32" viewBox="0 0 32 32">
<path fill="#000" d="M24.32 20.576c-0.288 0-0.48 0.096-0.672 0.352-0.96 1.312-2.176 2.112-3.904 2.112-3.040 0-4.864-2.4-4.864-5.536 0-3.168 1.824-5.568 4.736-5.568 1.952 0 3.104 1.056 4.064 2.208 0.16 0.224 0.416 0.32 0.672 0.32 0.352 0 0.864-0.288 0.864-0.864 0-0.288-0.128-0.64-0.384-1.024-0.608-0.832-2.336-2.464-5.216-2.464-3.872 0-6.656 2.976-6.656 7.392 0 4.448 2.752 7.392 6.656 7.392 2.944 0 4.576-1.76 5.248-2.656 0.224-0.288 0.256-0.576 0.256-0.8 0-0.416-0.352-0.864-0.8-0.864z"></path>
<path fill="#000" d="M8.992 10.208c-1.632 0-2.848 1.344-2.848 3.104 0 1.824 1.216 3.104 2.848 3.104 1.696 0 2.88-1.28 2.88-3.104 0-1.76-1.184-3.104-2.88-3.104zM8.992 15.136c-1.056 0-1.568-0.928-1.568-1.824 0-0.832 0.512-1.792 1.568-1.824 1.088 0 1.6 0.96 1.6 1.824 0 0.896-0.512 1.824-1.6 1.824z"></path>
</svg>
