<?xml version="1.0" encoding="utf-8"?>
<!-- Generated by IcoMoon.io -->
<!DOCTYPE svg PUBLIC "-//W3C//DTD SVG 1.1//EN" "http://www.w3.org/Graphics/SVG/1.1/DTD/svg11.dtd">
<svg version="1.1" xmlns="http://www.w3.org/2000/svg" xmlns:xlink="http://www.w3.org/1999/xlink" width="32" height="32" viewBox="0 0 32 32">
<path fill="#000" d="M23.712 14.528c0-0.128 0-0.256 0-0.384 0-3.296-2.688-5.952-5.952-5.952-1.984 0-3.808 0.96-4.928 2.624-0.256-0.064-0.544-0.096-0.832-0.096-3.008 0-5.44 2.432-5.44 5.44 0 0 0 0.032 0 0.032 0 0.032 0 0.032 0 0.064 0 3.008 2.432 5.44 5.44 5.44 0.48 0 0.896-0.416 0.896-0.896s-0.384-0.896-0.896-0.896c-1.984 0-3.584-1.568-3.648-3.552 0-0.064 0.032-0.096 0.032-0.16 0-0.608 0.16-1.184 0.416-1.696 0.608-1.12 1.824-1.888 3.2-1.888 0.256 0 0.576 0.032 0.832 0.096 0.448 0.16 0.896 0.416 1.216 0.64 0.416 0.256 0.96 0.16 1.248-0.256 0.256-0.416 0.16-0.96-0.256-1.248-0.16-0.096-0.32-0.224-0.512-0.32 0.768-0.96 1.952-1.568 3.232-1.568 2.272 0 4.128 1.856 4.128 4.128 0 0.224-0.032 0.448-0.064 0.704-0.064 0.384 0.128 0.8 0.512 0.96 0.768 0.352 1.248 1.12 1.248 1.952 0 1.184-0.96 2.144-2.144 2.144-0.48 0-0.896 0.416-0.896 0.896s0.384 0.896 0.896 0.896c2.176 0 3.968-1.792 4-3.84 0-1.312-0.672-2.528-1.728-3.264z"></path>
<path fill="#000" d="M17.184 15.584c-0.352-0.352-0.928-0.352-1.28 0l-2.4 2.4c-0.352 0.352-0.352 0.928 0 1.28s0.928 0.352 1.28 0l0.896-0.896v4.352c0 0.48 0.384 0.896 0.896 0.896 0.48 0 0.896-0.416 0.896-0.896v-4.288l0.832 0.832c0.192 0.16 0.416 0.256 0.64 0.256 0.256 0 0.48-0.096 0.64-0.256 0.352-0.352 0.352-0.928 0-1.28l-2.4-2.4z"></path>
</svg>
