<?xml version="1.0" encoding="utf-8"?>
<!-- Generated by IcoMoon.io -->
<!DOCTYPE svg PUBLIC "-//W3C//DTD SVG 1.1//EN" "http://www.w3.org/Graphics/SVG/1.1/DTD/svg11.dtd">
<svg version="1.1" xmlns="http://www.w3.org/2000/svg" xmlns:xlink="http://www.w3.org/1999/xlink" width="32" height="32" viewBox="0 0 32 32">
<path fill="#000" d="M24.832 16.64c0-0.128 0-0.256 0-0.384 0-3.296-2.688-5.952-5.952-5.952-1.984 0-3.84 0.96-4.928 2.624-0.288-0.064-0.576-0.096-0.864-0.096-3.008 0-5.44 2.432-5.44 5.44 0 0.128 0.032 0.256 0.096 0.384 0.128 0.352 0.448 0.608 0.832 0.608 0.48 0 0.896-0.384 0.896-0.896 0-2.016 1.632-3.648 3.648-3.648 0.224 0 0.48 0.032 0.704 0.064 0.48 0.16 0.96 0.448 1.312 0.672 0.416 0.256 0.96 0.16 1.248-0.256 0.256-0.416 0.16-0.96-0.256-1.248-0.16-0.096-0.32-0.224-0.48-0.32 0.768-0.992 1.952-1.568 3.232-1.568 2.272 0 4.128 1.856 4.128 4.128 0 0.224-0.032 0.448-0.064 0.704-0.064 0.384 0.128 0.8 0.512 0.96 0.768 0.352 1.248 1.12 1.248 1.952 0 1.184-0.96 2.144-2.144 2.144h-1.024c-0.48 0-0.896 0.384-0.896 0.896 0 0.48 0.384 0.896 0.896 0.896h1.024c2.176 0 3.936-1.792 4-3.84 0-1.312-0.672-2.528-1.728-3.264z"></path>
<path fill="#000" d="M17.472 19.424c0-1.12-0.928-2.048-2.048-2.048-0.48 0-0.896 0.416-0.896 0.896s0.384 0.896 0.896 0.896c0.16 0 0.256 0.128 0.256 0.256 0 0.16-0.128 0.256-0.256 0.256h-10.88c-0.48 0-0.896 0.384-0.896 0.896 0 0.48 0.384 0.896 0.896 0.896h10.88c1.12 0 2.048-0.928 2.048-2.048z"></path>
<path fill="#000" d="M18.144 21.92c-0.064 0-0.16 0-0.224 0.032h-10.656c-0.48 0-0.896 0.384-0.896 0.896 0 0.48 0.384 0.896 0.896 0.896h10.88c0.032 0 0.064 0 0.096 0 0.096 0.032 0.16 0.128 0.16 0.224 0 0.16-0.128 0.256-0.256 0.256-0.48 0-0.896 0.416-0.896 0.896s0.384 0.896 0.896 0.896c1.12 0 2.048-0.896 2.048-2.048 0-1.12-0.928-2.048-2.048-2.048z"></path>
</svg>
