<?xml version="1.0" encoding="utf-8"?>
<!-- Generated by IcoMoon.io -->
<!DOCTYPE svg PUBLIC "-//W3C//DTD SVG 1.1//EN" "http://www.w3.org/Graphics/SVG/1.1/DTD/svg11.dtd">
<svg version="1.1" xmlns="http://www.w3.org/2000/svg" xmlns:xlink="http://www.w3.org/1999/xlink" width="32" height="32" viewBox="0 0 32 32">
<path fill="#000" d="M23.392 15.584c0-0.128 0-0.256 0-0.384 0-3.296-2.688-5.952-5.952-5.952-2.016 0-3.872 0.992-4.96 2.688-0.256-0.064-0.512-0.096-0.8-0.096-3.008 0-5.44 2.432-5.44 5.44 0 0 0 0 0 0s0 0 0 0.032c0 3.008 2.432 5.44 5.44 5.44h9.472c2.176 0 3.936-1.76 3.968-3.904 0-1.312-0.672-2.528-1.728-3.264zM21.152 20.992h-9.472c-1.984 0-3.584-1.568-3.648-3.52 0-0.064 0.032-0.096 0.032-0.16 0-0.992 0.416-1.92 1.056-2.56 0.672-0.64 1.568-1.056 2.56-1.056 0.224 0 0.48 0.032 0.736 0.096 0.032 0 0.064 0.032 0.096 0.032s0.064 0.032 0.096 0.032c0.416 0.16 0.832 0.416 1.12 0.608 0.416 0.256 0.96 0.16 1.248-0.256 0.256-0.416 0.16-0.96-0.256-1.248-0.128-0.096-0.32-0.192-0.48-0.32 0.768-0.96 1.952-1.536 3.232-1.536 2.272 0 4.128 1.856 4.128 4.128 0 0.224-0.032 0.448-0.064 0.704-0.064 0.384 0.128 0.8 0.512 0.96 0.768 0.352 1.248 1.12 1.248 1.952 0 1.184-0.96 2.144-2.144 2.144z"></path>
</svg>
