<?xml version="1.0" encoding="utf-8"?>
<!-- Generated by IcoMoon.io -->
<!DOCTYPE svg PUBLIC "-//W3C//DTD SVG 1.1//EN" "http://www.w3.org/Graphics/SVG/1.1/DTD/svg11.dtd">
<svg version="1.1" xmlns="http://www.w3.org/2000/svg" xmlns:xlink="http://www.w3.org/1999/xlink" width="32" height="32" viewBox="0 0 32 32">
<path fill="#000" d="M24.8 15.552c0-0.096 0-0.224 0-0.352 0-3.264-2.656-5.92-5.92-5.92-2.048 0-3.904 1.024-4.96 2.656-0.288-0.032-0.544-0.064-0.8-0.064-3.008 0-5.44 2.432-5.44 5.44s2.432 5.44 5.44 5.44c0.48 0 0.896-0.384 0.896-0.896 0-0.48-0.384-0.896-0.896-0.896-1.952 0-3.552-1.536-3.616-3.52 0-0.032 0.032-0.096 0.032-0.128 0-0.992 0.384-1.888 1.024-2.528s1.536-1.056 2.56-1.056c0.192 0 0.352 0 0.544 0.032 0.576 0.128 1.088 0.448 1.504 0.736 0.416 0.256 0.96 0.16 1.248-0.256 0.256-0.416 0.16-0.96-0.256-1.248-0.16-0.096-0.352-0.224-0.544-0.352 0.768-0.992 1.984-1.568 3.264-1.568 2.272 0 4.128 1.856 4.128 4.128 0 0.224-0.032 0.448-0.064 0.704-0.064 0.384 0.128 0.8 0.512 0.96 0.768 0.352 1.248 1.12 1.248 1.952 0 1.184-0.96 2.144-2.144 2.144-0.48 0-0.896 0.384-0.896 0.896 0 0.48 0.384 0.896 0.896 0.896 2.176 0 3.936-1.76 3.968-3.968 0-1.28-0.672-2.496-1.728-3.232z"></path>
<path fill="#000" d="M20.832 20.128c-0.224-0.416-0.8-0.576-1.216-0.32l-0.864 0.512v-0.992c0-0.48-0.384-0.896-0.896-0.896-0.48 0-0.896 0.384-0.896 0.896v0.992l-0.864-0.512c-0.416-0.256-0.96-0.096-1.216 0.32s-0.096 0.96 0.32 1.216l0.896 0.512-0.896 0.512c-0.416 0.224-0.576 0.8-0.32 1.216 0.16 0.288 0.448 0.448 0.768 0.448 0.16 0 0.288-0.032 0.448-0.128l0.864-0.512v1.024c0 0.48 0.384 0.896 0.896 0.896 0.48 0 0.896-0.384 0.896-0.896v-1.024l0.864 0.512c0.128 0.096 0.288 0.128 0.448 0.128 0.32 0 0.608-0.16 0.768-0.448 0.256-0.416 0.096-0.96-0.32-1.216l-0.896-0.512 0.896-0.512c0.416-0.224 0.576-0.8 0.32-1.216z"></path>
</svg>
