<?xml version="1.0" encoding="utf-8"?>
<!-- Generated by IcoMoon.io -->
<!DOCTYPE svg PUBLIC "-//W3C//DTD SVG 1.1//EN" "http://www.w3.org/Graphics/SVG/1.1/DTD/svg11.dtd">
<svg version="1.1" xmlns="http://www.w3.org/2000/svg" xmlns:xlink="http://www.w3.org/1999/xlink" width="32" height="32" viewBox="0 0 32 32">
<path fill="#000" d="M23.552 14.432c0-0.128 0-0.256 0-0.384 0-3.296-2.688-5.952-5.952-5.952-2.016 0-3.872 1.024-4.96 2.688-0.256-0.064-0.512-0.096-0.768-0.096-1.504 0-2.88 0.608-3.872 1.6s-1.6 2.336-1.6 3.872c0 3.008 2.432 5.44 5.44 5.44 0.48 0 0.896-0.384 0.896-0.896 0-0.48-0.384-0.896-0.896-0.896-1.92 0-3.52-1.504-3.616-3.456 0.032-0.064 0.032-0.16 0.064-0.224 0-0.992 0.384-1.856 1.024-2.528 0.64-0.64 1.536-1.024 2.528-1.024 0.288 0 0.64 0.032 0.928 0.128 0.448 0.16 0.832 0.416 1.152 0.608 0.416 0.256 0.96 0.16 1.248-0.256 0.256-0.416 0.16-0.96-0.256-1.248-0.16-0.096-0.352-0.224-0.544-0.352 0.8-0.96 1.952-1.536 3.232-1.536 2.304 0 4.16 1.856 4.16 4.128 0 0.224-0.032 0.448-0.064 0.704-0.064 0.384 0.128 0.8 0.512 0.96 0.768 0.352 1.248 1.12 1.248 1.952 0 1.184-0.96 2.144-2.144 2.144-0.48 0-0.896 0.384-0.896 0.896 0 0.48 0.384 0.896 0.896 0.896 2.176 0 3.936-1.76 3.968-3.936 0-1.28-0.672-2.496-1.728-3.232z"></path>
<path fill="#000" d="M18.208 19.648l-0.864 0.864v-4.288c0-0.48-0.384-0.896-0.896-0.896-0.48 0-0.896 0.384-0.896 0.896v4.288l-0.864-0.864c-0.352-0.352-0.928-0.352-1.28 0s-0.352 0.928 0 1.28l2.4 2.4c0.16 0.16 0.416 0.256 0.64 0.256s0.448-0.096 0.672-0.256l2.368-2.4c0.352-0.352 0.352-0.928 0-1.28s-0.928-0.352-1.28 0z"></path>
</svg>
