<?xml version="1.0" encoding="utf-8"?>
<!-- Generated by IcoMoon.io -->
<!DOCTYPE svg PUBLIC "-//W3C//DTD SVG 1.1//EN" "http://www.w3.org/Graphics/SVG/1.1/DTD/svg11.dtd">
<svg version="1.1" xmlns="http://www.w3.org/2000/svg" xmlns:xlink="http://www.w3.org/1999/xlink" width="32" height="32" viewBox="0 0 32 32">
<path fill="#000" d="M8.416 15.84c0.16 0.096 0.32 0.128 0.48 0.128 0.32 0 0.608-0.16 0.768-0.448 0.832-1.376 2.496-2.048 4.096-1.6 0.416 0.096 0.864-0.096 1.056-0.48 0.704-1.408 2.112-2.304 3.712-2.304 2.208 0 4.032 1.728 4.128 3.936 0 0.512 0.416 0.896 0.928 0.864 0.512 0 0.896-0.416 0.864-0.928-0.16-3.168-2.784-5.632-5.952-5.632-2.016 0-3.872 0.992-4.96 2.688-2.144-0.32-4.288 0.672-5.408 2.528-0.256 0.448-0.128 0.992 0.288 1.248z"></path>
<path fill="#000" d="M23.2 20.96h-11.424c-0.48 0-0.896 0.416-0.896 0.896s0.384 0.896 0.896 0.896h11.424c0.48 0 0.896-0.416 0.896-0.896s-0.384-0.896-0.896-0.896z"></path>
<path fill="#000" d="M25.28 18.688h-16.192c-0.48 0-0.896 0.416-0.896 0.896s0.384 0.896 0.896 0.896h16.192c0.512 0 0.896-0.416 0.896-0.896s-0.384-0.896-0.896-0.896z"></path>
<path fill="#000" d="M25.792 17.312c0-0.48-0.384-0.896-0.896-0.896h-16.992c-0.48 0-0.896 0.416-0.896 0.896s0.384 0.896 0.896 0.896h16.992c0.512 0 0.896-0.416 0.896-0.896z"></path>
</svg>
