<?xml version="1.0" encoding="utf-8"?>
<!-- Generated by IcoMoon.io -->
<!DOCTYPE svg PUBLIC "-//W3C//DTD SVG 1.1//EN" "http://www.w3.org/Graphics/SVG/1.1/DTD/svg11.dtd">
<svg version="1.1" xmlns="http://www.w3.org/2000/svg" xmlns:xlink="http://www.w3.org/1999/xlink" width="32" height="32" viewBox="0 0 32 32">
<path fill="#000" d="M16.384 7.744c-4.576 0-8.288 3.712-8.288 8.288s3.744 8.288 8.32 8.288 8.288-3.712 8.256-8.288c0-4.576-3.712-8.288-8.288-8.288zM16.416 22.528c-3.584 0-6.496-2.912-6.496-6.496s2.912-6.496 6.496-6.496 6.496 2.912 6.496 6.496c0 3.584-2.912 6.496-6.496 6.496z"></path>
<path fill="#000" d="M14.368 16.096c0 1.12 0.896 2.048 2.048 2.048s2.048-0.896 2.048-2.048c-0.032-1.92-2.048-4.256-2.048-4.256s-2.048 2.368-2.048 4.256zM17.024 16.096c0 0.32-0.288 0.608-0.608 0.608-0.352 0-0.608-0.288-0.608-0.608s0.288-0.608 0.608-0.608 0.608 0.288 0.608 0.608z"></path>
</svg>
