<?xml version="1.0" encoding="utf-8"?>
<!-- Generated by IcoMoon.io -->
<!DOCTYPE svg PUBLIC "-//W3C//DTD SVG 1.1//EN" "http://www.w3.org/Graphics/SVG/1.1/DTD/svg11.dtd">
<svg version="1.1" xmlns="http://www.w3.org/2000/svg" xmlns:xlink="http://www.w3.org/1999/xlink" width="32" height="32" viewBox="0 0 32 32">
<path fill="#000" d="M16.032 7.68c-2.208 0-4.288 0.864-5.856 2.432s-2.4 3.648-2.4 5.888c0 4.576 3.712 8.288 8.288 8.288 2.208 0 4.288-0.864 5.856-2.432s2.432-3.648 2.432-5.856c0-4.576-3.712-8.32-8.32-8.32zM20.64 20.576c-1.216 1.248-2.848 1.92-4.608 1.888-3.584 0-6.496-2.912-6.496-6.496 0-1.76 0.64-3.392 1.888-4.608s2.88-1.888 4.608-1.888c3.584 0 6.496 2.912 6.496 6.496 0 1.76-0.672 3.392-1.888 4.608z"></path>
<path fill="#000" d="M16.064 13.92c-1.152 0-2.048 0.896-2.048 2.048 0 1.856 2.048 4.224 2.048 4.224s2.048-2.368 2.048-4.224c0-1.12-0.896-2.048-2.048-2.048zM16.064 16.544c-0.32 0-0.608-0.288-0.608-0.608s0.256-0.608 0.608-0.608c0.352 0 0.608 0.288 0.608 0.608s-0.288 0.608-0.608 0.608z"></path>
</svg>
