<?xml version="1.0" encoding="utf-8"?>
<!-- Generated by IcoMoon.io -->
<!DOCTYPE svg PUBLIC "-//W3C//DTD SVG 1.1//EN" "http://www.w3.org/Graphics/SVG/1.1/DTD/svg11.dtd">
<svg version="1.1" xmlns="http://www.w3.org/2000/svg" xmlns:xlink="http://www.w3.org/1999/xlink" width="32" height="32" viewBox="0 0 32 32">
<path fill="#000" d="M16.064 7.68c-2.24 0-4.288 0.896-5.856 2.464s-2.432 3.648-2.432 5.856c0 4.576 3.712 8.288 8.288 8.288 2.208 0 4.288-0.864 5.856-2.432s2.432-3.648 2.432-5.856c0-4.576-3.712-8.32-8.288-8.32zM20.672 20.608c-1.248 1.216-2.88 1.888-4.608 1.888-3.584 0-6.496-2.912-6.496-6.496 0-1.76 0.672-3.392 1.888-4.608 1.248-1.216 2.88-1.888 4.608-1.888 3.584 0 6.496 2.912 6.496 6.496 0 1.76-0.64 3.392-1.888 4.608z"></path>
<path fill="#000" d="M14.016 16c0 1.12 0.896 2.048 2.048 2.048s2.048-0.896 2.048-2.048c-0.032-1.856-2.048-4.224-2.048-4.224s-2.048 2.368-2.048 4.224zM16.672 16.032c0 0.32-0.288 0.608-0.608 0.608-0.352 0-0.608-0.288-0.608-0.608s0.288-0.608 0.608-0.608 0.608 0.288 0.608 0.608z"></path>
</svg>
