<?xml version="1.0" encoding="utf-8"?>
<!-- Generated by IcoMoon.io -->
<!DOCTYPE svg PUBLIC "-//W3C//DTD SVG 1.1//EN" "http://www.w3.org/Graphics/SVG/1.1/DTD/svg11.dtd">
<svg version="1.1" xmlns="http://www.w3.org/2000/svg" xmlns:xlink="http://www.w3.org/1999/xlink" width="32" height="32" viewBox="0 0 32 32">
<path fill="#000" d="M21.92 10.112c-1.568-1.568-3.648-2.432-5.856-2.432-4.576 0-8.288 3.744-8.288 8.32 0 2.208 0.864 4.256 2.432 5.824s3.648 2.432 5.856 2.432c4.576 0 8.288-3.712 8.288-8.288 0-2.208-0.864-4.288-2.432-5.856zM16.064 22.464c-1.76 0-3.392-0.672-4.608-1.888s-1.888-2.848-1.888-4.576c0-3.584 2.912-6.496 6.496-6.528 1.76 0 3.392 0.64 4.608 1.888s1.888 2.88 1.888 4.608c0 3.584-2.912 6.496-6.496 6.496z"></path>
<path fill="#000" d="M16.064 13.952c-1.856 0-4.224 2.048-4.224 2.048s2.368 2.048 4.224 2.048c1.12 0 2.048-0.896 2.048-2.048s-0.896-2.048-2.048-2.048zM16.096 16.608c-0.32 0-0.64-0.288-0.64-0.608s0.288-0.608 0.608-0.608 0.64 0.256 0.64 0.608-0.288 0.608-0.608 0.608z"></path>
</svg>
