<?xml version="1.0" encoding="utf-8"?>
<!-- Generated by IcoMoon.io -->
<!DOCTYPE svg PUBLIC "-//W3C//DTD SVG 1.1//EN" "http://www.w3.org/Graphics/SVG/1.1/DTD/svg11.dtd">
<svg version="1.1" xmlns="http://www.w3.org/2000/svg" xmlns:xlink="http://www.w3.org/1999/xlink" width="32" height="32" viewBox="0 0 32 32">
<path fill="#000" d="M21.952 10.144c-3.232-3.232-8.512-3.232-11.744 0-1.568 1.568-2.432 3.648-2.432 5.856s0.832 4.288 2.432 5.856c3.232 3.232 8.512 3.232 11.744 0 1.568-1.568 2.432-3.648 2.432-5.856s-0.864-4.288-2.432-5.856zM20.672 20.608c-2.528 2.528-6.656 2.528-9.184 0-1.216-1.248-1.888-2.848-1.888-4.608s0.672-3.392 1.888-4.608c2.528-2.528 6.656-2.528 9.184 0 1.216 1.248 1.888 2.88 1.888 4.608s-0.672 3.36-1.888 4.608z"></path>
<path fill="#000" d="M14.592 14.528c-0.8 0.8-0.8 2.080 0 2.88 1.344 1.312 4.448 1.568 4.448 1.568s-0.224-3.104-1.568-4.448c-0.8-0.8-2.080-0.8-2.88 0zM16.48 16.416c-0.256 0.256-0.64 0.256-0.896 0-0.224-0.256-0.224-0.64 0-0.896 0.256-0.256 0.64-0.256 0.896 0s0.256 0.64 0 0.896z"></path>
</svg>
