<?xml version="1.0" encoding="utf-8"?>
<!-- Generated by IcoMoon.io -->
<!DOCTYPE svg PUBLIC "-//W3C//DTD SVG 1.1//EN" "http://www.w3.org/Graphics/SVG/1.1/DTD/svg11.dtd">
<svg version="1.1" xmlns="http://www.w3.org/2000/svg" xmlns:xlink="http://www.w3.org/1999/xlink" width="32" height="32" viewBox="0 0 32 32">
<path fill="#000" d="M21.92 10.112c-1.568-1.568-3.648-2.432-5.856-2.432s-4.288 0.864-5.856 2.432c-3.232 3.232-3.232 8.512 0 11.744 1.568 1.568 3.648 2.432 5.856 2.432s4.288-0.864 5.856-2.432c3.232-3.232 3.232-8.512 0-11.744zM20.672 20.576c-1.248 1.216-2.848 1.888-4.608 1.888s-3.392-0.672-4.608-1.888c-2.528-2.528-2.528-6.656 0-9.184 1.248-1.216 2.88-1.888 4.608-1.888s3.36 0.672 4.608 1.888c2.528 2.528 2.528 6.656 0 9.184z"></path>
<path fill="#000" d="M14.592 17.472c0.8 0.8 2.080 0.8 2.88 0 1.312-1.344 1.568-4.448 1.568-4.448s-3.104 0.224-4.448 1.568c-0.8 0.8-0.8 2.080 0 2.88zM15.584 15.552c0.256-0.256 0.64-0.256 0.896 0s0.256 0.64 0 0.896c-0.256 0.256-0.64 0.256-0.896 0s-0.256-0.64 0-0.896z"></path>
</svg>
