<?xml version="1.0" encoding="utf-8"?>
<!-- Generated by IcoMoon.io -->
<!DOCTYPE svg PUBLIC "-//W3C//DTD SVG 1.1//EN" "http://www.w3.org/Graphics/SVG/1.1/DTD/svg11.dtd">
<svg version="1.1" xmlns="http://www.w3.org/2000/svg" xmlns:xlink="http://www.w3.org/1999/xlink" width="32" height="32" viewBox="0 0 32 32">
<path fill="#000" d="M23.936 9.76h-7.744c-0.576 0-0.992 0.384-0.992 0.96v12.96c0 0.576 0.352 0.96 0.96 0.96s0.96-0.416 0.96-0.96v-5.472h4.608c0.544 0 0.896-0.32 0.896-0.832 0-0.544-0.352-0.864-0.896-0.864h-4.608v-5.024h6.816c0.544 0 0.896-0.352 0.896-0.864s-0.352-0.864-0.896-0.864z"></path>
<path fill="#000" d="M10.432 9.664c-1.696 0-2.944 1.376-2.944 3.2 0 1.856 1.248 3.2 2.944 3.2 1.76 0 2.976-1.344 2.976-3.2 0-1.824-1.216-3.2-2.976-3.2zM10.432 14.72c-1.088 0-1.632-0.928-1.632-1.856 0-0.896 0.544-1.888 1.632-1.856 1.12 0 1.664 0.96 1.664 1.856s-0.544 1.856-1.664 1.856z"></path>
</svg>
