<?xml version="1.0" encoding="utf-8"?>
<!-- Generated by IcoMoon.io -->
<!DOCTYPE svg PUBLIC "-//W3C//DTD SVG 1.1//EN" "http://www.w3.org/Graphics/SVG/1.1/DTD/svg11.dtd">
<svg version="1.1" xmlns="http://www.w3.org/2000/svg" xmlns:xlink="http://www.w3.org/1999/xlink" width="32" height="32" viewBox="0 0 32 32">
<path fill="#000" d="M21.984 18.88h-11.392c-0.48 0-0.896 0.384-0.896 0.896 0 0.48 0.384 0.896 0.896 0.896h11.424c0.48 0 0.896-0.416 0.864-0.896 0-0.48-0.384-0.896-0.896-0.896z"></path>
<path fill="#000" d="M9.216 13.76h11.424c0.48 0 0.896-0.384 0.864-0.896 0-0.48-0.384-0.896-0.896-0.896h-11.392c-0.48 0-0.896 0.384-0.896 0.896 0 0.48 0.384 0.896 0.896 0.896z"></path>
<path fill="#000" d="M24.128 16.608h-16.192c-0.48 0-0.896 0.384-0.896 0.896 0 0.48 0.384 0.896 0.896 0.896h16.16c0.512 0 0.896-0.416 0.928-0.896 0-0.48-0.384-0.896-0.896-0.896z"></path>
<path fill="#000" d="M17.184 15.232c0-0.48-0.384-0.896-0.896-0.896h-9.536c-0.48 0-0.896 0.384-0.896 0.896 0 0.48 0.384 0.896 0.896 0.896h9.536c0.512 0 0.928-0.384 0.896-0.896z"></path>
<path fill="#000" d="M25.312 14.336h-6.944c-0.48 0-0.896 0.384-0.896 0.896 0 0.48 0.384 0.896 0.896 0.896h6.944c0.512 0 0.896-0.384 0.896-0.896 0-0.48-0.384-0.896-0.896-0.896z"></path>
</svg>
