<?xml version="1.0" encoding="utf-8"?>
<!-- Generated by IcoMoon.io -->
<!DOCTYPE svg PUBLIC "-//W3C//DTD SVG 1.1//EN" "http://www.w3.org/Graphics/SVG/1.1/DTD/svg11.dtd">
<svg version="1.1" xmlns="http://www.w3.org/2000/svg" xmlns:xlink="http://www.w3.org/1999/xlink" width="32" height="32" viewBox="0 0 32 32">
<path fill="#000" d="M23.808 15.328c0-0.096 0-0.224 0-0.352 0-3.296-2.688-5.952-5.952-5.952-1.6 0-3.136 0.672-4.256 1.824-0.576-0.64-0.896-1.472-0.896-2.4 0-0.128 0.032-0.224 0.032-0.32 0.032-0.288-0.096-0.576-0.32-0.768-0.224-0.16-0.512-0.224-0.8-0.16-2.368 0.672-4 2.816-4 5.248 0 0.448 0.064 0.896 0.16 1.312-0.736 0.96-1.12 2.112-1.12 3.296 0 3.008 2.432 5.44 5.44 5.44 0.48 0 0.864-0.448 0.864-0.928s-0.384-0.896-0.896-0.896c-1.92 0-3.52-1.536-3.616-3.456 0-0.064 0.032-0.096 0.032-0.16 0-0.448 0.096-0.896 0.256-1.312 0.992 1.312 2.56 2.144 4.32 2.144 2.816 0 5.184-2.208 5.408-4.992 0.032-0.288-0.096-0.608-0.32-0.768s-0.512-0.224-0.8-0.16c-0.352 0.096-0.672 0.128-0.992 0.128-0.448 0-0.864-0.096-1.248-0.224 0.736-0.672 1.728-1.056 2.752-1.056 2.272 0 4.128 1.856 4.128 4.128 0 0.224-0.032 0.448-0.064 0.704-0.064 0.384 0.128 0.8 0.512 0.96 0.768 0.352 1.248 1.12 1.248 1.952 0 1.184-0.96 2.144-2.144 2.144-0.48 0-0.896 0.416-0.896 0.896s0.384 0.896 0.896 0.896c2.176 0 3.968-1.76 4-3.936 0-1.28-0.672-2.496-1.728-3.232zM16.352 13.856v0c-0.512 1.312-1.824 2.208-3.296 2.208-2.016 0-3.648-1.632-3.648-3.648 0-1.216 0.608-2.336 1.6-3.008 0.448 2.56 2.688 4.48 5.344 4.448z"></path>
<path fill="#000" d="M15.392 21.632c0 0.495-0.401 0.896-0.896 0.896s-0.896-0.401-0.896-0.896c0-0.495 0.401-0.896 0.896-0.896s0.896 0.401 0.896 0.896z"></path>
<path fill="#000" d="M17.792 21.632c0 0.495-0.401 0.896-0.896 0.896s-0.896-0.401-0.896-0.896c0-0.495 0.401-0.896 0.896-0.896s0.896 0.401 0.896 0.896z"></path>
<path fill="#000" d="M16.608 24c0 0.495-0.401 0.896-0.896 0.896s-0.896-0.401-0.896-0.896c0-0.495 0.401-0.896 0.896-0.896s0.896 0.401 0.896 0.896z"></path>
<path fill="#000" d="M16.608 18.912c0 0.495-0.401 0.896-0.896 0.896s-0.896-0.401-0.896-0.896c0-0.495 0.401-0.896 0.896-0.896s0.896 0.401 0.896 0.896z"></path>
<path fill="#000" d="M19.008 24c0 0.495-0.401 0.896-0.896 0.896s-0.896-0.401-0.896-0.896c0-0.495 0.401-0.896 0.896-0.896s0.896 0.401 0.896 0.896z"></path>
<path fill="#000" d="M19.008 18.912c0 0.495-0.401 0.896-0.896 0.896s-0.896-0.401-0.896-0.896c0-0.495 0.401-0.896 0.896-0.896s0.896 0.401 0.896 0.896z"></path>
<path fill="#000" d="M20.096 21.632c0 0.495-0.401 0.896-0.896 0.896s-0.896-0.401-0.896-0.896c0-0.495 0.401-0.896 0.896-0.896s0.896 0.401 0.896 0.896z"></path>
</svg>
