<?xml version="1.0" encoding="utf-8"?>
<!-- Generated by IcoMoon.io -->
<!DOCTYPE svg PUBLIC "-//W3C//DTD SVG 1.1//EN" "http://www.w3.org/Graphics/SVG/1.1/DTD/svg11.dtd">
<svg version="1.1" xmlns="http://www.w3.org/2000/svg" xmlns:xlink="http://www.w3.org/1999/xlink" width="32" height="32" viewBox="0 0 32 32">
<path fill="#000" d="M23.36 16.064c0-3.328-2.144-6.144-5.12-7.136-0.096-0.032-0.192-0.064-0.288-0.096-0.672-0.192-1.376-0.288-2.112-0.288-4.16 0-7.52 3.36-7.52 7.52s3.36 7.52 7.52 7.52c0.736 0 1.44-0.096 2.112-0.32 0.032 0 0.064-0.032 0.096-0.032 3.104-0.928 5.312-3.776 5.312-7.168zM10.112 16.064c0-2.88 2.112-5.248 4.864-5.664-1.024 1.312-1.664 3.328-1.664 5.664 0 2.304 0.64 4.352 1.664 5.664-2.752-0.416-4.864-2.784-4.864-5.664z"></path>
</svg>
