<?xml version="1.0" encoding="utf-8"?>
<!-- Generated by IcoMoon.io -->
<!DOCTYPE svg PUBLIC "-//W3C//DTD SVG 1.1//EN" "http://www.w3.org/Graphics/SVG/1.1/DTD/svg11.dtd">
<svg version="1.1" xmlns="http://www.w3.org/2000/svg" xmlns:xlink="http://www.w3.org/1999/xlink" width="32" height="32" viewBox="0 0 32 32">
<path fill="#000" d="M24.16 18.592h-2.048c0.256-0.672 0.448-1.376 0.512-2.112 0.032-0.288-0.096-0.576-0.32-0.768-0.224-0.16-0.512-0.224-0.8-0.16-0.48 0.128-0.928 0.192-1.408 0.192-1.216 0-2.336-0.416-3.232-1.12h3.168c0.48 0 0.896-0.416 0.864-0.896 0-0.48-0.384-0.896-0.896-0.896h-4.608c-0.352-0.704-0.576-1.504-0.576-2.368 0-0.16 0.032-0.288 0.032-0.448 0.032-0.288-0.096-0.576-0.32-0.768-0.224-0.16-0.512-0.224-0.8-0.16-1.984 0.576-3.584 1.952-4.48 3.744h-0.928c-0.48 0-0.896 0.384-0.896 0.896 0 0.48 0.384 0.896 0.896 0.896h0.352c-0.064 0.384-0.128 0.8-0.128 1.216h-2.56c-0.48 0-0.896 0.416-0.896 0.896s0.384 0.896 0.896 0.896h2.784c0.768 3.072 3.552 5.344 6.848 5.344 2.176 0 4.128-1.024 5.44-2.592h3.104c0.48 0 0.896-0.416 0.896-0.896s-0.384-0.896-0.896-0.896zM13.056 11.296c0.064 0.544 0.192 1.056 0.352 1.536h-2.112c0.48-0.64 1.056-1.152 1.76-1.536zM15.584 21.184c-2.304 0-4.256-1.472-4.992-3.552h3.904c0.48 0 0.896-0.416 0.896-0.896s-0.384-0.896-0.896-0.896h-4.192c0-0.416 0.064-0.832 0.16-1.216h3.904c1.376 1.92 3.68 3.104 6.24 2.912-0.128 0.384-0.288 0.736-0.48 1.056h-5.632c-0.48 0-0.896 0.384-0.896 0.896 0 0.48 0.384 0.896 0.896 0.896h3.872c-0.832 0.512-1.792 0.8-2.784 0.8z"></path>
</svg>
