<?xml version="1.0" encoding="utf-8"?>
<!-- Generated by IcoMoon.io -->
<!DOCTYPE svg PUBLIC "-//W3C//DTD SVG 1.1//EN" "http://www.w3.org/Graphics/SVG/1.1/DTD/svg11.dtd">
<svg version="1.1" xmlns="http://www.w3.org/2000/svg" xmlns:xlink="http://www.w3.org/1999/xlink" width="32" height="32" viewBox="0 0 32 32">
<path fill="#000" d="M23.744 16.512c0-0.096 0-0.224 0-0.352 0-3.296-2.688-5.952-5.952-5.952-1.632 0-3.168 0.672-4.256 1.824-0.576-0.64-0.928-1.504-0.928-2.432 0-0.128 0.032-0.224 0.032-0.32 0.032-0.288-0.096-0.608-0.32-0.768s-0.512-0.224-0.8-0.16c-2.368 0.64-4 2.816-4 5.248 0 0.448 0.064 0.896 0.16 1.312-0.736 0.96-1.12 2.112-1.12 3.296 0 0 0 0 0 0.032 0 0 0 0 0 0 0 3.008 2.432 5.44 5.44 5.44h9.472c2.176 0 3.936-1.76 4-3.904 0-1.312-0.672-2.528-1.728-3.264zM10.912 10.56c0.48 2.56 2.72 4.48 5.408 4.448-0.576 1.312-1.888 2.208-3.36 2.208-2.016 0-3.648-1.632-3.648-3.648 0-1.216 0.608-2.336 1.6-3.008zM21.472 21.888h-9.472c-1.984 0-3.584-1.568-3.648-3.52 0-0.064 0.032-0.096 0.032-0.16 0-0.448 0.096-0.896 0.256-1.312 0.992 1.312 2.56 2.144 4.32 2.144 2.816 0 5.216-2.208 5.408-4.992 0.032-0.288-0.096-0.576-0.32-0.768-0.224-0.16-0.512-0.224-0.8-0.16-0.352 0.096-0.672 0.128-0.992 0.128-0.416 0-0.832-0.064-1.216-0.224 0.768-0.672 1.728-1.024 2.752-1.024 2.272 0 4.128 1.856 4.128 4.128 0 0.224-0.032 0.448-0.064 0.704-0.064 0.384 0.128 0.8 0.512 0.96 0.768 0.352 1.248 1.12 1.248 1.952 0 1.184-0.96 2.144-2.144 2.144z"></path>
</svg>
