<?xml version="1.0" encoding="utf-8"?>
<!-- Generated by IcoMoon.io -->
<!DOCTYPE svg PUBLIC "-//W3C//DTD SVG 1.1//EN" "http://www.w3.org/Graphics/SVG/1.1/DTD/svg11.dtd">
<svg version="1.1" xmlns="http://www.w3.org/2000/svg" xmlns:xlink="http://www.w3.org/1999/xlink" width="32" height="32" viewBox="0 0 32 32">
<path fill="#000" d="M16.992 21.216c0-0.48-0.384-0.896-0.896-0.896h-10.848c-0.48 0-0.896 0.384-0.896 0.896 0 0.48 0.384 0.896 0.896 0.896h10.848c0.512 0 0.896-0.416 0.896-0.896z"></path>
<path fill="#000" d="M18.816 22.56c-0.064 0-0.16 0-0.224 0.032h-10.624c-0.48 0-0.896 0.416-0.896 0.896s0.384 0.896 0.896 0.896h10.848c0.032 0 0.064 0 0.096 0 0.096 0.032 0.16 0.128 0.16 0.224 0 0.16-0.128 0.256-0.256 0.256-0.48 0-0.896 0.416-0.896 0.896s0.384 0.896 0.896 0.896c1.12 0 2.048-0.896 2.048-2.048 0-1.12-0.928-2.048-2.048-2.048z"></path>
<path fill="#000" d="M27.2 20.416c0-0.96-0.384-1.92-1.056-2.624-0.192-0.224-0.448-0.416-0.672-0.608 0-0.128 0-0.256 0-0.384 0-3.264-2.656-5.92-5.92-5.92 0 0 0 0-0.032 0 0 0 0 0 0 0s0 0 0 0c-1.632 0-3.136 0.672-4.224 1.824-0.576-0.64-0.928-1.504-0.928-2.432 0-0.128 0.032-0.224 0.032-0.32 0.032-0.288-0.096-0.576-0.32-0.768-0.224-0.16-0.512-0.224-0.8-0.16-2.368 0.672-4 2.816-4 5.248 0 0.48 0.064 0.96 0.192 1.408-0.704 0.96-1.12 2.112-1.12 3.264 0 0.48 0.384 0.896 0.896 0.896 0.48 0 0.896-0.384 0.928-0.896 0-0.448 0.096-0.896 0.256-1.344 0.992 1.28 2.528 2.112 4.288 2.112 2.816 0 5.216-2.208 5.408-4.992 0.032-0.288-0.096-0.576-0.32-0.768-0.224-0.16-0.512-0.224-0.8-0.16-0.352 0.096-0.672 0.128-0.992 0.128-0.416 0-0.832-0.064-1.216-0.224 0.672-0.608 1.536-0.992 2.464-1.056 0.096 0.032 0.192 0.032 0.288 0.032 2.272 0 4.096 1.824 4.128 4.096 0 0.224-0.032 0.416-0.064 0.672 0 0.064 0 0.128 0 0.192 0 0.352 0.16 0.704 0.512 0.832 0.768 0.352 1.248 1.088 1.248 1.92-0.032 1.152-0.96 2.112-2.144 2.112-0.096 0-0.224 0.032-0.32 0.064h-0.704c-0.48 0-0.896 0.416-0.896 0.896s0.384 0.896 0.896 0.896h1.024c1.568 0 2.976-0.96 3.584-2.336 0.224-0.48 0.384-1.024 0.384-1.6zM18.048 15.68c-0.544 1.312-1.856 2.208-3.328 2.208-2.016 0-3.648-1.632-3.648-3.648 0-1.216 0.608-2.336 1.6-3.008 0.48 2.528 2.688 4.48 5.344 4.448h0.032z"></path>
</svg>
