<?xml version="1.0" encoding="utf-8"?>
<!-- Generated by IcoMoon.io -->
<!DOCTYPE svg PUBLIC "-//W3C//DTD SVG 1.1//EN" "http://www.w3.org/Graphics/SVG/1.1/DTD/svg11.dtd">
<svg version="1.1" xmlns="http://www.w3.org/2000/svg" xmlns:xlink="http://www.w3.org/1999/xlink" width="32" height="32" viewBox="0 0 32 32">
<path fill="#000" d="M23.52 15.552c0-0.096 0-0.224 0-0.352 0-3.296-2.688-5.952-5.952-5.952-0.48 0-0.896 0.416-0.896 0.896s0.384 0.896 0.896 0.896c2.272 0 4.128 1.856 4.128 4.128 0 0.224-0.032 0.448-0.064 0.704-0.064 0.384 0.128 0.8 0.512 0.96 0.768 0.352 1.248 1.12 1.248 1.952 0 1.184-0.96 2.144-2.144 2.144h-9.472c-1.92 0-3.52-1.536-3.616-3.456 0-0.064 0.032-0.096 0.032-0.16 0-0.896 0.32-1.728 0.896-2.4 0.32-0.384 0.288-0.96-0.096-1.28s-0.96-0.288-1.28 0.096c-0.864 0.992-1.344 2.272-1.344 3.584 0 3.008 2.432 5.44 5.44 5.44h9.44c2.176 0 3.936-1.76 4-3.968 0-1.28-0.672-2.496-1.728-3.232z"></path>
<path fill="#000" d="M7.872 11.552c1.664 1.152 2.976 2.72 3.744 4.608 0.16 0.32 0.48 0.544 0.832 0.544 0.096 0 0.224-0.032 0.352-0.032 0.448-0.192 0.672-0.736 0.48-1.184-0.928-2.208-2.432-4.064-4.384-5.408-0.416-0.288-0.96-0.192-1.248 0.224s-0.192 0.96 0.224 1.248z"></path>
<path fill="#000" d="M9.408 9.632c2.208 1.536 3.904 3.808 4.768 6.368 0.128 0.384 0.48 0.608 0.864 0.608 0.096 0 0.192 0 0.224-0.032 0.48-0.16 0.736-0.672 0.576-1.152-0.992-2.912-2.912-5.504-5.408-7.264-0.416-0.288-0.96-0.192-1.248 0.224s-0.192 0.96 0.224 1.248z"></path>
<path fill="#000" d="M11.104 7.872c2.368 1.76 4.192 4.192 5.216 6.976 0.128 0.352 0.48 0.576 0.832 0.576 0.096 0 0.224-0.032 0.32-0.064 0.48-0.16 0.704-0.672 0.544-1.152-1.152-3.104-3.2-5.792-5.856-7.776-0.384-0.288-0.96-0.192-1.248 0.192s-0.192 0.96 0.192 1.248z"></path>
</svg>
