<?xml version="1.0" encoding="utf-8"?>
<!-- Generated by IcoMoon.io -->
<!DOCTYPE svg PUBLIC "-//W3C//DTD SVG 1.1//EN" "http://www.w3.org/Graphics/SVG/1.1/DTD/svg11.dtd">
<svg version="1.1" xmlns="http://www.w3.org/2000/svg" xmlns:xlink="http://www.w3.org/1999/xlink" width="32" height="32" viewBox="0 0 32 32">
<path fill="#000" d="M16.736 8.096c-0.352-0.288-0.832-0.288-1.152 0-0.224 0.192-6.016 5.024-6.016 10.656 0 3.616 2.944 6.592 6.592 6.592s6.592-2.944 6.592-6.592c0-5.632-5.76-10.464-6.016-10.656zM16.16 23.552c-2.656 0-4.8-2.144-4.8-4.8 0-3.84 3.424-7.456 4.8-8.768 1.376 1.312 4.8 4.928 4.8 8.768 0 2.656-2.144 4.8-4.8 4.8z"></path>
<path fill="#000" d="M14.976 16.032c0 0-1.76 1.44-1.76 3.072 0 0.96 0.8 1.76 1.76 1.76s1.76-0.8 1.76-1.76c0-1.632-1.76-3.072-1.76-3.072z"></path>
</svg>
