<?xml version="1.0" encoding="utf-8"?>
<!-- Generated by IcoMoon.io -->
<!DOCTYPE svg PUBLIC "-//W3C//DTD SVG 1.1//EN" "http://www.w3.org/Graphics/SVG/1.1/DTD/svg11.dtd">
<svg version="1.1" xmlns="http://www.w3.org/2000/svg" xmlns:xlink="http://www.w3.org/1999/xlink" width="32" height="32" viewBox="0 0 32 32">
<path fill="#000" d="M24.832 19.136c-0.352-0.352-0.928-0.352-1.28 0l-0.96 0.96v-2.336c0.032-0.064 0.032-0.16 0.032-0.224 0-3.2-2.624-5.824-5.824-5.824s-5.824 2.624-5.824 5.824 2.624 5.824 5.824 5.824c0.48 0 0.864-0.416 0.864-0.896s-0.384-0.896-0.896-0.896c-2.24 0-4.032-1.824-4.032-4.032 0-2.24 1.792-4.032 4.032-4.032s4.032 1.824 4.032 4.032v3.008l-1.408-1.408c-0.352-0.352-0.928-0.352-1.28 0s-0.352 0.928 0 1.28l2.72 2.72c0.192 0.16 0.416 0.256 0.64 0.256s0.448-0.096 0.64-0.256l2.72-2.72c0.352-0.352 0.352-0.928 0-1.28z"></path>
</svg>
