<?xml version="1.0" encoding="utf-8"?>
<!-- Generated by IcoMoon.io -->
<!DOCTYPE svg PUBLIC "-//W3C//DTD SVG 1.1//EN" "http://www.w3.org/Graphics/SVG/1.1/DTD/svg11.dtd">
<svg version="1.1" xmlns="http://www.w3.org/2000/svg" xmlns:xlink="http://www.w3.org/1999/xlink" width="32" height="32" viewBox="0 0 32 32">
<path fill="#000" d="M25.152 15.776c0-0.128 0-0.256 0-0.384 0-3.296-2.688-5.952-5.952-5.952-0.512 0-1.024 0.064-1.536 0.192-0.704-1.248-2.016-2.048-3.488-2.048-2.208 0-4 1.792-4 4 0 0.48 0.032 0.896 0.192 1.312-1.44 0.992-2.4 2.624-2.4 4.512 0 0.096 0.032 0.16 0.032 0.256 0.096 2.944 2.464 5.28 5.44 5.28 0.48 0 0.896-0.416 0.896-0.896s-0.384-0.896-0.896-0.896c-2.016 0-3.648-1.632-3.648-3.648s1.632-3.648 3.648-3.648c0.224 0 0.48 0.032 0.704 0.064 0.48 0.16 0.96 0.448 1.312 0.672 0.416 0.256 0.96 0.16 1.248-0.256 0.256-0.416 0.16-0.96-0.256-1.248-0.16-0.096-0.32-0.224-0.48-0.32 0.768-0.96 1.92-1.568 3.232-1.568 2.272 0 4.128 1.856 4.128 4.128 0 0.224-0.032 0.448-0.064 0.704-0.064 0.384 0.128 0.8 0.512 0.96 0.768 0.352 1.248 1.12 1.248 1.952 0 1.184-0.96 2.144-2.144 2.144-0.48 0-0.896 0.416-0.896 0.896s0.384 0.896 0.896 0.896c2.176 0 3.936-1.792 4-3.84 0-1.312-0.672-2.528-1.728-3.264zM13.408 11.968c-0.48 0-0.96 0.064-1.376 0.192-0.032-0.16-0.064-0.32-0.064-0.576 0-1.216 0.992-2.208 2.208-2.208 0.736 0 1.44 0.384 1.824 0.992-0.672 0.448-1.28 0.992-1.728 1.696-0.256-0.064-0.576-0.096-0.864-0.096z"></path>
<path fill="#000" d="M14.176 6.496c0.512 0 0.896-0.384 0.896-0.896v-0.928c0-0.48-0.416-0.896-0.896-0.896s-0.896 0.384-0.896 0.896v0.928c0 0.48 0.384 0.896 0.896 0.896z"></path>
<path fill="#000" d="M9.312 8c0.192 0.16 0.416 0.256 0.64 0.256s0.48-0.096 0.64-0.256c0.352-0.352 0.352-0.928 0-1.28l-0.64-0.64c-0.352-0.352-0.928-0.352-1.28 0s-0.352 0.928 0 1.28l0.64 0.64z"></path>
<path fill="#000" d="M9.088 11.584c0-0.48-0.384-0.896-0.896-0.896h-0.928c-0.48 0-0.896 0.416-0.896 0.896s0.384 0.896 0.896 0.896h0.928c0.512 0 0.896-0.416 0.896-0.896z"></path>
<path fill="#000" d="M18.4 8.256c0.256 0 0.48-0.096 0.64-0.256l0.64-0.64c0.352-0.352 0.352-0.928 0-1.28s-0.928-0.352-1.28 0l-0.64 0.64c-0.352 0.352-0.352 0.928 0 1.28 0.192 0.16 0.416 0.256 0.64 0.256z"></path>
<path fill="#000" d="M18.048 21.088c-0.48 0-0.896 0.384-0.896 0.896v3.68c0 0.48 0.384 0.896 0.896 0.896 0.48 0 0.896-0.384 0.896-0.864v-3.712c0-0.48-0.416-0.896-0.896-0.896z"></path>
<path fill="#000" d="M20.448 21.088c-0.48 0-0.896 0.384-0.896 0.896v1.536c0 0.48 0.384 0.896 0.896 0.896 0.48 0 0.896-0.416 0.896-0.896v-1.536c0-0.48-0.416-0.896-0.896-0.896z"></path>
<path fill="#000" d="M15.648 21.088c-0.48 0-0.896 0.384-0.896 0.896v1.536c0 0.48 0.384 0.896 0.896 0.896 0.48 0 0.896-0.416 0.896-0.896v-1.536c0-0.48-0.416-0.896-0.896-0.896z"></path>
</svg>
