<?xml version="1.0" encoding="utf-8"?>
<!-- Generated by IcoMoon.io -->
<!DOCTYPE svg PUBLIC "-//W3C//DTD SVG 1.1//EN" "http://www.w3.org/Graphics/SVG/1.1/DTD/svg11.dtd">
<svg version="1.1" xmlns="http://www.w3.org/2000/svg" xmlns:xlink="http://www.w3.org/1999/xlink" width="32" height="32" viewBox="0 0 32 32">
<path fill="#000" d="M16 10.848c0.512 0 0.96-0.416 0.96-0.896v-1.312c0-0.512-0.448-0.896-0.96-0.896s-0.96 0.416-0.96 0.896v1.312c0 0.48 0.448 0.896 0.96 0.896z"></path>
<path fill="#000" d="M10.112 12.768c0.16 0.16 0.416 0.256 0.64 0.256s0.448-0.096 0.64-0.256c0.352-0.352 0.352-0.928 0-1.28l-0.928-0.928c-0.352-0.352-0.928-0.352-1.28 0s-0.352 0.928 0 1.28l0.928 0.928z"></path>
<path fill="#000" d="M7.264 18.24h1.312c0.512 0 0.896-0.448 0.896-0.96s-0.416-0.96-0.896-0.96h-1.312c-0.512 0-0.896 0.448-0.896 0.96s0.384 0.96 0.896 0.96z"></path>
<path fill="#000" d="M22.528 17.28c0 0.512 0.416 0.96 0.896 0.96h1.312c0.512 0 0.896-0.448 0.896-0.96s-0.416-0.96-0.896-0.96h-1.312c-0.48 0-0.896 0.448-0.896 0.96z"></path>
<path fill="#000" d="M21.248 13.024c0.224 0 0.448-0.096 0.64-0.256l0.928-0.928c0.352-0.352 0.352-0.928 0-1.28s-0.928-0.352-1.28 0l-0.928 0.928c-0.352 0.352-0.352 0.928 0 1.28 0.192 0.16 0.416 0.256 0.64 0.256z"></path>
<path fill="#000" d="M25.056 19.52h-4.16c0.288-0.64 0.416-1.408 0.416-2.112 0-2.944-2.4-5.344-5.312-5.344-2.944 0-5.312 2.4-5.312 5.344 0 0.736 0.16 1.472 0.416 2.112h-3.84c-0.512 0-0.896 0.288-0.896 0.8s0.416 0.8 0.896 0.8h17.824c0.512 0 0.896-0.288 0.896-0.8s-0.416-0.8-0.928-0.8zM18.816 19.52h-5.664v-0.032c-0.448-0.608-0.672-1.344-0.672-2.112 0-1.952 1.568-3.52 3.52-3.52s3.52 1.6 3.52 3.552c0 0.768-0.224 1.472-0.704 2.112z"></path>
<path fill="#000" d="M22.976 22.080h-13.664c-0.512 0-0.896 0.448-0.896 0.96s0.416 0.96 0.896 0.96h13.632c0.512 0 0.896-0.448 0.896-0.96s-0.384-0.96-0.864-0.96z"></path>
</svg>
