<?xml version="1.0" encoding="utf-8"?>
<!-- Generated by IcoMoon.io -->
<!DOCTYPE svg PUBLIC "-//W3C//DTD SVG 1.1//EN" "http://www.w3.org/Graphics/SVG/1.1/DTD/svg11.dtd">
<svg version="1.1" xmlns="http://www.w3.org/2000/svg" xmlns:xlink="http://www.w3.org/1999/xlink" width="32" height="32" viewBox="0 0 32 32">
<path fill="#000" d="M25.056 12.256h-3.168c-1.28-2.144-3.616-3.552-6.272-3.552-3.744 0-6.784 2.784-7.232 6.4h-0.416c-0.48 0-0.896 0.384-0.896 0.896 0 0.48 0.384 0.896 0.896 0.896h0.416c0.448 3.616 3.52 6.4 7.232 6.4 2.624 0 4.928-1.408 6.24-3.488h0.896c0.48 0 0.864-0.416 0.864-0.896s-0.384-0.896-0.896-0.896h-0.096c0.192-0.64 0.288-1.312 0.288-2.016 0-0.672-0.096-1.344-0.256-1.952h2.4c0.48 0 0.896-0.416 0.896-0.896s-0.384-0.896-0.896-0.896zM21.12 16c0 0.704-0.128 1.376-0.384 2.016h-5.888c-0.48 0-0.896 0.416-0.896 0.896s0.384 0.896 0.896 0.896h4.736c-0.992 1.056-2.4 1.696-3.968 1.696-2.72 0-4.992-1.984-5.44-4.608h5.056c0.48 0 0.896-0.384 0.896-0.896 0-0.48-0.384-0.896-0.896-0.896h-5.056c0.416-2.624 2.688-4.608 5.44-4.608 1.6 0 3.008 0.672 4.032 1.76h-3.648c-0.48 0-0.896 0.416-0.896 0.896s0.384 0.896 0.896 0.896h4.768c0.224 0.608 0.352 1.248 0.352 1.952z"></path>
</svg>
