<?xml version="1.0" encoding="utf-8"?>
<!-- Generated by IcoMoon.io -->
<!DOCTYPE svg PUBLIC "-//W3C//DTD SVG 1.1//EN" "http://www.w3.org/Graphics/SVG/1.1/DTD/svg11.dtd">
<svg version="1.1" xmlns="http://www.w3.org/2000/svg" xmlns:xlink="http://www.w3.org/1999/xlink" width="32" height="32" viewBox="0 0 32 32">
<path fill="#000" d="M24.768 16.864c0-0.096 0-0.224 0-0.352 0-3.296-2.688-5.952-5.952-5.952-0.512 0-0.992 0.064-1.472 0.192-0.64-1.44-2.048-2.4-3.68-2.4-2.208 0-4 1.792-4 4 0 0.608 0.064 1.152 0.384 1.728-1.472 0.96-2.432 2.624-2.432 4.512 0 0 0 0 0 0s0 0 0 0.032c0 3.008 2.432 5.44 5.44 5.44 0.48 0 0.896-0.416 0.896-0.896s-0.384-0.896-0.896-0.896c-1.952 0-3.584-1.6-3.616-3.552 0-0.032 0.032-0.096 0.032-0.128 0-0.608 0.16-1.152 0.416-1.664 0.608-1.12 1.792-1.888 3.168-1.888 0.256 0 0.576 0.032 0.832 0.096 0.448 0.16 0.896 0.416 1.216 0.64 0.416 0.256 0.96 0.16 1.248-0.256 0.256-0.416 0.16-0.96-0.256-1.248-0.16-0.096-0.32-0.224-0.512-0.32 0.768-0.96 1.952-1.568 3.232-1.568 2.272 0 4.128 1.856 4.128 4.128 0 0.224-0.032 0.448-0.064 0.704-0.064 0.384 0.128 0.8 0.512 0.96 0.768 0.352 1.248 1.12 1.248 1.952 0 1.184-0.96 2.144-2.144 2.144-0.48 0-0.896 0.416-0.896 0.896s0.384 0.896 0.896 0.896c2.176 0 3.936-1.792 4-3.968 0-1.28-0.672-2.496-1.728-3.232zM13.056 13.152c-0.48 0-0.928 0.064-1.376 0.192-0.16-0.256-0.224-0.48-0.224-0.992 0-1.216 0.992-2.208 2.208-2.208 0.864 0 1.664 0.544 2.016 1.312-0.704 0.448-1.344 1.056-1.824 1.792-0.256-0.064-0.512-0.096-0.8-0.096z"></path>
<path fill="#000" d="M18.88 22.4h-0.8l1.504-2.176c0.288-0.416 0.192-0.96-0.224-1.248s-0.96-0.192-1.248 0.224l-2.496 3.584c-0.192 0.288-0.224 0.64-0.064 0.928s0.48 0.48 0.8 0.48h0.864l-1.632 2.56c-0.256 0.416-0.128 0.992 0.288 1.248 0.16 0.096 0.32 0.128 0.48 0.128 0.32 0 0.608-0.16 0.8-0.384l2.496-3.936c0.192-0.288 0.192-0.64 0.032-0.928s-0.48-0.48-0.8-0.48z"></path>
<path fill="#000" d="M13.664 7.264c0.512 0 0.896-0.384 0.896-0.896v-0.928c0-0.48-0.416-0.896-0.896-0.896s-0.896 0.384-0.896 0.896v0.928c0 0.48 0.384 0.896 0.896 0.896z"></path>
<path fill="#000" d="M8.8 8.768c0.192 0.16 0.416 0.256 0.64 0.256s0.448-0.096 0.64-0.256c0.352-0.352 0.352-0.928 0-1.28l-0.64-0.64c-0.352-0.352-0.928-0.352-1.28 0s-0.352 0.928 0 1.28l0.64 0.64z"></path>
<path fill="#000" d="M8.576 12.352c0-0.48-0.384-0.896-0.896-0.896h-0.928c-0.48 0-0.896 0.384-0.896 0.896 0 0.48 0.384 0.896 0.896 0.896h0.928c0.512 0 0.896-0.416 0.896-0.896z"></path>
<path fill="#000" d="M17.888 9.024c0.224 0 0.448-0.096 0.64-0.256l0.64-0.64c0.352-0.352 0.352-0.928 0-1.28s-0.928-0.352-1.28 0l-0.64 0.64c-0.352 0.352-0.352 0.928 0 1.28 0.192 0.16 0.416 0.256 0.64 0.256z"></path>
</svg>
