<?xml version="1.0" encoding="utf-8"?>
<!-- Generated by IcoMoon.io -->
<!DOCTYPE svg PUBLIC "-//W3C//DTD SVG 1.1//EN" "http://www.w3.org/Graphics/SVG/1.1/DTD/svg11.dtd">
<svg version="1.1" xmlns="http://www.w3.org/2000/svg" xmlns:xlink="http://www.w3.org/1999/xlink" width="32" height="32" viewBox="0 0 32 32">
<path fill="#000" d="M24.832 15.904c0-0.128 0-0.256 0-0.384 0-3.296-2.688-5.952-5.952-5.952-0.48 0-0.928 0.064-1.376 0.16-0.544-1.6-2.048-2.688-3.776-2.688-2.208 0-4 1.792-4 4 0 0.672 0.096 1.248 0.48 1.888-1.536 0.96-2.56 2.656-2.56 4.608 0 0.128 0.032 0.256 0.096 0.384 0.128 0.352 0.448 0.608 0.832 0.608 0.48 0 0.896-0.384 0.896-0.896 0-2.016 1.632-3.648 3.648-3.648 0.224 0 0.48 0.032 0.704 0.064 0.48 0.16 0.96 0.448 1.312 0.672 0.416 0.256 0.96 0.16 1.248-0.256 0.256-0.416 0.16-0.96-0.256-1.248-0.16-0.096-0.32-0.224-0.48-0.32 0.768-0.992 1.952-1.568 3.232-1.568 2.272 0 4.128 1.856 4.128 4.128 0 0.224-0.032 0.448-0.064 0.704-0.064 0.384 0.128 0.8 0.512 0.96 0.768 0.352 1.248 1.12 1.248 1.952 0 1.184-0.96 2.144-2.144 2.144h-1.024c-0.48 0-0.896 0.416-0.896 0.896s0.384 0.896 0.896 0.896h1.024c2.176 0 3.936-1.76 4-3.84 0-1.312-0.672-2.528-1.728-3.264zM13.088 12.096c-0.416 0-0.832 0.064-1.216 0.128-0.032-0.064-0.064-0.128-0.096-0.16-0.192-0.288-0.256-0.512-0.256-1.024 0-1.216 0.992-2.208 2.208-2.208 0.96 0 1.824 0.64 2.112 1.568-0.736 0.448-1.376 1.056-1.888 1.792-0.256-0.064-0.576-0.096-0.864-0.096z"></path>
<path fill="#000" d="M17.472 18.688c0-1.12-0.928-2.048-2.048-2.048-0.48 0-0.896 0.416-0.896 0.896s0.384 0.896 0.896 0.896c0.16 0 0.256 0.096 0.256 0.256s-0.128 0.256-0.256 0.256h-10.88c-0.48 0-0.896 0.416-0.896 0.896s0.384 0.896 0.896 0.896h10.88c1.12 0 2.048-0.928 2.048-2.048z"></path>
<path fill="#000" d="M18.144 21.216h-10.88c-0.48 0-0.896 0.416-0.896 0.896s0.384 0.896 0.896 0.896h10.88c0 0 0 0 0 0 0.16 0 0.256 0.096 0.256 0.256s-0.128 0.256-0.256 0.256c-0.48 0-0.896 0.416-0.896 0.896s0.384 0.896 0.896 0.896c1.12 0 2.048-0.928 2.048-2.048s-0.928-2.048-2.048-2.048z"></path>
<path fill="#000" d="M13.728 5.952c0.48 0 0.896-0.384 0.896-0.896v-0.928c0-0.48-0.416-0.896-0.896-0.896s-0.896 0.384-0.896 0.896v0.928c0 0.48 0.384 0.896 0.896 0.896z"></path>
<path fill="#000" d="M8.864 7.456c0.192 0.16 0.416 0.256 0.64 0.256s0.448-0.096 0.64-0.256c0.352-0.352 0.352-0.928 0-1.28l-0.64-0.64c-0.352-0.352-0.928-0.352-1.28 0s-0.352 0.928 0 1.28l0.64 0.64z"></path>
<path fill="#000" d="M6.816 11.936h0.928c0.512 0 0.896-0.416 0.896-0.896s-0.384-0.896-0.896-0.896h-0.928c-0.48 0-0.896 0.416-0.896 0.896s0.384 0.896 0.896 0.896z"></path>
<path fill="#000" d="M17.952 7.712c0.224 0 0.448-0.096 0.64-0.256l0.64-0.64c0.352-0.352 0.352-0.928 0-1.28s-0.928-0.352-1.28 0l-0.64 0.64c-0.352 0.352-0.352 0.928 0 1.28 0.192 0.16 0.416 0.256 0.64 0.256z"></path>
</svg>
