<?xml version="1.0" encoding="utf-8"?>
<!-- Generated by IcoMoon.io -->
<!DOCTYPE svg PUBLIC "-//W3C//DTD SVG 1.1//EN" "http://www.w3.org/Graphics/SVG/1.1/DTD/svg11.dtd">
<svg version="1.1" xmlns="http://www.w3.org/2000/svg" xmlns:xlink="http://www.w3.org/1999/xlink" width="32" height="32" viewBox="0 0 32 32">
<path fill="#000" d="M15.84 13.728c0.48 0 0.896-0.416 0.896-0.928v-1.28c0-0.48-0.384-0.896-0.896-0.896-0.48 0-0.896 0.384-0.896 0.896v1.312c0 0.48 0.384 0.896 0.896 0.896z"></path>
<path fill="#000" d="M9.952 15.648c0.192 0.16 0.416 0.256 0.64 0.256s0.448-0.096 0.64-0.256c0.352-0.352 0.352-0.928 0-1.28l-0.928-0.928c-0.352-0.352-0.928-0.352-1.28 0s-0.352 0.928 0 1.28l0.928 0.928z"></path>
<path fill="#000" d="M21.088 15.904c0.224 0 0.448-0.096 0.64-0.256l0.928-0.928c0.352-0.352 0.352-0.928 0-1.28s-0.928-0.352-1.28 0l-0.928 0.928c-0.352 0.352-0.352 0.928 0 1.28 0.192 0.16 0.416 0.256 0.64 0.256z"></path>
<path fill="#000" d="M24.928 19.488h-3.84c-0.384-2.56-2.56-4.544-5.248-4.544-2.656 0-4.864 1.952-5.248 4.544h-3.488c-0.48 0-0.896 0.416-0.896 0.896s0.384 0.896 0.896 0.896h17.792c0.512 0 0.928-0.416 0.928-0.896s-0.384-0.896-0.896-0.896zM15.84 16.736c1.696 0 3.072 1.184 3.424 2.752h-6.848c0.352-1.568 1.728-2.752 3.424-2.752z"></path>
<path fill="#000" d="M22.784 22.144h-13.632c-0.48 0-0.896 0.416-0.896 0.896s0.384 0.896 0.896 0.896h13.664c0.48 0 0.864-0.416 0.864-0.896s-0.384-0.896-0.896-0.896z"></path>
</svg>
