<?xml version="1.0" encoding="utf-8"?>
<!-- Generated by IcoMoon.io -->
<!DOCTYPE svg PUBLIC "-//W3C//DTD SVG 1.1//EN" "http://www.w3.org/Graphics/SVG/1.1/DTD/svg11.dtd">
<svg version="1.1" xmlns="http://www.w3.org/2000/svg" xmlns:xlink="http://www.w3.org/1999/xlink" width="32" height="32" viewBox="0 0 32 32">
<path fill="#000" d="M16 11.008c-2.912 0-5.312 2.368-5.312 5.312 0 2.912 2.368 5.312 5.312 5.312s5.312-2.368 5.312-5.312c0-2.912-2.368-5.312-5.312-5.312zM16 19.84c-1.952 0-3.52-1.568-3.52-3.52s1.568-3.52 3.52-3.52 3.52 1.568 3.52 3.52-1.568 3.52-3.52 3.52z"></path>
<path fill="#000" d="M16 9.792c0.512 0 0.896-0.384 0.896-0.896v-1.312c0-0.48-0.384-0.896-0.896-0.896-0.48 0-0.896 0.384-0.896 0.896v1.312c0 0.48 0.384 0.896 0.896 0.896z"></path>
<path fill="#000" d="M10.112 11.712c0.192 0.16 0.416 0.256 0.64 0.256s0.448-0.096 0.64-0.256c0.352-0.352 0.352-0.928 0-1.28l-0.928-0.928c-0.352-0.352-0.928-0.352-1.28 0s-0.352 0.928 0 1.28l0.928 0.928z"></path>
<path fill="#000" d="M9.472 16.32c0-0.48-0.384-0.896-0.896-0.896h-1.312c-0.48 0-0.896 0.384-0.896 0.896 0 0.48 0.384 0.896 0.896 0.896h1.312c0.512 0 0.896-0.384 0.896-0.896z"></path>
<path fill="#000" d="M10.112 20.928l-0.928 0.928c-0.352 0.352-0.352 0.928 0 1.28 0.192 0.16 0.416 0.256 0.64 0.256s0.448-0.096 0.64-0.256l0.928-0.928c0.352-0.352 0.352-0.928 0-1.28s-0.928-0.352-1.28 0z"></path>
<path fill="#000" d="M16 22.848c-0.48 0-0.896 0.384-0.896 0.896v1.312c0 0.48 0.384 0.896 0.896 0.896s0.896-0.384 0.896-0.896v-1.312c0-0.48-0.384-0.896-0.896-0.896z"></path>
<path fill="#000" d="M21.888 20.928c-0.352-0.352-0.928-0.352-1.28 0s-0.352 0.928 0 1.28l0.928 0.928c0.192 0.16 0.416 0.256 0.64 0.256s0.448-0.096 0.64-0.256c0.352-0.352 0.352-0.928 0-1.28l-0.928-0.928z"></path>
<path fill="#000" d="M24.736 15.424h-1.312c-0.48 0-0.896 0.384-0.896 0.896 0 0.48 0.384 0.896 0.896 0.896h1.312c0.512 0 0.896-0.384 0.896-0.896 0-0.48-0.384-0.896-0.896-0.896z"></path>
<path fill="#000" d="M21.248 11.968c0.224 0 0.448-0.096 0.64-0.256l0.928-0.928c0.352-0.352 0.352-0.928 0-1.28s-0.928-0.352-1.28 0l-0.928 0.928c-0.352 0.352-0.352 0.928 0 1.28 0.192 0.16 0.416 0.256 0.64 0.256z"></path>
</svg>
