<?xml version="1.0" encoding="utf-8"?>
<!-- Generated by IcoMoon.io -->
<!DOCTYPE svg PUBLIC "-//W3C//DTD SVG 1.1//EN" "http://www.w3.org/Graphics/SVG/1.1/DTD/svg11.dtd">
<svg version="1.1" xmlns="http://www.w3.org/2000/svg" xmlns:xlink="http://www.w3.org/1999/xlink" width="32" height="32" viewBox="0 0 32 32">
<path fill="#000" d="M15.456 13.696c0.48 0 0.896-0.416 0.896-0.896v-1.312c0-0.48-0.416-0.896-0.896-0.896s-0.896 0.384-0.896 0.896v1.312c0 0.48 0.384 0.896 0.896 0.896z"></path>
<path fill="#000" d="M9.568 15.616c0.192 0.16 0.416 0.256 0.64 0.256s0.448-0.096 0.64-0.256c0.352-0.352 0.352-0.928 0-1.28l-0.928-0.928c-0.352-0.352-0.928-0.352-1.28 0s-0.352 0.928 0 1.28l0.928 0.928z"></path>
<path fill="#000" d="M24.512 19.52h-3.808c-0.384-2.56-2.592-4.544-5.248-4.544s-4.896 1.984-5.28 4.544h-3.488c-0.512 0-0.896 0.288-0.896 0.8s0.416 0.8 0.896 0.8h17.824c0.512 0 0.896-0.288 0.896-0.8s-0.416-0.8-0.896-0.8zM12 19.52c0.352-1.6 1.76-2.752 3.456-2.752 1.664 0 3.072 1.152 3.424 2.752h-6.88z"></path>
<path fill="#000" d="M22.4 22.112h-13.632c-0.48 0-0.896 0.416-0.896 0.896s0.384 0.896 0.896 0.896h13.632c0.512 0 0.896-0.416 0.896-0.896s-0.384-0.896-0.896-0.896z"></path>
<path fill="#000" d="M20.864 15.84c0.224 0 0.448-0.096 0.64-0.256l0.288-0.288c0.16 0.192 0.416 0.288 0.672 0.288 0.512 0 0.928-0.416 0.928-0.896v-1.312c-0.032-0.512-0.48-0.896-0.96-0.896h-1.312c-0.512 0-0.896 0.384-0.896 0.896 0 0.256 0.128 0.48 0.288 0.64l-0.288 0.288c-0.352 0.352-0.352 0.928 0 1.28 0.16 0.16 0.416 0.256 0.64 0.256z"></path>
</svg>
