<?xml version="1.0" encoding="utf-8"?>
<!-- Generated by IcoMoon.io -->
<!DOCTYPE svg PUBLIC "-//W3C//DTD SVG 1.1//EN" "http://www.w3.org/Graphics/SVG/1.1/DTD/svg11.dtd">
<svg version="1.1" xmlns="http://www.w3.org/2000/svg" xmlns:xlink="http://www.w3.org/1999/xlink" width="32" height="32" viewBox="0 0 32 32">
<path fill="#000" d="M15.36 12.448c0.512 0 0.96-0.416 0.96-0.896v-1.312c0-0.512-0.448-0.896-0.96-0.896s-0.96 0.416-0.96 0.896v1.312c0 0.48 0.448 0.896 0.96 0.896z"></path>
<path fill="#000" d="M20.704 14.624c0.224 0 0.448-0.096 0.64-0.256l0.928-0.928c0.352-0.352 0.352-0.928 0-1.28s-0.928-0.352-1.28 0l-0.928 0.928c-0.352 0.352-0.352 0.928 0 1.28 0.192 0.16 0.416 0.256 0.64 0.256z"></path>
<path fill="#000" d="M24.512 18.24h-3.808c-0.384-2.56-2.592-4.544-5.248-4.544s-4.864 1.984-5.248 4.544h-3.488c-0.512 0-0.896 0.288-0.896 0.8s0.416 0.8 0.896 0.8h17.792c0.512 0 0.896-0.288 0.896-0.8s-0.384-0.8-0.896-0.8zM12.032 18.24c0.352-1.6 1.76-2.752 3.424-2.752s3.072 1.152 3.424 2.752h-6.848z"></path>
<path fill="#000" d="M22.432 20.8h-13.664c-0.512 0-0.896 0.448-0.896 0.96s0.416 0.96 0.896 0.96h13.632c0.512 0 0.896-0.448 0.896-0.96 0.032-0.512-0.384-0.96-0.864-0.96z"></path>
<path fill="#000" d="M8.352 13.12c-0.192 0.16-0.288 0.416-0.288 0.672 0 0.512 0.416 0.928 0.896 0.928h1.312c0.512 0 0.928-0.448 0.928-0.928v-1.312c0-0.512-0.416-0.896-0.928-0.896-0.256 0-0.512 0.128-0.672 0.288l-0.288-0.288c-0.352-0.352-0.928-0.352-1.28 0s-0.352 0.928 0 1.28l0.32 0.256z"></path>
</svg>
