<?xml version="1.0" encoding="utf-8"?>
<!-- Generated by IcoMoon.io -->
<!DOCTYPE svg PUBLIC "-//W3C//DTD SVG 1.1//EN" "http://www.w3.org/Graphics/SVG/1.1/DTD/svg11.dtd">
<svg version="1.1" xmlns="http://www.w3.org/2000/svg" xmlns:xlink="http://www.w3.org/1999/xlink" width="32" height="32" viewBox="0 0 32 32">
<path fill="#000" d="M20.064 19.968v-10.080c0-0.032 0-0.032 0-0.064 0.032-0.064 0.032-0.128 0.032-0.192 0-1.856-1.472-3.36-3.264-3.36s-3.264 1.504-3.264 3.36c0 0.032 0 0.096 0 0.128s0 0.096 0 0.128v9.824c-0.416 0.576-0.608 1.376-0.608 2.176 0 2.112 1.728 3.84 3.84 3.84s3.84-1.696 3.776-3.904c0-0.736-0.288-1.44-0.512-1.856zM16.768 23.872c-1.12 0-2.016-0.896-2.016-2.016 0-0.416 0.096-0.8 0.288-1.12 0.192-0.16 0.32-0.416 0.32-0.672v-10.176c0-0.032 0-0.096 0-0.128s0-0.096 0-0.128c0-0.864 0.64-1.568 1.44-1.568s1.472 0.736 1.472 1.568c0 0.032 0 0.096 0 0.128s0 0.096 0 0.128v9.984c-0.064 0.256-0.064 0.544 0.096 0.768 0.256 0.416 0.416 0.896 0.416 1.216 0 1.12-0.896 2.016-2.016 2.016z"></path>
<path fill="#000" d="M16.8 19.168c-0.48 0-0.896 0.384-0.896 0.896v1.952c0 0.48 0.384 0.896 0.896 0.896s0.896-0.416 0.896-0.896v-1.952c0-0.48-0.416-0.896-0.896-0.896z"></path>
</svg>
