<?xml version="1.0" encoding="utf-8"?>
<!-- Generated by IcoMoon.io -->
<!DOCTYPE svg PUBLIC "-//W3C//DTD SVG 1.1//EN" "http://www.w3.org/Graphics/SVG/1.1/DTD/svg11.dtd">
<svg version="1.1" xmlns="http://www.w3.org/2000/svg" xmlns:xlink="http://www.w3.org/1999/xlink" width="32" height="32" viewBox="0 0 32 32">
<path fill="#000" d="M23.744 14.080c-0.736-1.728-2.144-3.2-3.968-4.128s-3.84-1.248-5.664-0.864c-1.92 0.384-3.424 1.472-4.224 3.040-0.224 0.448-0.064 0.992 0.384 1.216l5.344 2.752-1.984 3.808c-0.032 0.032-0.064 0.096-0.096 0.128-0.736 1.408-0.192 3.136 1.216 3.872 0.416 0.224 0.864 0.32 1.312 0.32 1.056 0 2.048-0.544 2.56-1.568 0.224-0.448 0.064-0.992-0.384-1.216s-0.992-0.064-1.216 0.384c-0.288 0.512-0.928 0.704-1.44 0.448-0.224-0.128-0.416-0.352-0.512-0.608-0.096-0.224-0.064-0.48 0.032-0.736 0 0 0.032-0.032 0.032-0.032l2.080-4 5.28 2.72c0.128 0.064 0.288 0.096 0.416 0.096 0.32 0 0.64-0.16 0.8-0.48 0.8-1.536 0.8-3.36 0.032-5.152zM22.432 17.568l-1.728-0.896c0.448-1.088 0.672-2.144 0.704-3.104 0.288 0.384 0.512 0.768 0.704 1.184 0.416 0.992 0.512 1.952 0.32 2.816zM17.248 14.912c0 0 0 0 0 0s0 0 0 0l-1.888-0.96c1.184-1.856 2.784-2.816 3.584-2.4 0.832 0.384 0.96 2.24 0.128 4.32l-1.824-0.96zM14.464 10.848c0.448-0.096 0.896-0.128 1.376-0.096-0.768 0.576-1.472 1.376-2.080 2.368l-1.76-0.896c0.576-0.704 1.44-1.152 2.464-1.376z"></path>
</svg>
