<?xml version="1.0" encoding="utf-8"?>
<!-- Generated by IcoMoon.io -->
<!DOCTYPE svg PUBLIC "-//W3C//DTD SVG 1.1//EN" "http://www.w3.org/Graphics/SVG/1.1/DTD/svg11.dtd">
<svg version="1.1" xmlns="http://www.w3.org/2000/svg" xmlns:xlink="http://www.w3.org/1999/xlink" width="32" height="32" viewBox="0 0 32 32">
<path fill="#000" d="M25.12 14.368l-5.92-3.968c-0.064-0.064-0.16-0.128-0.256-0.192-0.256-0.096-0.48-0.096-0.704 0l-2.688 0.384c-0.32 0.032-0.576 0.256-0.704 0.544l-0.224 0.544-2.016-0.832v-0.864c0-0.48-0.416-0.896-0.896-0.896s-0.896 0.384-0.896 0.896v16.736c0 0.48 0.384 0.896 0.896 0.896s0.928-0.384 0.896-0.896v-13.92l1.344 0.544-0.224 0.544c-0.128 0.288-0.064 0.64 0.128 0.896l1.696 2.176c0.096 0.192 0.256 0.32 0.448 0.416 0 0 0.032 0 0.032 0 0.064 0.032 0.128 0.032 0.192 0.064l2.112 0.384c0 0 0 0 0 0 0.128 0.032 0.224 0.064 0.352 0.064 0 0 0 0 0 0l4.64 0.832c0.064 0 0.096 0 0.16 0 0.352 0 0.672-0.192 0.832-0.544l1.12-2.72c0.16-0.384 0.032-0.864-0.32-1.088zM19.936 16.256l1.056-2.56 0.448 0.288-0.96 2.368-0.544-0.096zM17.6 15.84l1.408-3.456 0.448 0.288-1.312 3.264-0.544-0.096zM17.184 12.128l-1.056 2.592-0.544-0.672 0.736-1.792 0.864-0.128zM22.912 16.8l-0.608-0.096 0.672-1.664 0.512 0.352-0.576 1.408z"></path>
</svg>
