<?xml version="1.0" encoding="utf-8"?>
<!-- Generated by IcoMoon.io -->
<!DOCTYPE svg PUBLIC "-//W3C//DTD SVG 1.1//EN" "http://www.w3.org/Graphics/SVG/1.1/DTD/svg11.dtd">
<svg version="1.1" xmlns="http://www.w3.org/2000/svg" xmlns:xlink="http://www.w3.org/1999/xlink" width="32" height="32" viewBox="0 0 32 32">
<path fill="#000" d="M7.712 19.136c0.384 0 0.704-0.224 0.8-0.512 0.064-0.128 0.096-0.256 0.128-0.384 0-1.376 0.768-2.592 1.888-3.2 0.512-0.256 1.088-0.416 1.696-0.416 0.192 0 0.416 0 0.64 0.064 0.544 0.16 1.056 0.448 1.44 0.704 0.416 0.256 0.96 0.16 1.248-0.256 0.256-0.416 0.16-0.96-0.256-1.248-0.16-0.128-0.352-0.224-0.544-0.352 0.768-0.992 1.952-1.568 3.232-1.568 1.92 0 3.584 1.28 4.032 3.136 0.128 0.48 0.608 0.8 1.088 0.672s0.8-0.608 0.672-1.088c-0.64-2.656-3.008-4.512-5.76-4.512-2.016 0-3.872 0.992-4.96 2.688-0.256-0.064-0.512-0.096-0.8-0.096-3.008 0-5.44 2.432-5.44 5.44 0 0 0 0 0 0s0 0 0 0.032c0 0.48 0.384 0.896 0.896 0.896z"></path>
<path fill="#000" d="M16.64 19.36c0-1.12-0.928-2.048-2.048-2.048-0.48 0-0.896 0.416-0.896 0.896s0.384 0.896 0.896 0.896c0.16 0 0.256 0.096 0.256 0.256s-0.128 0.256-0.256 0.256h-10.88c-0.48 0-0.896 0.384-0.896 0.896 0 0.48 0.384 0.896 0.896 0.896h10.88c1.12 0 2.048-0.928 2.048-2.048z"></path>
<path fill="#000" d="M18.464 24.16c-0.064 0-0.16 0-0.224 0.032h-7.968c-0.48 0-0.896 0.416-0.896 0.896s0.384 0.896 0.896 0.896h8.192c0.032 0 0.064 0 0.096 0 0.096 0.032 0.16 0.128 0.16 0.224 0 0.16-0.128 0.256-0.256 0.256-0.48 0-0.896 0.416-0.896 0.896s0.384 0.896 0.896 0.896c1.12 0 2.048-0.896 2.048-2.048 0-1.12-0.928-2.048-2.048-2.048z"></path>
<path fill="#000" d="M21.792 16.032c-2.144 0-3.872 1.728-3.872 3.872 0 0.48 0.416 0.896 0.896 0.896s0.896-0.384 0.896-0.896c0-1.152 0.928-2.080 2.080-2.080s2.080 0.928 2.080 2.080c0 1.152-0.928 2.080-2.080 2.080h-14.464c-0.48 0-0.896 0.416-0.896 0.896s0.384 0.896 0.896 0.896h14.464c2.144 0 3.872-1.728 3.872-3.872s-1.728-3.872-3.872-3.872z"></path>
</svg>
